<svg width="15" height="15" viewBox="0 0 15 15" fill="none" xmlns="http://www.w3.org/2000/svg">
<path d="M13.4221 14.5312C12.8914 13.4094 12.053 12.4614 11.0046 11.7975C9.95608 11.1337 8.74062 10.7813 7.49965 10.7812C6.25867 10.7813 5.04321 11.1337 3.99473 11.7975C2.94625 12.4614 2.10786 13.4094 1.57715 14.5312" stroke="#225A89" stroke-width="0.8" stroke-linecap="round" stroke-linejoin="round"/>
<path d="M7.5 3.28125C7.49983 4.15144 7.15408 4.98594 6.53876 5.60126C5.92344 6.21658 5.08894 6.56233 4.21875 6.5625C4.21875 7.43274 4.56445 8.26734 5.17981 8.88269C5.79516 9.49805 6.62976 9.84375 7.5 9.84375C8.37024 9.84375 9.20484 9.49805 9.82019 8.88269C10.4355 8.26734 10.7812 7.43274 10.7812 6.5625C9.91101 6.5625 9.07641 6.2168 8.46106 5.60144C7.8457 4.98609 7.5 4.15149 7.5 3.28125V3.28125Z" stroke="#225A89" stroke-width="0.8" stroke-linecap="round" stroke-linejoin="round"/>
<path d="M11.1477 11.8919C11.8771 11.7689 12.5888 11.5576 13.2671 11.2625C13.4915 11.1616 13.6673 10.9766 13.7565 10.7473C13.8457 10.518 13.8412 10.2629 13.744 10.0369L12.884 8.03062C12.7339 7.68047 12.6565 7.30347 12.6565 6.9225V5.625C12.6565 4.25748 12.1133 2.94597 11.1463 1.97898C10.1793 1.012 8.86777 0.46875 7.50025 0.46875C6.13273 0.46875 4.82121 1.012 3.85423 1.97898C2.88724 2.94597 2.344 4.25748 2.344 5.625V6.9225C2.344 7.30347 2.2666 7.68047 2.1165 8.03062L1.2565 10.0369C1.15926 10.2629 1.15477 10.518 1.24398 10.7473C1.33319 10.9766 1.50896 11.1616 1.73337 11.2625C2.41166 11.5576 3.12336 11.7689 3.85275 11.8919" stroke="#225A89" stroke-width="0.8" stroke-linecap="round" stroke-linejoin="round"/>
</svg>
