<svg width="1440" height="244" fill="none" xmlns="http://www.w3.org/2000/svg"><path opacity=".2" d="M1440 0v244H0V89.582c50.232-10.911 111.936-18.818 188.928-21.719 109.44-4.128 226.656 2.224 330.12-6.605C649.584 50.124 723.72 17.688 855.432 7.245c160.588-12.734 343.488 11.789 506.758.81C1390.1 6.181 1415.81 3.37 1440 0z" fill="url(#paint0_linear)"/><path opacity=".2" d="M1440 244H0v-46.075c76.824-9.059 161.376-10.16 242.76-7.067 119.328 4.525 236.544 16.096 356.736 14.575 100.008-1.272 195.864-11.542 289.176-22.202 93.312-10.65 187.368-21.901 286.778-25.295 91.89-3.133 190.73 1.332 264.55 17.407V244z" fill="url(#paint1_linear)"/><g opacity=".5" fill="#B9762E" fill-opacity=".65"><g opacity=".5"><path opacity=".5" d="M294.879 208.826c1.13 1.572.992 3.602-.29 4.533-1.297.931-3.251.412-4.381-1.16-1.129-1.572-.992-3.602.29-4.533 1.283-.931 3.252-.413 4.381 1.16zM290.421 213.435c1.236.901 1.649 2.443.901 3.465-.748 1.023-2.336 1.115-3.572.229-1.236-.9-1.649-2.442-.901-3.465.733-1.022 2.336-1.129 3.572-.229zM288.407 218.076c1.236.656 1.801 1.999 1.267 3.022-.535 1.022-1.969 1.312-3.206.656-1.236-.656-1.801-1.999-1.267-3.022.535-1.007 1.969-1.313 3.206-.656zM288.239 222.471c1.251.321 2.045 1.404 1.786 2.427-.26 1.023-1.481 1.603-2.733 1.282-1.251-.32-2.045-1.404-1.785-2.427.274-1.022 1.495-1.602 2.732-1.282z"/><path opacity=".5" d="M289.536 226.272c1.099.275 1.801 1.236 1.572 2.152-.229.901-1.313 1.42-2.412 1.13-1.098-.275-1.801-1.237-1.572-2.153.229-.915 1.313-1.419 2.412-1.129zM314.737 230.332c3.084 1.176 7.739 1.42 8.426 5.083.397 2.107-1.328 4.076-3.251 4.686-2.229.687-4.686-.137-6.67-1.16-2.015-1.023-3.893-2.305-5.969-3.205-2.167-.947-4.533-1.389-6.777-2.107-4.533-1.434-8.181-4.365-9.173-9.219-.641-3.175.107-6.609 2.015-9.219 1.19-1.633 2.961-3.007 5.052-2.519 2.305.55 4.228 2.107 5.663 3.938 3.297 4.213 4.701 10.273 9.509 13.158.366.213.748.396 1.175.564z"/></g><g opacity=".5"><path opacity=".5" d="M315.973 212.504c1.42 1.313 3.45 1.435 4.534.26 1.083-1.175.809-3.19-.611-4.503-1.419-1.313-3.449-1.435-4.533-.259-1.084 1.175-.809 3.19.61 4.502zM321.102 208.658c.733 1.343 2.229 1.923 3.328 1.327 1.099-.61 1.389-2.182.656-3.51-.733-1.343-2.228-1.923-3.327-1.328-1.099.595-1.389 2.167-.657 3.511zM325.956 207.223c.504 1.313 1.771 2.03 2.839 1.633 1.068-.412 1.542-1.801 1.053-3.114-.503-1.312-1.77-2.03-2.839-1.633-1.084.412-1.557 1.801-1.053 3.114zM330.337 207.605c.168 1.282 1.145 2.198 2.198 2.06 1.053-.137 1.77-1.282 1.603-2.549-.168-1.282-1.145-2.198-2.198-2.06-1.054.122-1.771 1.267-1.603 2.549z"/><path opacity=".5" d="M333.938 209.345c.138 1.129 1.008 1.938 1.939 1.831.931-.122 1.557-1.129 1.419-2.259-.137-1.129-1.007-1.938-1.938-1.831-.916.122-1.557 1.129-1.42 2.259zM334.901 234.85c.794 3.206.458 7.846 4.014 8.991 2.046.656 4.213-.809 5.037-2.641.962-2.122.428-4.671-.336-6.762-.778-2.122-1.816-4.136-2.457-6.319-.672-2.274-.824-4.671-1.267-6.991-.87-4.686-3.327-8.654-8.029-10.226-3.068-1.038-6.563-.703-9.387.885-1.755.992-3.343 2.564-3.114 4.701.26 2.351 1.573 4.457 3.221 6.09 3.785 3.786 9.616 5.923 11.89 11.051.184.382.321.779.428 1.221z"/></g></g><g opacity=".5" fill="#B9762E" fill-opacity=".65"><g opacity=".5"><path opacity=".5" d="M407.779 218.863c.76 1.781.183 3.732-1.271 4.361-1.47.626-3.263-.306-4.023-2.087-.759-1.781-.183-3.732 1.271-4.361 1.455-.629 3.263.306 4.023 2.087zM402.424 222.39c1.01 1.149 1.076 2.743.123 3.578-.953.835-2.522.578-3.535-.555-1.011-1.149-1.077-2.743-.124-3.578.938-.838 2.525-.593 3.536.555zM399.446 226.479c1.064.91 1.322 2.344.578 3.226-.745.882-2.208.852-3.272-.058-1.063-.91-1.322-2.344-.577-3.226.741-.867 2.207-.852 3.271.058zM398.324 230.733c1.152.586 1.69 1.816 1.214 2.758-.476.941-1.794 1.241-2.946.656-1.152-.586-1.69-1.817-1.214-2.758.491-.938 1.809-1.238 2.946-.656z"/><path opacity=".5" d="M398.761 234.725c1.013.508 1.489 1.599 1.066 2.443-.42.829-1.591 1.099-2.6.577-1.013-.508-1.489-1.599-1.066-2.443.424-.844 1.591-1.1 2.6-.577zM422.472 244.181c2.753 1.82 7.243 3.073 7.115 6.798-.072 2.142-2.185 3.688-4.195 3.864-2.324.185-4.543-1.155-6.257-2.586-1.743-1.437-3.296-3.098-5.126-4.429-1.909-1.396-4.121-2.344-6.154-3.533-4.112-2.389-7.033-6.044-6.944-10.998.067-3.238 1.545-6.426 3.976-8.558 1.518-1.334 3.546-2.289 5.48-1.356 2.13 1.038 3.667 2.977 4.668 5.077 2.3 4.83 2.349 11.05 6.413 14.914.311.288.643.55 1.024.807z"/></g><g opacity=".5"><path opacity=".5" d="M427.564 227.051c1.099 1.591 3.054 2.152 4.368 1.242 1.314-.911 1.485-2.937.386-4.528-1.1-1.591-3.054-2.152-4.368-1.241-1.314.91-1.485 2.937-.386 4.527zM433.408 224.415c.423 1.471 1.756 2.363 2.958 2.022 1.206-.357 1.832-1.828 1.406-3.283-.422-1.471-1.756-2.363-2.958-2.022-1.202.342-1.828 1.813-1.406 3.283zM438.458 224.073c.205 1.391 1.286 2.367 2.415 2.213 1.132-.169 1.897-1.422 1.706-2.809-.205-1.391-1.285-2.368-2.414-2.213-1.148.166-1.912 1.418-1.707 2.809zM442.65 225.401c-.115 1.288.638 2.395 1.696 2.49 1.058.096 2.008-.865 2.12-2.138.116-1.288-.638-2.395-1.696-2.49-1.054-.111-2.004.85-2.12 2.138z"/><path opacity=".5" d="M445.786 227.884c-.112 1.132.56 2.111 1.492 2.21.936.084 1.766-.763 1.878-1.895.112-1.132-.56-2.112-1.492-2.21-.921-.081-1.766.763-1.878 1.895zM441.165 252.986c.076 3.301-1.263 7.757 1.958 9.649 1.853 1.087 4.288.129 5.492-1.479 1.401-1.861 1.435-4.465 1.146-6.672-.297-2.241-.871-4.433-1.021-6.703-.16-2.366.214-4.738.288-7.099.172-4.763-1.361-9.172-5.607-11.731-2.768-1.682-6.252-2.116-9.354-1.182-1.93.585-3.821 1.774-4.064 3.909-.259 2.351.563 4.693 1.816 6.646 2.869 4.52 8.094 7.876 9.195 13.377.096.412.143.83.151 1.285z"/></g></g><g opacity=".5" fill="#B9762E" fill-opacity=".65"><g opacity=".5"><path opacity=".5" d="M524.318 200.856c.537 1.859-.272 3.726-1.792 4.174-1.534.443-3.201-.701-3.739-2.56-.538-1.86.271-3.727 1.791-4.175 1.52-.447 3.202.701 3.74 2.561zM518.573 203.706c.864 1.262.736 2.853-.312 3.566-1.047.713-2.573.268-3.442-.98-.863-1.263-.735-2.853.312-3.567 1.033-.718 2.579-.282 3.442.981zM515.121 207.404c.945 1.032 1.028 2.487.182 3.271-.846.785-2.295.578-3.24-.455-.946-1.032-1.028-2.487-.182-3.272.841-.77 2.295-.577 3.24.456zM513.491 211.489c1.072.722 1.457 2.008.87 2.885-.587.877-1.932 1.014-3.004.293-1.072-.721-1.457-2.008-.87-2.885.602-.871 1.946-1.009 3.004-.293z"/><path opacity=".5" d="M513.44 215.505c.944.627 1.283 1.768.761 2.554-.518.772-1.713.898-2.651.257-.944-.627-1.283-1.768-.761-2.555.523-.786 1.713-.897 2.651-.256zM535.826 227.77c2.512 2.141 6.817 3.93 6.237 7.612-.331 2.117-2.616 3.395-4.633 3.326-2.329-.099-4.369-1.699-5.896-3.327-1.556-1.638-2.896-3.475-4.55-5.019-1.726-1.617-3.807-2.827-5.68-4.254-3.791-2.87-6.247-6.854-5.557-11.759.46-3.207 2.314-6.192 4.986-8.012 1.669-1.141 3.798-1.842 5.604-.682 1.988 1.29 3.279 3.401 4.017 5.608 1.696 5.073.99 11.253 4.554 15.582.274.324.572.624.918.925z"/></g><g opacity=".5"><path opacity=".5" d="M542.961 211.386c.898 1.713 2.77 2.507 4.185 1.763 1.415-.745 1.831-2.735.933-4.447-.898-1.713-2.77-2.507-4.185-1.763-1.415.745-1.831 2.735-.933 4.447zM549.082 209.48c.241 1.511 1.456 2.558 2.691 2.365 1.24-.207 2.04-1.591 1.794-3.088-.24-1.511-1.456-2.558-2.69-2.366-1.235.193-2.035 1.577-1.795 3.089zM554.136 209.753c.035 1.406.989 2.506 2.129 2.49 1.144-.031 2.055-1.181 2.035-2.581-.035-1.406-.989-2.506-2.128-2.49-1.16.025-2.071 1.176-2.036 2.581zM558.136 211.58c-.271 1.264.343 2.455 1.381 2.678 1.039.223 2.098-.615 2.364-1.865.271-1.265-.342-2.455-1.381-2.678-1.033-.238-2.092.601-2.364 1.865z"/><path opacity=".5" d="M560.947 214.425c-.249 1.111.3 2.164 1.213 2.376.919.196 1.846-.543 2.094-1.654.249-1.11-.3-2.164-1.213-2.375-.904-.191-1.845.543-2.094 1.653zM553.312 238.781c-.325 3.286-2.196 7.546.772 9.815 1.707 1.304 4.24.649 5.631-.801 1.616-1.677 1.966-4.258 1.948-6.484-.023-2.259-.327-4.505-.2-6.777.129-2.368.788-4.677 1.148-7.011.749-4.707-.237-9.269-4.14-12.325-2.543-2.006-5.949-2.86-9.142-2.31-1.986.347-4.008 1.297-4.508 3.387-.543 2.302-.012 4.726.995 6.817 2.299 4.835 7.077 8.801 7.503 14.395.044.421.041.841-.007 1.294z"/></g></g><g opacity=".5" fill="#B9762E" fill-opacity=".65"><g opacity=".5"><path opacity=".5" d="M628.938 225.478c1.919.251 3.306 1.74 3.108 3.312-.208 1.583-1.923 2.654-3.842 2.402-1.92-.251-3.307-1.74-3.109-3.312.198-1.572 1.923-2.654 3.843-2.402zM629.251 231.882c1.503-.286 2.909.468 3.144 1.713.234 1.245-.785 2.466-2.276 2.762-1.503.286-2.909-.467-3.144-1.713-.245-1.233.774-2.476 2.276-2.762zM631.259 236.526c1.324-.453 2.69.053 3.071 1.142.381 1.09-.389 2.335-1.714 2.788-1.324.453-2.69-.054-3.071-1.143-.369-1.079.389-2.334 1.714-2.787zM634.351 239.655c1.089-.694 2.423-.532 2.992.357.568.889.156 2.176-.934 2.87s-2.423.532-2.992-.357c-.558-.9-.146-2.187.934-2.87z"/><path opacity=".5" d="M638.01 241.309c.952-.614 2.134-.469 2.646.325.5.783.137 1.928-.826 2.532-.952.613-2.134.468-2.645-.325-.512-.794-.138-1.929.825-2.532zM658.209 225.701c2.966-1.446 6.329-4.675 9.471-2.67 1.808 1.151 2.065 3.756 1.195 5.576-1.023 2.096-3.306 3.325-5.409 4.073-2.124.77-4.343 1.263-6.42 2.161-2.173.934-4.114 2.357-6.172 3.504-4.147 2.325-8.78 2.982-13 .386-2.755-1.704-4.748-4.598-5.347-7.775-.378-1.986-.169-4.217 1.618-5.409 1.977-1.305 4.428-1.643 6.746-1.437 5.328.476 10.709 3.596 16.102 2.062a8.348 8.348 0 001.216-.471z"/></g><g opacity=".5"><path opacity=".5" d="M646.049 212.605c1.928-.138 3.406-1.535 3.29-3.13-.116-1.594-1.774-2.772-3.703-2.634-1.928.138-3.406 1.535-3.29 3.13.117 1.594 1.774 2.772 3.703 2.634zM646.751 206.232c1.481.385 2.927-.31 3.244-1.519.307-1.219-.642-2.506-2.112-2.88-1.481-.384-2.927.31-3.244 1.519-.318 1.209.631 2.496 2.112 2.88zM649.024 201.711c1.302.53 2.692.097 3.133-.954.43-1.062-.26-2.357-1.551-2.898-1.302-.531-2.692-.097-3.133.954-.441 1.072.249 2.367 1.551 2.898zM652.299 198.776c1.05.754 2.386.668 3.006-.195.62-.862.276-2.168-.763-2.912-1.05-.755-2.386-.668-3.007.194-.631.852-.286 2.158.764 2.913z"/><path opacity=".5" d="M656.031 197.338c.918.673 2.104.591 2.662-.161.548-.763.241-1.908-.677-2.581-.918-.672-2.103-.591-2.662.162-.537.751-.241 1.908.677 2.58zM675.296 214.081c2.882 1.613 6.037 5.032 9.304 3.221 1.878-1.043 2.292-3.627 1.519-5.481-.89-2.153-3.115-3.506-5.162-4.38-2.08-.883-4.26-1.504-6.291-2.529-2.118-1.066-3.971-2.594-5.966-3.858-4.014-2.57-8.59-3.492-12.952-1.137-2.856 1.528-5.001 4.308-5.775 7.453-.477 1.959-.415 4.193 1.3 5.487 1.892 1.419 4.327 1.902 6.646 1.816 5.35-.172 10.897-2.964 16.194-1.115a6.02 6.02 0 011.183.523z"/></g></g><g opacity=".5" fill="#B9762E" fill-opacity=".65"><g opacity=".5"><path opacity=".5" d="M744.396 204.826c1.129 1.572.992 3.602-.29 4.533-1.298.931-3.252.412-4.381-1.16-1.13-1.572-.992-3.602.29-4.533 1.282-.931 3.251-.413 4.381 1.16zM739.938 209.435c1.236.901 1.648 2.443.9 3.465-.748 1.023-2.335 1.115-3.571.229-1.237-.9-1.649-2.442-.901-3.465.733-1.022 2.335-1.129 3.572-.229zM737.923 214.076c1.237.656 1.801 1.999 1.267 3.022-.534 1.022-1.969 1.312-3.205.656s-1.801-1.999-1.267-3.022c.534-1.007 1.969-1.313 3.205-.656zM737.755 218.471c1.252.321 2.046 1.404 1.786 2.427-.259 1.023-1.48 1.603-2.732 1.282-1.252-.32-2.045-1.404-1.786-2.427.275-1.022 1.496-1.602 2.732-1.282z"/><path opacity=".5" d="M739.053 222.272c1.099.275 1.801 1.236 1.572 2.152-.229.901-1.313 1.42-2.412 1.13-1.099-.275-1.801-1.237-1.572-2.153.229-.915 1.313-1.419 2.412-1.129zM764.254 226.332c3.083 1.176 7.739 1.42 8.426 5.083.396 2.107-1.328 4.076-3.252 4.686-2.228.687-4.686-.137-6.67-1.16-2.015-1.023-3.892-2.305-5.968-3.205-2.167-.947-4.533-1.389-6.777-2.107-4.533-1.434-8.181-4.365-9.173-9.219-.642-3.175.106-6.609 2.014-9.219 1.191-1.633 2.962-3.007 5.053-2.519 2.304.55 4.228 2.107 5.662 3.938 3.297 4.213 4.702 10.273 9.51 13.158.366.213.748.396 1.175.564z"/></g><g opacity=".5"><path opacity=".5" d="M765.49 208.504c1.42 1.313 3.45 1.435 4.533.26 1.084-1.175.809-3.19-.61-4.503-1.42-1.313-3.45-1.435-4.534-.259-1.083 1.175-.809 3.19.611 4.502zM770.619 204.658c.733 1.343 2.228 1.923 3.327 1.327 1.099-.61 1.389-2.182.657-3.51-.733-1.343-2.229-1.923-3.328-1.328-1.099.595-1.389 2.167-.656 3.511zM775.473 203.223c.503 1.313 1.77 2.03 2.839 1.633 1.068-.412 1.541-1.801 1.053-3.114-.504-1.312-1.771-2.03-2.839-1.633-1.084.412-1.557 1.801-1.053 3.114zM779.853 203.605c.168 1.282 1.145 2.198 2.198 2.06 1.054-.137 1.771-1.282 1.603-2.549-.168-1.282-1.145-2.198-2.198-2.06-1.053.122-1.77 1.267-1.603 2.549z"/><path opacity=".5" d="M783.455 205.345c.137 1.129 1.007 1.938 1.939 1.831.931-.122 1.556-1.129 1.419-2.259-.137-1.129-1.007-1.938-1.938-1.831-.916.122-1.557 1.129-1.42 2.259zM784.417 230.85c.794 3.206.458 7.846 4.015 8.991 2.045.656 4.213-.809 5.037-2.641.961-2.122.427-4.671-.336-6.762-.778-2.122-1.816-4.136-2.457-6.319-.672-2.274-.825-4.671-1.267-6.991-.87-4.686-3.328-8.654-8.029-10.226-3.068-1.038-6.563-.703-9.387.885-1.756.992-3.343 2.564-3.114 4.701.259 2.351 1.572 4.457 3.221 6.09 3.785 3.786 9.616 5.923 11.89 11.051.183.382.321.779.427 1.221z"/></g></g><g opacity=".5" fill="#B9762E" fill-opacity=".65"><g opacity=".5"><path opacity=".5" d="M849.865 213.826c1.13 1.572.993 3.602-.29 4.533-1.297.931-3.251.412-4.38-1.16-1.13-1.572-.992-3.602.29-4.533 1.282-.931 3.251-.413 4.38 1.16zM845.407 218.435c1.237.901 1.649 2.443.901 3.465-.748 1.023-2.335 1.115-3.572.229-1.236-.9-1.648-2.442-.9-3.465.732-1.022 2.335-1.129 3.571-.229zM843.393 223.076c1.236.656 1.801 1.999 1.267 3.022-.534 1.022-1.969 1.312-3.205.656-1.237-.656-1.802-1.999-1.267-3.022.534-1.007 1.969-1.313 3.205-.656zM843.225 227.471c1.252.321 2.046 1.404 1.786 2.427-.259 1.023-1.481 1.603-2.732 1.282-1.252-.32-2.046-1.404-1.786-2.427.275-1.022 1.496-1.602 2.732-1.282z"/><path opacity=".5" d="M844.522 231.272c1.099.275 1.801 1.236 1.572 2.152-.228.901-1.312 1.42-2.411 1.13-1.099-.275-1.801-1.237-1.572-2.153.229-.915 1.312-1.419 2.411-1.129zM869.724 235.332c3.083 1.176 7.738 1.42 8.425 5.083.397 2.107-1.328 4.076-3.251 4.686-2.228.687-4.686-.137-6.67-1.16-2.015-1.023-3.892-2.305-5.968-3.205-2.168-.947-4.533-1.389-6.777-2.107-4.534-1.434-8.182-4.365-9.174-9.219-.641-3.175.107-6.609 2.015-9.219 1.191-1.633 2.961-3.007 5.052-2.519 2.305.55 4.228 2.107 5.663 3.938 3.297 4.213 4.701 10.273 9.509 13.158.367.213.748.396 1.176.564z"/></g><g opacity=".5"><path opacity=".5" d="M870.96 217.504c1.419 1.313 3.449 1.435 4.533.26 1.084-1.175.809-3.19-.611-4.503-1.419-1.313-3.449-1.435-4.533-.259-1.084 1.175-.809 3.19.611 4.502zM876.089 213.658c.732 1.343 2.228 1.923 3.327 1.327 1.099-.61 1.389-2.182.656-3.51-.732-1.343-2.228-1.923-3.327-1.328-1.099.595-1.389 2.167-.656 3.511zM880.942 212.223c.504 1.313 1.771 2.03 2.839 1.633 1.069-.412 1.542-1.801 1.054-3.114-.504-1.312-1.771-2.03-2.84-1.633-1.083.412-1.556 1.801-1.053 3.114zM885.323 212.605c.168 1.282 1.145 2.198 2.198 2.06 1.053-.137 1.771-1.282 1.603-2.549-.168-1.282-1.145-2.198-2.198-2.06-1.053.122-1.771 1.267-1.603 2.549z"/><path opacity=".5" d="M888.925 214.345c.137 1.129 1.007 1.938 1.938 1.831.931-.122 1.557-1.129 1.42-2.259-.138-1.129-1.008-1.938-1.939-1.831-.915.122-1.557 1.129-1.419 2.259zM889.887 239.85c.794 3.206.458 7.846 4.015 8.991 2.045.656 4.212-.809 5.037-2.641.961-2.122.427-4.671-.336-6.762-.779-2.122-1.817-4.136-2.458-6.319-.671-2.274-.824-4.671-1.267-6.991-.87-4.686-3.327-8.654-8.028-10.226-3.068-1.038-6.564-.703-9.387.885-1.756.992-3.343 2.564-3.114 4.701.259 2.351 1.572 4.457 3.22 6.09 3.786 3.786 9.616 5.923 11.891 11.051.183.382.32.779.427 1.221z"/></g></g><g opacity=".5" fill="#B9762E" fill-opacity=".65"><g opacity=".5"><path opacity=".5" d="M963.29 209.003c.731 1.793.122 3.734-1.342 4.34-1.479.601-3.258-.36-3.988-2.153-.73-1.793-.122-3.735 1.343-4.34 1.464-.605 3.257.36 3.987 2.153zM957.877 212.442c.992 1.165 1.032 2.76.065 3.579-.966.819-2.531.537-3.526-.613-.991-1.165-1.031-2.76-.065-3.579.952-.823 2.535-.552 3.526.613zM954.834 216.482c1.048.927 1.283 2.365.524 3.234-.758.87-2.221.816-3.27-.111-1.048-.928-1.283-2.366-.524-3.235.755-.855 2.221-.816 3.27.112zM953.642 220.717c1.142.604 1.66 1.843 1.168 2.777-.491.934-1.814 1.212-2.956.607-1.142-.604-1.66-1.844-1.168-2.777.506-.93 1.829-1.208 2.956-.607z"/><path opacity=".5" d="M954.014 224.715c1.004.524 1.461 1.624 1.025 2.46-.434.822-1.609 1.073-2.609.534-1.005-.524-1.462-1.623-1.025-2.46.436-.837 1.608-1.073 2.609-.534zM977.566 234.559c2.722 1.864 7.191 3.19 7.002 6.913-.107 2.141-2.244 3.651-4.257 3.795-2.327.146-4.524-1.23-6.214-2.688-1.719-1.466-3.245-3.152-5.052-4.513-1.886-1.427-4.083-2.411-6.096-3.634-4.072-2.455-6.933-6.158-6.762-11.109.119-3.237 1.65-6.401 4.116-8.492 1.539-1.31 3.582-2.231 5.501-1.267 2.112 1.074 3.618 3.037 4.584 5.154 2.22 4.867 2.168 11.087 6.167 15.017.306.293.634.56 1.011.824z"/></g><g opacity=".5"><path opacity=".5" d="M982.938 217.515c1.073 1.608 3.018 2.202 4.347 1.313 1.328-.889 1.533-2.913.46-4.521s-3.018-2.202-4.347-1.313c-1.329.889-1.533 2.912-.46 4.521zM988.825 214.975c.398 1.477 1.716 2.391 2.924 2.069 1.211-.336 1.861-1.797 1.459-3.259-.398-1.478-1.716-2.391-2.924-2.07-1.208.322-1.858 1.782-1.459 3.26zM993.879 214.716c.183 1.394 1.247 2.388 2.379 2.252 1.135-.151 1.92-1.391 1.752-2.781-.183-1.394-1.246-2.388-2.378-2.252-1.15.147-1.935 1.387-1.753 2.781zM998.05 216.112c-.137 1.286.598 2.405 1.654 2.518 1.056.113 2.026-.833 2.156-2.104.14-1.286-.6-2.404-1.66-2.517-1.048-.128-2.014.817-2.15 2.103z"/><path opacity=".5" d="M1001.14 218.646c-.13 1.13.53 2.12 1.46 2.234.93.099 1.78-.734 1.91-1.864.13-1.13-.53-2.12-1.46-2.234-.92-.096-1.78.734-1.91 1.864zM996.112 243.669c.022 3.302-1.39 7.735 1.8 9.68 1.835 1.117 4.288.199 5.518-1.389 1.43-1.838 1.51-4.441 1.25-6.652-.26-2.245-.8-4.447-.91-6.719-.12-2.369.29-4.734.41-7.093.25-4.76-1.21-9.193-5.418-11.822-2.74-1.727-6.217-2.218-9.333-1.335-1.939.554-3.85 1.711-4.128 3.842-.297 2.346.486 4.701 1.707 6.675 2.794 4.566 7.963 8.008 8.974 13.526.089.414.13.832.13 1.287z"/></g></g><g opacity=".5" fill="#B9762E" fill-opacity=".65"><g opacity=".5"><path opacity=".5" d="M1068.51 204.826c1.13 1.572.99 3.602-.29 4.533-1.29.931-3.25.412-4.38-1.16-1.13-1.572-.99-3.602.29-4.533 1.28-.931 3.25-.413 4.38 1.16zM1064.05 209.435c1.24.901 1.65 2.443.91 3.465-.75 1.023-2.34 1.115-3.58.229-1.23-.9-1.64-2.442-.9-3.465.74-1.022 2.34-1.129 3.57-.229zM1062.04 214.076c1.24.656 1.8 1.999 1.27 3.022-.54 1.022-1.97 1.312-3.21.656-1.23-.656-1.8-1.999-1.26-3.022.53-1.007 1.96-1.313 3.2-.656zM1061.87 218.471c1.25.321 2.05 1.404 1.79 2.427-.26 1.023-1.48 1.603-2.73 1.282-1.26-.32-2.05-1.404-1.79-2.427.28-1.022 1.5-1.602 2.73-1.282z"/><path opacity=".5" d="M1063.17 222.272c1.1.275 1.8 1.236 1.57 2.152-.23.901-1.31 1.42-2.41 1.13-1.1-.275-1.8-1.237-1.57-2.153.23-.915 1.31-1.419 2.41-1.129zM1088.37 226.332c3.08 1.176 7.74 1.42 8.43 5.083.39 2.107-1.33 4.076-3.25 4.686-2.23.687-4.69-.137-6.67-1.16-2.02-1.023-3.9-2.305-5.97-3.205-2.17-.947-4.54-1.389-6.78-2.107-4.53-1.434-8.18-4.365-9.17-9.219-.64-3.175.1-6.609 2.01-9.219 1.19-1.633 2.96-3.007 5.05-2.519 2.31.55 4.23 2.107 5.67 3.938 3.29 4.213 4.7 10.273 9.51 13.158.36.213.74.396 1.17.564z"/></g><g opacity=".5"><path opacity=".5" d="M1089.61 208.504c1.42 1.313 3.45 1.435 4.53.26s.81-3.19-.61-4.503c-1.42-1.313-3.45-1.435-4.53-.259-1.09 1.175-.81 3.19.61 4.502zM1094.74 204.658c.73 1.343 2.22 1.923 3.32 1.327 1.1-.61 1.39-2.182.66-3.51-.73-1.343-2.23-1.923-3.33-1.328s-1.39 2.167-.65 3.511zM1099.59 203.223c.5 1.313 1.77 2.03 2.84 1.633 1.07-.412 1.54-1.801 1.05-3.114-.5-1.312-1.77-2.03-2.84-1.633-1.08.412-1.55 1.801-1.05 3.114zM1103.97 203.605c.17 1.282 1.15 2.198 2.2 2.06 1.05-.137 1.77-1.282 1.6-2.549-.17-1.282-1.14-2.198-2.2-2.06-1.05.122-1.77 1.267-1.6 2.549z"/><path opacity=".5" d="M1107.57 205.345c.14 1.129 1.01 1.938 1.94 1.831.93-.122 1.56-1.129 1.42-2.259-.14-1.129-1.01-1.938-1.94-1.831-.91.122-1.56 1.129-1.42 2.259zM1108.53 230.85c.8 3.206.46 7.846 4.02 8.991 2.04.656 4.21-.809 5.04-2.641.96-2.122.42-4.671-.34-6.762-.78-2.122-1.82-4.136-2.46-6.319-.67-2.274-.82-4.671-1.26-6.991-.87-4.686-3.33-8.654-8.03-10.226-3.07-1.038-6.57-.703-9.39.885-1.76.992-3.34 2.564-3.11 4.701.26 2.351 1.57 4.457 3.22 6.09 3.78 3.786 9.61 5.923 11.89 11.051.18.382.32.779.42 1.221z"/></g></g><g opacity=".5" fill="#B9762E" fill-opacity=".65"><g opacity=".5"><path opacity=".5" d="M1173.88 199.826c1.13 1.572.99 3.602-.29 4.533-1.3.931-3.25.412-4.38-1.16-1.13-1.572-.99-3.602.29-4.533 1.28-.931 3.25-.413 4.38 1.16zM1169.42 204.435c1.24.901 1.65 2.443.9 3.465-.75 1.023-2.33 1.115-3.57.229-1.24-.9-1.65-2.442-.9-3.465.73-1.022 2.33-1.129 3.57-.229zM1167.41 209.076c1.23.656 1.8 1.999 1.26 3.022-.53 1.022-1.97 1.312-3.2.656-1.24-.656-1.8-1.999-1.27-3.022.54-1.007 1.97-1.313 3.21-.656zM1167.24 213.471c1.25.321 2.04 1.404 1.78 2.427-.25 1.023-1.48 1.603-2.73 1.282-1.25-.32-2.04-1.404-1.78-2.427.27-1.022 1.49-1.602 2.73-1.282z"/><path opacity=".5" d="M1168.54 217.272c1.09.275 1.8 1.236 1.57 2.152-.23.901-1.31 1.42-2.41 1.13-1.1-.275-1.8-1.237-1.58-2.153.23-.915 1.32-1.419 2.42-1.129zM1193.74 221.332c3.08 1.176 7.74 1.42 8.42 5.083.4 2.107-1.32 4.076-3.25 4.686-2.23.687-4.68-.137-6.67-1.16-2.01-1.023-3.89-2.305-5.97-3.205-2.16-.947-4.53-1.389-6.77-2.107-4.54-1.434-8.18-4.365-9.18-9.219-.64-3.175.11-6.609 2.02-9.219 1.19-1.633 2.96-3.007 5.05-2.519 2.3.55 4.23 2.107 5.66 3.938 3.3 4.213 4.7 10.273 9.51 13.158.37.213.75.396 1.18.564z"/></g><g opacity=".5"><path opacity=".5" d="M1194.97 203.504c1.42 1.313 3.45 1.435 4.54.26 1.08-1.175.81-3.19-.61-4.503-1.42-1.313-3.45-1.435-4.54-.259-1.08 1.175-.81 3.19.61 4.502zM1200.1 199.658c.73 1.343 2.23 1.923 3.33 1.327 1.1-.61 1.39-2.182.66-3.51-.74-1.343-2.23-1.923-3.33-1.328s-1.39 2.167-.66 3.511zM1204.96 198.223c.5 1.313 1.77 2.03 2.84 1.633 1.06-.412 1.54-1.801 1.05-3.114-.51-1.312-1.77-2.03-2.84-1.633-1.08.412-1.56 1.801-1.05 3.114zM1209.34 198.605c.16 1.282 1.14 2.198 2.19 2.06 1.06-.137 1.78-1.282 1.61-2.549-.17-1.282-1.15-2.198-2.2-2.06-1.05.122-1.77 1.267-1.6 2.549z"/><path opacity=".5" d="M1212.94 200.345c.14 1.129 1.01 1.938 1.94 1.831.93-.122 1.55-1.129 1.42-2.259-.14-1.129-1.01-1.938-1.94-1.831-.92.122-1.56 1.129-1.42 2.259zM1213.9 225.85c.79 3.206.46 7.846 4.02 8.991 2.04.656 4.21-.809 5.03-2.641.96-2.122.43-4.671-.33-6.762-.78-2.122-1.82-4.136-2.46-6.319-.67-2.274-.83-4.671-1.27-6.991-.87-4.686-3.33-8.654-8.03-10.226-3.06-1.038-6.56-.703-9.38.885-1.76.992-3.35 2.564-3.12 4.701.26 2.351 1.57 4.457 3.22 6.09 3.79 3.786 9.62 5.923 11.89 11.051.19.382.32.779.43 1.221z"/></g></g><g opacity=".8"><path fill-rule="evenodd" clip-rule="evenodd" d="M70.964 56.745s-4.354 13.592-3.551 25.233l5.103.281-4.748 2.532s1.683 10.99 9.89 29.963l4.721-12.467-4.721-8.247 5.208 6.471s4.406-15.72 4.419-27.483c.013-11.746-1.131-15.984-1.131-15.984s-11.43-7.877-15.19-.299z" fill="url(#paint2_linear)"/><path fill-rule="evenodd" clip-rule="evenodd" d="M77.658 51.61s16.531-6.822 21.292-6.682c4.761.141 22.2 23.598 22.2 23.598s-12.626-1.653-15.532-3.112c-2.907-1.46-11.376-5.733-11.376-5.733H80.459l-2.801-8.07z" fill="url(#paint3_linear)"/><path fill-rule="evenodd" clip-rule="evenodd" d="M-6 242.377s22.463-105.995 29.578-126.885c7.102-20.89 48.924-59.468 48.924-59.468l2.656 3.605s-33.865 29.03-46.438 55.529C16.147 141.657 1.746 242.359 1.746 242.359H-6v.018z" fill="url(#paint4_linear)"/><path fill-rule="evenodd" clip-rule="evenodd" d="M77.013 57.483s25.514-10.022 31.972-10.796c6.47-.791 29.091 6.33 29.091 6.33l-6.273 2.339-5.932-3.535 3.801 4.924s-17.452 4.906-19.451 5.943l-2.144-1.02-2.446 1.002s-5.432 3.007-11.376 2.726c-5.945-.264-17.242-7.913-17.242-7.913z" fill="url(#paint5_linear)"/><path opacity=".5" fill-rule="evenodd" clip-rule="evenodd" d="M100.161 64.746l-2.17-14.472-3.406 1.056 1.999 14.418 3.577-1.002z" fill="url(#paint6_linear)"/><path opacity=".71" fill-rule="evenodd" clip-rule="evenodd" d="M67.767 84.791s3.38 16.406 9.89 29.963l-1.394-41.305.75-17.566-7.825 7.72-1.591 8.704s-.46 6.03-.171 9.653l5.352.387-5.01 2.444z" fill="url(#paint7_linear)"/><path fill-rule="evenodd" clip-rule="evenodd" d="M86.561 63.603s8.207 24.899 20.99 39.739l-1.67-24.406-5.169-11.799-14.151-3.534z" fill="url(#paint8_linear)"/><path fill-rule="evenodd" clip-rule="evenodd" d="M75.158 56.745s19.846 4.519 26.987 10.427c7.155 5.89 5.024 45.471 5.024 45.471l-8.97-40.372-23.606-13.733L74 57.044l1.157-.3z" fill="url(#paint9_linear)"/><path fill-rule="evenodd" clip-rule="evenodd" d="M31.008 41.781s7.273 3.43 17.071 5.451c9.798 2.04 18.623 1.829 18.623 1.829l.184-9.759-4.748-6.717c.013 0-22.713 3.728-31.13 9.196z" fill="url(#paint10_linear)"/><path fill-rule="evenodd" clip-rule="evenodd" d="M67.32 50.731s-12.204 1.618-19.227 4.08c-7.036 2.461-22.66 22.788-22.66 22.788s6.339-.317 11.52-2.427l1.592-8.563v7.72s11.494-.774 18.004-6.507c6.51-5.732 7.996-13.961 7.996-13.961l2.775-3.13z" fill="url(#paint11_linear)"/><path fill-rule="evenodd" clip-rule="evenodd" d="M74.001 57.026s21.91 5.416 25.264 11.782c3.341 6.365 7.904 43.801 7.904 43.801l-9.232-9.742 3.761-12.66-4.708 10.568-5.813-11.447 4.287-14.19-5.694 12.414-1.302-1.636 5.931-14.031-7.154 11.306c0 .035-10.22-17.883-13.244-26.165z" fill="url(#paint12_linear)"/><path fill-rule="evenodd" clip-rule="evenodd" d="M77.657 52.735s-8.43-19.412-11.468-21.91c-3.038-2.479-19.517 1.583-35.18 10.955 0 0 11.362 2.269 14.742 2.55l2.538-8.352-1.038 8.352h12.572l4.498-8.352-3.656 10.427 2.144 2.04 5.274-4.766-3.92 5.434s5.209 3.622 13.494 3.622z" fill="url(#paint13_linear)"/><path fill-rule="evenodd" clip-rule="evenodd" d="M78.985 57.501l-3.919-3.095 2.604 4.115-10.758 19.342-5.563-10.304 3.88 13.012C57.943 87.34 47.54 94.022 47.54 94.022c-1.841-13.926 0-28.679 0-28.679l8.943-1.336-7.812-1.336s13.454-20.362 18.176-19.659c4.59.668 14.98 13.293 15.545 13.997.013.017.026.017.026.017l-3.433.475z" fill="url(#paint14_linear)"/><path fill-rule="evenodd" clip-rule="evenodd" d="M82.379 57.009c-.553-.475-9.338-7.948-11.035-7.948-1.762.017-5.392 1.617-10.863 10.603-5.47 8.968-12.941 34.358-12.941 34.358-1.841-13.926 0-28.679 0-28.679l8.943-1.336-7.812-1.336s13.454-20.362 18.176-19.659c4.563.686 14.966 13.293 15.532 13.997z" fill="url(#paint15_linear)"/><path fill-rule="evenodd" clip-rule="evenodd" d="M47.79 93.161s2.788-11.06 5.944-19.711c3.157-8.651 7.273-16.635 10.114-19.993 2.84-3.376 6.484-5.064 8.312-4.924 1.828.141 9.995 8.212 9.995 8.212s-7.562-6.664-10.192-6.928c-2.63-.264-8.588 5.82-10.942 8.985-2.342 3.148-7.47 17.936-8.273 19.694-.815 1.741-4.958 14.665-4.958 14.665z" fill="url(#paint16_linear)"/><path fill-rule="evenodd" clip-rule="evenodd" d="M83.26 55.092s20.766-7.227 25.856-7.666c5.089-.44 28.96 5.591 28.96 5.591s-21.556-7.051-28.355-6.4c-6.8.668-23.331 6.84-26.461 8.475z" fill="url(#paint17_linear)"/><path fill-rule="evenodd" clip-rule="evenodd" d="M80.169 58.785s16.637 7.297 18.912 10.656c2.275 3.34 5.326 26.024 5.471 27.536.158 1.53 2.604 15.65 2.604 15.65s-1.618-13.4-1.618-16.248c0-2.848-3.09-22.665-6.141-27.852-3.025-5.188-19.228-9.742-19.228-9.742z" fill="url(#paint18_linear)"/><path fill-rule="evenodd" clip-rule="evenodd" d="M41.424 36.33s17.557-6.717 22.423-5.697c4.866 1.02 11.718 17.408 11.718 17.408s-6.523-14.7-9.377-17.215c-2.854-2.514-15.558 1.108-24.764 5.504z" fill="url(#paint19_linear)"/><path opacity=".5" fill-rule="evenodd" clip-rule="evenodd" d="M66.899 77.88l-8.01-15.034.987-2.092 11.258 9.495-4.235 7.632z" fill="url(#paint20_linear)"/><path opacity=".5" fill-rule="evenodd" clip-rule="evenodd" d="M110.234 62.67l-2.131-15.104-.026 14.102 2.157 1.002z" fill="url(#paint21_linear)"/><path opacity=".5" fill-rule="evenodd" clip-rule="evenodd" d="M119.085 48.727l8.049 8.739 2.538-.721-3.801-4.924-2.775-2.286-4.011-.808z" fill="url(#paint22_linear)"/><path opacity=".5" fill-rule="evenodd" clip-rule="evenodd" d="M48.657 62.67l8.943 1.495.276-.563-8.325-2.461-.894 1.53z" fill="url(#paint23_linear)"/><path opacity=".5" fill-rule="evenodd" clip-rule="evenodd" d="M78.986 57.501l-8.812-7.227 1.789-.475 9.18 7.403-2.157.299z" fill="url(#paint24_linear)"/><path opacity=".5" fill-rule="evenodd" clip-rule="evenodd" d="M47.251 44.313l1.407-10.533 1.46-.474 1.973 11.007h-4.84z" fill="url(#paint25_linear)"/><path opacity=".5" fill-rule="evenodd" clip-rule="evenodd" d="M57.877 44.313l7.602-12.871-1.407 5.258-4.235 7.613h-1.96z" fill="url(#paint26_linear)"/><path opacity=".5" fill-rule="evenodd" clip-rule="evenodd" d="M96.977 100.792l-1.775-3.481 7.351-13.839.658 4.062-6.234 13.258z" fill="url(#paint27_linear)"/><path fill-rule="evenodd" clip-rule="evenodd" d="M49.553 61.14l8.325 2.462 5.392-9.424-6.444-2.655s-6.01 7.719-7.273 9.618z" fill="url(#paint28_linear)"/><path fill-rule="evenodd" clip-rule="evenodd" d="M99.41 68.526l5.011 2.32s1.67 4.977 2.157 10.358l-3.591-.932c.014-.018-1.933-6.805-3.577-11.746z" fill="url(#paint29_linear)"/><path fill-rule="evenodd" clip-rule="evenodd" d="M108.077 46.863l2.157 15.825 6.865-2.285-2.999-13.54c-.013 0-4.248-1.09-6.023 0z" fill="url(#paint30_linear)"/><path fill-rule="evenodd" clip-rule="evenodd" d="M48.657 33.78l-2.906 10.533-5.695-.844 4.998-8.458 3.603-1.23z" fill="url(#paint31_linear)"/><path fill-rule="evenodd" clip-rule="evenodd" d="M.722 211.183s5.59-7.544 6.497-10.48c.907-2.936 12.875-72.814 19.845-86.442 7.523-14.718 15.27-22.138 15.27-22.138l1.38-6.436s-15.663 16.916-20.148 29.787C19.081 128.363 5.259 186.249.722 211.183z" fill="url(#paint32_linear)"/><path fill-rule="evenodd" clip-rule="evenodd" d="M23.578 115.493l2.907.017s4.708-9.899 9.574-15.896l-2.091-2.04s-8.338 10.604-10.39 17.919z" fill="url(#paint33_linear)"/><path opacity=".87" fill-rule="evenodd" clip-rule="evenodd" d="M12.794 156.216l.697 16.74-11.744 69.421h-5.024l2.867-26.024s11.77-55.213 13.204-60.137z" fill="url(#paint34_linear)"/><path d="M37.803 227.289h-2.68v11.325h2.68v-11.325z" fill="#906942"/><path d="M42.34 225.669l-4.53 1.62v11.325l4.53-1.627v-11.318z" fill="#AD8D5E"/><path d="M41.91 227.963l38.793 2.422 18.271-6.401-8.967-3.942-35.202-.853s-8.608 5.992-9.11 5.598c-.502-.394-3.785 3.176-3.785 3.176z" fill="#472916"/><path d="M91.67 211.225h28.707s3.828-.165 3.979 1.642l-5.548 4.91-24.63 7.884-4.78-9.225 2.272-5.211zM33.631 202.043l2.402 1.72 42.591 1.169h3.742l2.674-2.889s-.48-2.129-8.093-2.487c-7.612-.359-36.671 0-36.671 0s-5.598.251-6.645 2.487z" fill="#30749C"/><path d="M75.858 216.013l-45.302 15.942v-6.287l45.302-15.948v6.293z" fill="#472916"/><path d="M30.556 231.955l48.498 3.147v-6.293l-48.498-3.14v6.286zM87.133 231.518h-2.68v11.325h2.68v-11.325z" fill="#906942"/><path d="M91.67 229.897l-4.537 1.62v11.326l4.537-1.62v-11.326z" fill="#AD8D5E"/><path d="M115.84 220.816h-2.68v11.325h2.68v-11.325z" fill="#906942"/><path d="M120.378 219.189l-4.537 1.627v11.325l4.537-1.627v-11.325zM76.94 206.372l16.15 17.505 5.01-1.764-18.379-20.07-2.781 4.329z" fill="#AD8D5E"/><path d="M79.721 202.043s2.781-2.846 5.541 0c1.72 1.771 10.308 11.204 13.11 14.286 1.491 1.641 1.434 4.2-.186 5.713-.029.021-.05.05-.079.071l-18.386-20.07z" fill="#398AB9"/><path d="M92.967 223.748l-44.075-2.861-17.196-14.701 45.244.179 16.027 17.383z" fill="#6F4022"/><path d="M124.356 219.16l-45.301 15.942v-6.294l45.301-15.941v6.293z" fill="#AD8D5E"/><path d="M79.721 202.043h-46.09l-1.935 4.15 45.244.179 2.781-4.329z" fill="#906942"/><path d="M104.715 159.042h-3.376v85.155h3.376v-85.155z" fill="#6F4022"/><path d="M169.5 170.167H36.556l66.153-42.119.014-.014.301-.187 66.476 42.32z" fill="#906942"/><path d="M106.952 170.167H36.556l66.153-42.119c-2.552 2.444-26.565 26.622 4.243 42.119z" fill="#6F4022"/><path d="M103.132 127.847s44.706 29.948 60.949 43.029c0 0-34.292-22.299-60.949-43.029zM102.924 127.847s-44.707 29.948-60.95 43.029c.008 0 34.292-22.299 60.95-43.029z" fill="#AD8D5E"/><path d="M103.132 127.847s35.288 33.396 47.746 47.416c0-.007-27.181-25.045-47.746-47.416z" fill="#AD8D5E"/><path d="M103.132 127.847s24.536 33.059 32.571 47.839c.007 0-18.178-24.213-32.571-47.839z" fill="#AD8D5E"/><path d="M103.132 127.847s16.121 33.89 20.708 48.484c0 0-11.999-24.858-20.708-48.484zM103.132 127.847s6.931 33.883 7.806 47.968c0 0-5.24-24.894-7.806-47.968zM102.924 127.847s-35.288 33.396-47.746 47.416c.007-.007 27.181-25.045 47.746-47.416z" fill="#AD8D5E"/><path d="M102.924 127.847s-24.536 33.059-32.572 47.839c0 0 18.186-24.213 32.572-47.839z" fill="#AD8D5E"/><path d="M102.924 127.847s-16.12 33.89-20.708 48.484c0 0 11.999-24.858 20.708-48.484zM102.924 127.847s-6.931 33.883-7.806 47.968c.007 0 5.24-24.894 7.806-47.968z" fill="#AD8D5E"/><path d="M102.781 233.438H100.1v11.325h2.681v-11.325z" fill="#906942"/><path d="M107.318 231.818l-4.537 1.62v11.325l4.537-1.62v-11.325z" fill="#AD8D5E"/><path d="M106.881 234.112l38.793 2.423 18.271-6.401-8.967-3.943-35.202-.853s-8.609 5.993-9.11 5.599c-.502-.395-3.785 3.175-3.785 3.175z" fill="#472916"/><path d="M156.64 217.375h28.708s3.828-.165 3.978 1.641l-5.548 4.91-24.629 7.885-4.781-9.225 2.272-5.211zM98.602 208.2l2.401 1.72 42.592 1.168h3.742l2.674-2.888s-.481-2.129-8.093-2.487c-7.62-.359-36.671 0-36.671 0s-5.598.25-6.645 2.487z" fill="#30749C"/><path d="M140.835 222.163l-45.308 15.948v-6.293l45.308-15.942v6.287z" fill="#472916"/><path d="M95.527 238.111l48.498 3.147v-6.293l-48.498-3.147v6.293zM152.103 237.674h-2.681V249h2.681v-11.326z" fill="#906942"/><path d="M156.641 236.047l-4.537 1.628V249l4.537-1.627v-11.326z" fill="#AD8D5E"/><path d="M180.811 226.965h-2.681v11.326h2.681v-11.326z" fill="#906942"/><path d="M185.348 225.346l-4.537 1.62v11.325l4.537-1.62v-11.325zM141.911 212.522l16.149 17.504 5.01-1.763-18.378-20.063-2.781 4.322z" fill="#AD8D5E"/><path d="M144.692 208.2s2.781-2.846 5.541 0c1.72 1.77 10.307 11.203 13.103 14.286 1.491 1.641 1.433 4.2-.187 5.712-.028.022-.05.051-.078.072l-18.379-20.07z" fill="#398AB9"/><path d="M157.938 229.904l-44.076-2.86-17.195-14.701 45.244.179 16.027 17.382z" fill="#6F4022"/><path d="M189.327 225.31l-45.302 15.948v-6.293l45.302-15.949v6.294z" fill="#AD8D5E"/><path d="M144.692 208.2h-46.09l-1.928 4.143 45.237.179 2.781-4.322z" fill="#906942"/></g><g opacity=".8"><path fill-rule="evenodd" clip-rule="evenodd" d="M1368.19 55.627s4.36 14.04 3.56 26.064l-5.11.29 4.75 2.616s-1.68 11.352-9.89 30.95l-4.72-12.877 4.72-8.519-5.21 6.684s-4.4-16.238-4.42-28.39c-.01-12.132 1.13-16.51 1.13-16.51s11.43-8.137 15.19-.308z" fill="url(#paint35_linear)"/><path fill-rule="evenodd" clip-rule="evenodd" d="M1361.5 50.323s-16.53-7.048-21.29-6.902c-4.76.145-22.2 24.375-22.2 24.375s12.62-1.708 15.53-3.215c2.91-1.508 11.38-5.921 11.38-5.921h13.78l2.8-8.337z" fill="url(#paint36_linear)"/><path fill-rule="evenodd" clip-rule="evenodd" d="M1445.16 247.377s-22.46-109.489-29.58-131.067c-7.1-21.578-48.92-61.428-48.92-61.428l-2.66 3.723s33.87 29.988 46.44 57.36 26.97 131.394 26.97 131.394h7.75v.018z" fill="url(#paint37_linear)"/><path fill-rule="evenodd" clip-rule="evenodd" d="M1362.15 56.389s-25.52-10.353-31.98-11.152c-6.47-.818-29.09 6.538-29.09 6.538l6.28 2.416 5.93-3.65-3.8 5.085s17.45 5.068 19.45 6.14l2.14-1.054 2.45 1.035s5.43 3.106 11.37 2.816c5.95-.273 17.25-8.174 17.25-8.174z" fill="url(#paint38_linear)"/><path opacity=".5" fill-rule="evenodd" clip-rule="evenodd" d="M1339 63.89l2.17-14.948 3.4 1.09-2 14.894-3.57-1.035z" fill="url(#paint39_linear)"/><path opacity=".71" fill-rule="evenodd" clip-rule="evenodd" d="M1371.39 84.597s-3.38 16.946-9.89 30.95l1.39-42.665-.74-18.146 7.82 7.974 1.59 8.99s.46 6.23.17 9.973l-5.35.4 5.01 2.524z" fill="url(#paint40_linear)"/><path fill-rule="evenodd" clip-rule="evenodd" d="M1352.6 62.71s-8.21 25.72-20.99 41.05l1.67-25.211 5.17-12.188 14.15-3.65z" fill="url(#paint41_linear)"/><path fill-rule="evenodd" clip-rule="evenodd" d="M1364 55.627s-19.85 4.667-26.99 10.77c-7.15 6.085-5.02 46.971-5.02 46.971l8.97-41.703 23.61-14.186.59-1.544-1.16-.309z" fill="url(#paint42_linear)"/><path fill-rule="evenodd" clip-rule="evenodd" d="M1408.15 40.17s-7.27 3.541-17.07 5.63c-9.8 2.107-18.62 1.889-18.62 1.889l-.19-10.08 4.75-6.94c-.01 0 22.71 3.852 31.13 9.5z" fill="url(#paint43_linear)"/><path fill-rule="evenodd" clip-rule="evenodd" d="M1371.84 49.415s12.2 1.67 19.23 4.213c7.03 2.543 22.66 23.54 22.66 23.54s-6.34-.327-11.53-2.506l-1.59-8.846v7.974s-11.49-.8-18-6.72c-6.51-5.922-8-14.422-8-14.422l-2.77-3.233z" fill="url(#paint44_linear)"/><path fill-rule="evenodd" clip-rule="evenodd" d="M1365.16 55.917s-21.91 5.595-25.27 12.17c-3.34 6.575-7.9 45.245-7.9 45.245l9.23-10.063-3.76-13.077 4.71 10.916 5.81-11.825-4.29-14.657 5.7 12.823 1.3-1.69-5.93-14.493 7.15 11.678c0 .037 10.22-18.472 13.25-27.027z" fill="url(#paint45_linear)"/><path fill-rule="evenodd" clip-rule="evenodd" d="M1361.5 51.485s8.43-20.053 11.47-22.632c3.04-2.56 19.52 1.635 35.18 11.316 0 0-11.36 2.343-14.74 2.634l-2.54-8.628 1.04 8.628h-12.57l-4.5-8.628 3.65 10.77-2.14 2.108-5.27-4.922 3.92 5.612s-5.21 3.742-13.5 3.742z" fill="url(#paint46_linear)"/><path fill-rule="evenodd" clip-rule="evenodd" d="M1360.17 56.407l3.92-3.196-2.6 4.25 10.76 19.98 5.56-10.644-3.88 13.44c7.29 6.994 17.69 13.896 17.69 13.896 1.84-14.386 0-29.625 0-29.625l-8.94-1.38 7.81-1.38s-13.46-21.034-18.18-20.307c-4.59.69-14.98 13.731-15.54 14.458-.02.018-.03.018-.03.018l3.43.49z" fill="url(#paint47_linear)"/><path fill-rule="evenodd" clip-rule="evenodd" d="M1356.78 55.899c.55-.49 9.34-8.21 11.03-8.21 1.77.018 5.4 1.671 10.87 10.952 5.47 9.264 12.94 35.492 12.94 35.492 1.84-14.386 0-29.625 0-29.625l-8.94-1.38 7.81-1.38s-13.46-21.034-18.18-20.307c-4.56.708-14.96 13.731-15.53 14.458z" fill="url(#paint48_linear)"/><path fill-rule="evenodd" clip-rule="evenodd" d="M1391.37 93.243s-2.79-11.425-5.95-20.361c-3.15-8.937-7.27-17.183-10.11-20.652-2.84-3.487-6.48-5.231-8.31-5.086-1.83.145-10 8.482-10 8.482s7.56-6.883 10.19-7.156c2.63-.272 8.59 6.012 10.95 9.282 2.34 3.25 7.47 18.526 8.27 20.342.81 1.799 4.96 15.149 4.96 15.149z" fill="url(#paint49_linear)"/><path fill-rule="evenodd" clip-rule="evenodd" d="M1355.9 53.92s-20.77-7.466-25.86-7.92c-5.09-.454-28.96 5.776-28.96 5.776s21.56-7.284 28.36-6.612c6.8.69 23.33 7.066 26.46 8.755z" fill="url(#paint50_linear)"/><path fill-rule="evenodd" clip-rule="evenodd" d="M1358.99 57.734s-16.64 7.538-18.91 11.007c-2.28 3.45-5.33 26.882-5.47 28.444-.16 1.58-2.61 16.165-2.61 16.165s1.62-13.84 1.62-16.783c0-2.942 3.09-23.412 6.14-28.77 3.03-5.359 19.23-10.063 19.23-10.063z" fill="url(#paint51_linear)"/><path fill-rule="evenodd" clip-rule="evenodd" d="M1397.73 34.539s-17.55-6.939-22.42-5.885c-4.87 1.053-11.72 17.982-11.72 17.982s6.53-15.185 9.38-17.782c2.85-2.598 15.56 1.144 24.76 5.685z" fill="url(#paint52_linear)"/><path opacity=".5" fill-rule="evenodd" clip-rule="evenodd" d="M1372.26 77.459l8.01-15.53-.99-2.161-11.26 9.808 4.24 7.883z" fill="url(#paint53_linear)"/><path opacity=".5" fill-rule="evenodd" clip-rule="evenodd" d="M1328.92 61.747l2.14-15.602.02 14.567-2.16 1.035z" fill="url(#paint54_linear)"/><path opacity=".5" fill-rule="evenodd" clip-rule="evenodd" d="M1320.07 47.344l-8.05 9.027-2.53-.745 3.8-5.085 2.77-2.362 4.01-.835z" fill="url(#paint55_linear)"/><path opacity=".5" fill-rule="evenodd" clip-rule="evenodd" d="M1390.5 61.747l-8.94 1.544-.28-.581 8.33-2.543.89 1.58z" fill="url(#paint56_linear)"/><path opacity=".5" fill-rule="evenodd" clip-rule="evenodd" d="M1360.17 56.407l8.81-7.465-1.78-.49-9.18 7.646 2.15.31z" fill="url(#paint57_linear)"/><path opacity=".5" fill-rule="evenodd" clip-rule="evenodd" d="M1391.91 42.785l-1.41-10.88-1.46-.49-1.97 11.37h4.84z" fill="url(#paint58_linear)"/><path opacity=".5" fill-rule="evenodd" clip-rule="evenodd" d="M1381.28 42.785l-7.6-13.295 1.41 5.43 4.23 7.865h1.96z" fill="url(#paint59_linear)"/><path opacity=".5" fill-rule="evenodd" clip-rule="evenodd" d="M1342.18 101.125l1.78-3.596-7.36-14.295-.65 4.196 6.23 13.695z" fill="url(#paint60_linear)"/><path fill-rule="evenodd" clip-rule="evenodd" d="M1389.61 60.167l-8.33 2.543-5.39-9.735 6.44-2.743s6.01 7.974 7.28 9.935z" fill="url(#paint61_linear)"/><path fill-rule="evenodd" clip-rule="evenodd" d="M1339.75 67.795l-5.01 2.398s-1.67 5.14-2.16 10.698l3.59-.963c-.01-.018 1.93-7.029 3.58-12.133z" fill="url(#paint62_linear)"/><path fill-rule="evenodd" clip-rule="evenodd" d="M1331.08 45.419l-2.16 16.347-6.86-2.362 3-13.986c.01 0 4.25-1.126 6.02 0z" fill="url(#paint63_linear)"/><path fill-rule="evenodd" clip-rule="evenodd" d="M1390.5 31.905l2.91 10.88 5.69-.872-5-8.737-3.6-1.271z" fill="url(#paint64_linear)"/><path fill-rule="evenodd" clip-rule="evenodd" d="M1438.44 215.155s-5.59-7.792-6.5-10.826c-.91-3.033-12.87-75.214-19.85-89.291-7.52-15.202-15.26-22.867-15.26-22.867l-1.39-6.648s15.67 17.473 20.15 30.769c4.49 13.313 18.31 73.107 22.85 98.863z" fill="url(#paint65_linear)"/><path fill-rule="evenodd" clip-rule="evenodd" d="M1415.58 116.31l-2.91.018s-4.7-10.226-9.57-16.42l2.09-2.106s8.34 10.952 10.39 18.508z" fill="url(#paint66_linear)"/><path opacity=".87" fill-rule="evenodd" clip-rule="evenodd" d="M1426.36 158.376l-.69 17.292 11.74 71.709h5.03l-2.87-26.882s-11.77-57.033-13.21-62.119z" fill="url(#paint67_linear)"/><path d="M1401.36 221.289h2.68v11.325h-2.68v-11.325z" fill="#906942"/><path d="M1396.82 219.669l4.53 1.62v11.325l-4.53-1.627v-11.318z" fill="#AD8D5E"/><path d="M1397.25 221.963l-38.79 2.422-18.28-6.401 8.97-3.942 35.2-.853s8.61 5.992 9.11 5.598c.51-.394 3.79 3.176 3.79 3.176z" fill="#472916"/><path d="M1347.49 205.225h-28.71s-3.83-.165-3.98 1.642l5.55 4.91 24.63 7.884 4.78-9.225-2.27-5.211zM1405.53 196.043l-2.4 1.72-42.6 1.169h-3.74l-2.67-2.889s.48-2.129 8.09-2.487c7.61-.359 36.67 0 36.67 0s5.6.251 6.65 2.487z" fill="#30749C"/><path d="M1363.3 210.013l45.3 15.942v-6.287l-45.3-15.948v6.293z" fill="#472916"/><path d="M1408.6 225.955l-48.5 3.147v-6.293l48.5-3.14v6.286zM1352.03 225.518h2.68v11.325h-2.68v-11.325z" fill="#906942"/><path d="M1347.49 223.897l4.54 1.62v11.326l-4.54-1.62v-11.326z" fill="#AD8D5E"/><path d="M1323.32 214.816h2.68v11.325h-2.68v-11.325z" fill="#906942"/><path d="M1318.78 213.189l4.54 1.627v11.325l-4.54-1.627v-11.325zM1362.22 200.372l-16.15 17.505-5.01-1.764 18.38-20.07 2.78 4.329z" fill="#AD8D5E"/><path d="M1359.44 196.043s-2.78-2.846-5.54 0c-1.72 1.771-10.31 11.204-13.11 14.286-1.49 1.641-1.44 4.2.18 5.713.03.021.05.05.08.071l18.39-20.07z" fill="#398AB9"/><path d="M1346.19 217.748l44.08-2.861 17.19-14.701-45.24.179-16.03 17.383z" fill="#6F4022"/><path d="M1314.8 213.16l45.3 15.942v-6.294l-45.3-15.941v6.293z" fill="#AD8D5E"/><path d="M1359.44 196.043h46.09l1.93 4.15-45.24.179-2.78-4.329z" fill="#906942"/><path d="M1334.44 153.042h3.38v85.156h-3.38v-85.156z" fill="#6F4022"/><path d="M1269.66 164.167h132.94l-66.15-42.119-.02-.014-.3-.186-66.47 42.319z" fill="#906942"/><path d="M1332.21 164.167h70.39l-66.15-42.119c2.55 2.445 26.56 26.622-4.24 42.119z" fill="#6F4022"/><path d="M1336.03 121.848s-44.71 29.947-60.95 43.029c0 0 34.29-22.3 60.95-43.029zM1336.23 121.848s44.71 29.947 60.95 43.029c0 0-34.29-22.3-60.95-43.029z" fill="#AD8D5E"/><path d="M1336.03 121.848s-35.29 33.395-47.75 47.416c0-.008 27.18-25.045 47.75-47.416z" fill="#AD8D5E"/><path d="M1336.03 121.848s-24.54 33.058-32.57 47.839c-.01 0 18.17-24.214 32.57-47.839z" fill="#AD8D5E"/><path d="M1336.03 121.848s-16.12 33.89-20.71 48.484c0 0 12-24.859 20.71-48.484zM1336.03 121.848s-6.93 33.883-7.81 47.968c0 0 5.24-24.895 7.81-47.968zM1336.23 121.848s35.29 33.395 47.75 47.416c-.01-.008-27.18-25.045-47.75-47.416z" fill="#AD8D5E"/><path d="M1336.23 121.848s24.54 33.058 32.58 47.839c0 0-18.19-24.214-32.58-47.839z" fill="#AD8D5E"/><path d="M1336.23 121.848s16.13 33.89 20.71 48.484c0 0-12-24.859-20.71-48.484zM1336.23 121.848s6.94 33.883 7.81 47.968c-.01 0-5.24-24.895-7.81-47.968z" fill="#AD8D5E"/><path d="M1336.38 227.438h2.68v11.326h-2.68v-11.326z" fill="#906942"/><path d="M1331.84 225.818l4.54 1.62v11.326l-4.54-1.62v-11.326z" fill="#AD8D5E"/><path d="M1332.28 228.112l-38.8 2.423-18.27-6.401 8.97-3.942 35.2-.853s8.61 5.992 9.11 5.598c.5-.394 3.79 3.175 3.79 3.175z" fill="#472916"/><path d="M1282.52 211.375h-28.71s-3.83-.165-3.98 1.641l5.55 4.911 24.63 7.884 4.78-9.225-2.27-5.211zM1340.56 202.2l-2.4 1.721-42.6 1.168h-3.74l-2.67-2.889s.48-2.129 8.09-2.487c7.62-.358 36.67 0 36.67 0s5.6.251 6.65 2.487z" fill="#30749C"/><path d="M1298.32 216.163l45.31 15.949v-6.294l-45.31-15.941v6.286z" fill="#472916"/><path d="M1343.63 232.112l-48.5 3.147v-6.294l48.5-3.147v6.294zM1287.06 231.675h2.68V243h-2.68v-11.325z" fill="#906942"/><path d="M1282.52 230.048l4.54 1.627V243l-4.54-1.627v-11.325z" fill="#AD8D5E"/><path d="M1258.35 220.966h2.68v11.325h-2.68v-11.325z" fill="#906942"/><path d="M1253.81 219.346l4.54 1.62v11.326l-4.54-1.62v-11.326zM1297.25 206.522l-16.15 17.505-5.01-1.764 18.38-20.063 2.78 4.322z" fill="#AD8D5E"/><path d="M1294.47 202.2s-2.78-2.845-5.54 0c-1.72 1.771-10.31 11.204-13.11 14.286-1.49 1.641-1.43 4.2.19 5.713.03.021.05.05.08.072l18.38-20.071z" fill="#398AB9"/><path d="M1281.22 223.905l44.08-2.86 17.19-14.702-45.24.179-16.03 17.383z" fill="#6F4022"/><path d="M1249.83 219.31l45.3 15.949v-6.294l-45.3-15.948v6.293z" fill="#AD8D5E"/><path d="M1294.47 202.2h46.09l1.92 4.143-45.23.179-2.78-4.322z" fill="#906942"/></g><defs><linearGradient id="paint0_linear" x1="720" y1="0" x2="720" y2="244" gradientUnits="userSpaceOnUse"><stop stop-color="#fff"/><stop offset="1" stop-color="#A4A4A4"/></linearGradient><linearGradient id="paint1_linear" x1="720" y1="157.008" x2="720" y2="244" gradientUnits="userSpaceOnUse"><stop stop-color="#fff"/><stop offset="1" stop-color="#8E8E8E"/></linearGradient><linearGradient id="paint2_linear" x1="77.309" y1="114.745" x2="77.309" y2="53.445" gradientUnits="userSpaceOnUse"><stop stop-color="#6F7B00"/><stop offset=".58" stop-color="#597414"/><stop offset="1" stop-color="#4F701E"/></linearGradient><linearGradient id="paint3_linear" x1="99.411" y1="68.517" x2="99.411" y2="44.924" gradientUnits="userSpaceOnUse"><stop stop-color="#6F7B00"/><stop offset=".58" stop-color="#597414"/><stop offset="1" stop-color="#4F701E"/></linearGradient><linearGradient id="paint4_linear" x1="34.575" y1="242.374" x2="34.575" y2="56.023" gradientUnits="userSpaceOnUse"><stop stop-color="#B87251"/><stop offset=".246" stop-color="#A76657"/><stop offset=".723" stop-color="#8B5360"/><stop offset="1" stop-color="#814C63"/></linearGradient><linearGradient id="paint5_linear" x1="77.014" y1="56.023" x2="138.085" y2="56.023" gradientUnits="userSpaceOnUse"><stop stop-color="#AEAD13"/><stop offset=".405" stop-color="#899F21"/><stop offset=".781" stop-color="#6D942B"/><stop offset="1" stop-color="#63902F"/></linearGradient><linearGradient id="paint6_linear" x1="97.37" y1="65.75" x2="97.37" y2="50.266" gradientUnits="userSpaceOnUse"><stop stop-color="#C0B3D4"/><stop offset=".45" stop-color="#D2BFCD"/><stop offset=".994" stop-color="#E3CAC7"/></linearGradient><linearGradient id="paint7_linear" x1="72.498" y1="114.745" x2="72.498" y2="55.879" gradientUnits="userSpaceOnUse"><stop stop-color="#C0B3D4"/><stop offset=".45" stop-color="#D2BFCD"/><stop offset=".994" stop-color="#E3CAC7"/></linearGradient><linearGradient id="paint8_linear" x1="97.055" y1="103.346" x2="97.055" y2="63.605" gradientUnits="userSpaceOnUse"><stop stop-color="#6F7B00"/><stop offset=".58" stop-color="#597E14"/><stop offset="1" stop-color="#4F7F1E"/></linearGradient><linearGradient id="paint9_linear" x1="90.73" y1="112.625" x2="90.73" y2="56.737" gradientUnits="userSpaceOnUse"><stop stop-color="#C2BA13"/><stop offset=".632" stop-color="#A6A627"/><stop offset="1" stop-color="#9C9F2F"/></linearGradient><linearGradient id="paint10_linear" x1="48.956" y1="49.07" x2="48.956" y2="32.579" gradientUnits="userSpaceOnUse"><stop stop-color="#6F7B00"/><stop offset=".58" stop-color="#597E14"/><stop offset="1" stop-color="#4F7F1E"/></linearGradient><linearGradient id="paint11_linear" x1="46.379" y1="77.6" x2="46.379" y2="50.73" gradientUnits="userSpaceOnUse"><stop stop-color="#6F7B00"/><stop offset=".58" stop-color="#597414"/><stop offset="1" stop-color="#4F701E"/></linearGradient><linearGradient id="paint12_linear" x1="90.582" y1="112.626" x2="90.582" y2="57.031" gradientUnits="userSpaceOnUse"><stop stop-color="#AEAD13"/><stop offset=".405" stop-color="#899F21"/><stop offset=".781" stop-color="#6D942B"/><stop offset="1" stop-color="#63902F"/></linearGradient><linearGradient id="paint13_linear" x1="31.014" y1="41.419" x2="77.662" y2="41.419" gradientUnits="userSpaceOnUse"><stop stop-color="#AEAD13"/><stop offset=".405" stop-color="#899F21"/><stop offset=".781" stop-color="#6D942B"/><stop offset="1" stop-color="#63902F"/></linearGradient><linearGradient id="paint14_linear" x1="64.556" y1="94.037" x2="64.556" y2="42.998" gradientUnits="userSpaceOnUse"><stop stop-color="#AEAD13"/><stop offset=".405" stop-color="#899F21"/><stop offset=".781" stop-color="#6D942B"/><stop offset="1" stop-color="#63902F"/></linearGradient><linearGradient id="paint15_linear" x1="64.544" y1="94.037" x2="64.544" y2="42.998" gradientUnits="userSpaceOnUse"><stop stop-color="#C2BA13"/><stop offset=".632" stop-color="#A6A627"/><stop offset="1" stop-color="#9C9F2F"/></linearGradient><linearGradient id="paint16_linear" x1="47.795" y1="70.832" x2="82.154" y2="70.832" gradientUnits="userSpaceOnUse"><stop stop-color="#E2CF13"/><stop offset=".313" stop-color="#CABE1E"/><stop offset=".747" stop-color="#AEAA2A"/><stop offset="1" stop-color="#A4A22F"/></linearGradient><linearGradient id="paint17_linear" x1="83.265" y1="50.837" x2="138.084" y2="50.837" gradientUnits="userSpaceOnUse"><stop stop-color="#E2CF13"/><stop offset=".313" stop-color="#CABE1E"/><stop offset=".747" stop-color="#AEAA2A"/><stop offset="1" stop-color="#A4A22F"/></linearGradient><linearGradient id="paint18_linear" x1="80.166" y1="85.706" x2="107.167" y2="85.706" gradientUnits="userSpaceOnUse"><stop stop-color="#A4A22F"/><stop offset=".253" stop-color="#AEAA2A"/><stop offset=".688" stop-color="#CABE1E"/><stop offset="1" stop-color="#E2CF13"/></linearGradient><linearGradient id="paint19_linear" x1="41.425" y1="39.02" x2="75.563" y2="39.02" gradientUnits="userSpaceOnUse"><stop stop-color="#E2CF13"/><stop offset=".313" stop-color="#CABE1E"/><stop offset=".747" stop-color="#AEAA2A"/><stop offset="1" stop-color="#A4A22F"/></linearGradient><linearGradient id="paint20_linear" x1="65.016" y1="77.874" x2="65.016" y2="60.751" gradientUnits="userSpaceOnUse"><stop stop-color="#C0B3D4"/><stop offset=".45" stop-color="#D2BFCD"/><stop offset=".994" stop-color="#E3CAC7"/></linearGradient><linearGradient id="paint21_linear" x1="109.155" y1="62.675" x2="109.155" y2="47.571" gradientUnits="userSpaceOnUse"><stop stop-color="#C0B3D4"/><stop offset=".45" stop-color="#D2BFCD"/><stop offset=".994" stop-color="#E3CAC7"/></linearGradient><linearGradient id="paint22_linear" x1="124.378" y1="57.46" x2="124.378" y2="48.725" gradientUnits="userSpaceOnUse"><stop stop-color="#C0B3D4"/><stop offset=".45" stop-color="#D2BFCD"/><stop offset=".994" stop-color="#E3CAC7"/></linearGradient><linearGradient id="paint23_linear" x1="53.266" y1="64.165" x2="53.266" y2="61.135" gradientUnits="userSpaceOnUse"><stop stop-color="#C0B3D4"/><stop offset=".45" stop-color="#D2BFCD"/><stop offset=".994" stop-color="#E3CAC7"/></linearGradient><linearGradient id="paint24_linear" x1="75.655" y1="57.494" x2="75.655" y2="49.805" gradientUnits="userSpaceOnUse"><stop stop-color="#C0B3D4"/><stop offset=".45" stop-color="#D2BFCD"/><stop offset=".994" stop-color="#E3CAC7"/></linearGradient><linearGradient id="paint25_linear" x1="49.672" y1="44.319" x2="49.672" y2="33.31" gradientUnits="userSpaceOnUse"><stop stop-color="#C0B3D4"/><stop offset=".45" stop-color="#D2BFCD"/><stop offset=".994" stop-color="#E3CAC7"/></linearGradient><linearGradient id="paint26_linear" x1="61.676" y1="44.319" x2="61.676" y2="31.45" gradientUnits="userSpaceOnUse"><stop stop-color="#C0B3D4"/><stop offset=".45" stop-color="#D2BFCD"/><stop offset=".994" stop-color="#E3CAC7"/></linearGradient><linearGradient id="paint27_linear" x1="99.208" y1="100.797" x2="99.208" y2="83.475" gradientUnits="userSpaceOnUse"><stop stop-color="#C0B3D4"/><stop offset=".45" stop-color="#D2BFCD"/><stop offset=".994" stop-color="#E3CAC7"/></linearGradient><linearGradient id="paint28_linear" x1="56.408" y1="63.605" x2="56.408" y2="51.526" gradientUnits="userSpaceOnUse"><stop stop-color="#E2CF13"/><stop offset=".624" stop-color="#C7BE27"/><stop offset="1" stop-color="#BDB82F"/></linearGradient><linearGradient id="paint29_linear" x1="102.996" y1="81.189" x2="102.996" y2="68.517" gradientUnits="userSpaceOnUse"><stop stop-color="#E2CF13"/><stop offset=".624" stop-color="#C7BE27"/><stop offset="1" stop-color="#BDB82F"/></linearGradient><linearGradient id="paint30_linear" x1="112.584" y1="62.675" x2="112.584" y2="46.377" gradientUnits="userSpaceOnUse"><stop stop-color="#C9C813"/><stop offset=".632" stop-color="#AEAC27"/><stop offset="1" stop-color="#A4A22F"/></linearGradient><linearGradient id="paint31_linear" x1="44.358" y1="44.319" x2="44.358" y2="33.782" gradientUnits="userSpaceOnUse"><stop stop-color="#C9C813"/><stop offset=".632" stop-color="#AEAC27"/><stop offset="1" stop-color="#A4A22F"/></linearGradient><linearGradient id="paint32_linear" x1="22.222" y1="211.19" x2="22.222" y2="85.705" gradientUnits="userSpaceOnUse"><stop stop-color="#EF9F3B"/><stop offset=".277" stop-color="#E5973F"/><stop offset=".754" stop-color="#C9804A"/><stop offset="1" stop-color="#B87251"/></linearGradient><linearGradient id="paint33_linear" x1="29.815" y1="115.515" x2="29.815" y2="97.57" gradientUnits="userSpaceOnUse"><stop stop-color="#DD9063"/><stop offset=".653" stop-color="#DC8D59"/><stop offset="1" stop-color="#DB8B51"/></linearGradient><linearGradient id="paint34_linear" x1="5.103" y1="242.374" x2="5.103" y2="156.209" gradientUnits="userSpaceOnUse"><stop stop-color="#C0B3D4"/><stop offset=".45" stop-color="#D2BFCD"/><stop offset=".994" stop-color="#E3CAC7"/></linearGradient><linearGradient id="paint35_linear" x1="1361.85" y1="115.539" x2="1361.85" y2="52.217" gradientUnits="userSpaceOnUse"><stop stop-color="#6F7B00"/><stop offset=".58" stop-color="#597414"/><stop offset="1" stop-color="#4F701E"/></linearGradient><linearGradient id="paint36_linear" x1="1339.75" y1="67.787" x2="1339.75" y2="43.416" gradientUnits="userSpaceOnUse"><stop stop-color="#6F7B00"/><stop offset=".58" stop-color="#597414"/><stop offset="1" stop-color="#4F701E"/></linearGradient><linearGradient id="paint37_linear" x1="1404.58" y1="247.374" x2="1404.58" y2="54.881" gradientUnits="userSpaceOnUse"><stop stop-color="#B87251"/><stop offset=".246" stop-color="#A76657"/><stop offset=".723" stop-color="#8B5360"/><stop offset="1" stop-color="#814C63"/></linearGradient><linearGradient id="paint38_linear" x1="1362.14" y1="54.881" x2="1301.07" y2="54.881" gradientUnits="userSpaceOnUse"><stop stop-color="#AEAD13"/><stop offset=".405" stop-color="#899F21"/><stop offset=".781" stop-color="#6D942B"/><stop offset="1" stop-color="#63902F"/></linearGradient><linearGradient id="paint39_linear" x1="1341.79" y1="64.928" x2="1341.79" y2="48.933" gradientUnits="userSpaceOnUse"><stop stop-color="#C0B3D4"/><stop offset=".45" stop-color="#D2BFCD"/><stop offset=".994" stop-color="#E3CAC7"/></linearGradient><linearGradient id="paint40_linear" x1="1366.66" y1="115.538" x2="1366.66" y2="54.732" gradientUnits="userSpaceOnUse"><stop stop-color="#C0B3D4"/><stop offset=".45" stop-color="#D2BFCD"/><stop offset=".994" stop-color="#E3CAC7"/></linearGradient><linearGradient id="paint41_linear" x1="1342.1" y1="103.764" x2="1342.1" y2="62.713" gradientUnits="userSpaceOnUse"><stop stop-color="#6F7B00"/><stop offset=".58" stop-color="#597E14"/><stop offset="1" stop-color="#4F7F1E"/></linearGradient><linearGradient id="paint42_linear" x1="1348.43" y1="113.349" x2="1348.43" y2="55.619" gradientUnits="userSpaceOnUse"><stop stop-color="#C2BA13"/><stop offset=".632" stop-color="#A6A627"/><stop offset="1" stop-color="#9C9F2F"/></linearGradient><linearGradient id="paint43_linear" x1="1390.2" y1="47.698" x2="1390.2" y2="30.664" gradientUnits="userSpaceOnUse"><stop stop-color="#6F7B00"/><stop offset=".58" stop-color="#597E14"/><stop offset="1" stop-color="#4F7F1E"/></linearGradient><linearGradient id="paint44_linear" x1="1392.78" y1="77.169" x2="1392.78" y2="49.414" gradientUnits="userSpaceOnUse"><stop stop-color="#6F7B00"/><stop offset=".58" stop-color="#597414"/><stop offset="1" stop-color="#4F701E"/></linearGradient><linearGradient id="paint45_linear" x1="1348.58" y1="113.349" x2="1348.58" y2="55.922" gradientUnits="userSpaceOnUse"><stop stop-color="#AEAD13"/><stop offset=".405" stop-color="#899F21"/><stop offset=".781" stop-color="#6D942B"/><stop offset="1" stop-color="#63902F"/></linearGradient><linearGradient id="paint46_linear" x1="1408.14" y1="39.795" x2="1361.5" y2="39.795" gradientUnits="userSpaceOnUse"><stop stop-color="#AEAD13"/><stop offset=".405" stop-color="#899F21"/><stop offset=".781" stop-color="#6D942B"/><stop offset="1" stop-color="#63902F"/></linearGradient><linearGradient id="paint47_linear" x1="1374.6" y1="94.147" x2="1374.6" y2="41.427" gradientUnits="userSpaceOnUse"><stop stop-color="#AEAD13"/><stop offset=".405" stop-color="#899F21"/><stop offset=".781" stop-color="#6D942B"/><stop offset="1" stop-color="#63902F"/></linearGradient><linearGradient id="paint48_linear" x1="1374.61" y1="94.147" x2="1374.61" y2="41.427" gradientUnits="userSpaceOnUse"><stop stop-color="#C2BA13"/><stop offset=".632" stop-color="#A6A627"/><stop offset="1" stop-color="#9C9F2F"/></linearGradient><linearGradient id="paint49_linear" x1="1391.36" y1="70.178" x2="1357" y2="70.178" gradientUnits="userSpaceOnUse"><stop stop-color="#E2CF13"/><stop offset=".313" stop-color="#CABE1E"/><stop offset=".747" stop-color="#AEAA2A"/><stop offset="1" stop-color="#A4A22F"/></linearGradient><linearGradient id="paint50_linear" x1="1355.89" y1="49.524" x2="1301.07" y2="49.524" gradientUnits="userSpaceOnUse"><stop stop-color="#E2CF13"/><stop offset=".313" stop-color="#CABE1E"/><stop offset=".747" stop-color="#AEAA2A"/><stop offset="1" stop-color="#A4A22F"/></linearGradient><linearGradient id="paint51_linear" x1="1358.99" y1="85.542" x2="1331.99" y2="85.542" gradientUnits="userSpaceOnUse"><stop stop-color="#A4A22F"/><stop offset=".253" stop-color="#AEAA2A"/><stop offset=".688" stop-color="#CABE1E"/><stop offset="1" stop-color="#E2CF13"/></linearGradient><linearGradient id="paint52_linear" x1="1397.73" y1="37.318" x2="1363.6" y2="37.318" gradientUnits="userSpaceOnUse"><stop stop-color="#E2CF13"/><stop offset=".313" stop-color="#CABE1E"/><stop offset=".747" stop-color="#AEAA2A"/><stop offset="1" stop-color="#A4A22F"/></linearGradient><linearGradient id="paint53_linear" x1="1374.14" y1="77.452" x2="1374.14" y2="59.765" gradientUnits="userSpaceOnUse"><stop stop-color="#C0B3D4"/><stop offset=".45" stop-color="#D2BFCD"/><stop offset=".994" stop-color="#E3CAC7"/></linearGradient><linearGradient id="paint54_linear" x1="1330" y1="61.752" x2="1330" y2="46.151" gradientUnits="userSpaceOnUse"><stop stop-color="#C0B3D4"/><stop offset=".45" stop-color="#D2BFCD"/><stop offset=".994" stop-color="#E3CAC7"/></linearGradient><linearGradient id="paint55_linear" x1="1314.78" y1="56.365" x2="1314.78" y2="47.342" gradientUnits="userSpaceOnUse"><stop stop-color="#C0B3D4"/><stop offset=".45" stop-color="#D2BFCD"/><stop offset=".994" stop-color="#E3CAC7"/></linearGradient><linearGradient id="paint56_linear" x1="1385.89" y1="63.291" x2="1385.89" y2="60.161" gradientUnits="userSpaceOnUse"><stop stop-color="#C0B3D4"/><stop offset=".45" stop-color="#D2BFCD"/><stop offset=".994" stop-color="#E3CAC7"/></linearGradient><linearGradient id="paint57_linear" x1="1363.5" y1="56.4" x2="1363.5" y2="48.458" gradientUnits="userSpaceOnUse"><stop stop-color="#C0B3D4"/><stop offset=".45" stop-color="#D2BFCD"/><stop offset=".994" stop-color="#E3CAC7"/></linearGradient><linearGradient id="paint58_linear" x1="1389.49" y1="42.791" x2="1389.49" y2="31.419" gradientUnits="userSpaceOnUse"><stop stop-color="#C0B3D4"/><stop offset=".45" stop-color="#D2BFCD"/><stop offset=".994" stop-color="#E3CAC7"/></linearGradient><linearGradient id="paint59_linear" x1="1377.48" y1="42.791" x2="1377.48" y2="29.498" gradientUnits="userSpaceOnUse"><stop stop-color="#C0B3D4"/><stop offset=".45" stop-color="#D2BFCD"/><stop offset=".994" stop-color="#E3CAC7"/></linearGradient><linearGradient id="paint60_linear" x1="1339.95" y1="101.131" x2="1339.95" y2="83.237" gradientUnits="userSpaceOnUse"><stop stop-color="#C0B3D4"/><stop offset=".45" stop-color="#D2BFCD"/><stop offset=".994" stop-color="#E3CAC7"/></linearGradient><linearGradient id="paint61_linear" x1="1382.75" y1="62.712" x2="1382.75" y2="50.236" gradientUnits="userSpaceOnUse"><stop stop-color="#E2CF13"/><stop offset=".624" stop-color="#C7BE27"/><stop offset="1" stop-color="#BDB82F"/></linearGradient><linearGradient id="paint62_linear" x1="1336.16" y1="80.876" x2="1336.16" y2="67.787" gradientUnits="userSpaceOnUse"><stop stop-color="#E2CF13"/><stop offset=".624" stop-color="#C7BE27"/><stop offset="1" stop-color="#BDB82F"/></linearGradient><linearGradient id="paint63_linear" x1="1326.57" y1="61.752" x2="1326.57" y2="44.916" gradientUnits="userSpaceOnUse"><stop stop-color="#C9C813"/><stop offset=".632" stop-color="#AEAC27"/><stop offset="1" stop-color="#A4A22F"/></linearGradient><linearGradient id="paint64_linear" x1="1394.8" y1="42.791" x2="1394.8" y2="31.907" gradientUnits="userSpaceOnUse"><stop stop-color="#C9C813"/><stop offset=".632" stop-color="#AEAC27"/><stop offset="1" stop-color="#A4A22F"/></linearGradient><linearGradient id="paint65_linear" x1="1416.94" y1="215.163" x2="1416.94" y2="85.541" gradientUnits="userSpaceOnUse"><stop stop-color="#EF9F3B"/><stop offset=".277" stop-color="#E5973F"/><stop offset=".754" stop-color="#C9804A"/><stop offset="1" stop-color="#B87251"/></linearGradient><linearGradient id="paint66_linear" x1="1409.34" y1="116.333" x2="1409.34" y2="97.797" gradientUnits="userSpaceOnUse"><stop stop-color="#DD9063"/><stop offset=".653" stop-color="#DC8D59"/><stop offset="1" stop-color="#DB8B51"/></linearGradient><linearGradient id="paint67_linear" x1="1434.06" y1="247.374" x2="1434.06" y2="158.369" gradientUnits="userSpaceOnUse"><stop stop-color="#C0B3D4"/><stop offset=".45" stop-color="#D2BFCD"/><stop offset=".994" stop-color="#E3CAC7"/></linearGradient></defs></svg>
