<svg width="1440" height="244" viewBox="0 0 1440 244" fill="none" xmlns="http://www.w3.org/2000/svg">
<path opacity="0.2" d="M1440 55V244H0V124.389C50.232 115.937 111.936 109.813 188.928 107.566C298.368 104.369 415.584 109.289 519.048 102.45C649.584 93.8255 723.72 68.7004 855.432 60.6115C1016.02 50.7482 1198.92 69.7432 1362.19 61.2395C1390.1 59.7877 1415.81 57.6099 1440 55Z" fill="url(#paint0_linear)"/>
<path opacity="0.2" d="M1440 244H0V197.925C76.824 188.866 161.376 187.765 242.76 190.858C362.088 195.383 479.304 206.954 599.496 205.433C699.504 204.161 795.36 193.891 888.672 183.231C981.984 172.581 1076.04 161.33 1175.45 157.936C1267.34 154.803 1366.18 159.268 1440 175.343V244Z" fill="url(#paint1_linear)"/>
<g opacity="0.5">
<g opacity="0.5">
<path opacity="0.5" d="M294.879 208.826C296.009 210.398 295.871 212.428 294.589 213.359C293.292 214.29 291.338 213.771 290.208 212.199C289.079 210.627 289.216 208.597 290.498 207.666C291.781 206.735 293.75 207.253 294.879 208.826Z" fill="#B9762E" fill-opacity="0.65"/>
<path opacity="0.5" d="M290.421 213.435C291.657 214.336 292.07 215.878 291.322 216.9C290.574 217.923 288.986 218.015 287.75 217.129C286.514 216.229 286.101 214.687 286.849 213.664C287.582 212.642 289.185 212.535 290.421 213.435Z" fill="#B9762E" fill-opacity="0.65"/>
<path opacity="0.5" d="M288.407 218.076C289.643 218.732 290.208 220.075 289.674 221.098C289.139 222.12 287.705 222.41 286.468 221.754C285.232 221.098 284.667 219.755 285.201 218.732C285.736 217.725 287.17 217.419 288.407 218.076Z" fill="#B9762E" fill-opacity="0.65"/>
<path opacity="0.5" d="M288.239 222.471C289.49 222.792 290.284 223.875 290.025 224.898C289.765 225.921 288.544 226.501 287.292 226.18C286.041 225.86 285.247 224.776 285.507 223.753C285.781 222.731 287.002 222.151 288.239 222.471Z" fill="#B9762E" fill-opacity="0.65"/>
<path opacity="0.5" d="M289.536 226.272C290.635 226.547 291.337 227.508 291.108 228.424C290.879 229.325 289.795 229.844 288.696 229.554C287.598 229.279 286.895 228.317 287.124 227.401C287.353 226.486 288.437 225.982 289.536 226.272Z" fill="#B9762E" fill-opacity="0.65"/>
<path opacity="0.5" d="M314.737 230.332C317.821 231.508 322.476 231.752 323.163 235.415C323.56 237.522 321.835 239.491 319.912 240.101C317.683 240.788 315.226 239.964 313.242 238.941C311.227 237.918 309.349 236.636 307.273 235.736C305.106 234.789 302.74 234.347 300.496 233.629C295.963 232.195 292.315 229.264 291.323 224.41C290.682 221.235 291.43 217.801 293.338 215.191C294.528 213.558 296.299 212.184 298.39 212.672C300.695 213.222 302.618 214.779 304.053 216.61C307.35 220.823 308.754 226.883 313.562 229.768C313.928 229.981 314.31 230.164 314.737 230.332Z" fill="#B9762E" fill-opacity="0.65"/>
</g>
<g opacity="0.5">
<path opacity="0.5" d="M315.973 212.504C317.393 213.817 319.423 213.939 320.507 212.764C321.59 211.589 321.316 209.574 319.896 208.261C318.477 206.948 316.447 206.826 315.363 208.002C314.279 209.177 314.554 211.192 315.973 212.504Z" fill="#B9762E" fill-opacity="0.65"/>
<path opacity="0.5" d="M321.102 208.658C321.835 210.001 323.331 210.581 324.43 209.985C325.529 209.375 325.819 207.803 325.086 206.475C324.353 205.132 322.858 204.552 321.759 205.147C320.66 205.742 320.37 207.314 321.102 208.658Z" fill="#B9762E" fill-opacity="0.65"/>
<path opacity="0.5" d="M325.956 207.223C326.46 208.536 327.727 209.253 328.795 208.856C329.863 208.444 330.337 207.055 329.848 205.742C329.345 204.43 328.078 203.712 327.009 204.109C325.925 204.521 325.452 205.91 325.956 207.223Z" fill="#B9762E" fill-opacity="0.65"/>
<path opacity="0.5" d="M330.337 207.605C330.505 208.887 331.482 209.803 332.535 209.665C333.588 209.528 334.305 208.383 334.138 207.116C333.97 205.834 332.993 204.918 331.94 205.056C330.886 205.178 330.169 206.323 330.337 207.605Z" fill="#B9762E" fill-opacity="0.65"/>
<path opacity="0.5" d="M333.938 209.345C334.076 210.474 334.946 211.283 335.877 211.176C336.808 211.054 337.434 210.047 337.296 208.917C337.159 207.788 336.289 206.979 335.358 207.086C334.442 207.208 333.801 208.215 333.938 209.345Z" fill="#B9762E" fill-opacity="0.65"/>
<path opacity="0.5" d="M334.901 234.85C335.695 238.056 335.359 242.696 338.915 243.841C340.961 244.497 343.128 243.032 343.952 241.2C344.914 239.078 344.38 236.529 343.616 234.438C342.838 232.316 341.8 230.302 341.159 228.119C340.487 225.845 340.335 223.448 339.892 221.128C339.022 216.442 336.565 212.474 331.863 210.902C328.795 209.864 325.3 210.199 322.476 211.787C320.721 212.779 319.133 214.351 319.362 216.488C319.622 218.839 320.935 220.945 322.583 222.578C326.368 226.364 332.199 228.501 334.473 233.629C334.657 234.011 334.794 234.408 334.901 234.85Z" fill="#B9762E" fill-opacity="0.65"/>
</g>
</g>
<g opacity="0.5">
<g opacity="0.5">
<path opacity="0.5" d="M202.879 206.826C204.009 208.398 203.871 210.428 202.589 211.359C201.292 212.29 199.338 211.771 198.208 210.199C197.079 208.627 197.216 206.597 198.498 205.666C199.781 204.735 201.75 205.253 202.879 206.826Z" fill="#B9762E" fill-opacity="0.65"/>
<path opacity="0.5" d="M198.421 211.435C199.657 212.336 200.07 213.878 199.322 214.9C198.574 215.923 196.986 216.015 195.75 215.129C194.514 214.229 194.101 212.687 194.849 211.664C195.582 210.642 197.185 210.535 198.421 211.435Z" fill="#B9762E" fill-opacity="0.65"/>
<path opacity="0.5" d="M196.407 216.076C197.643 216.732 198.208 218.075 197.674 219.098C197.139 220.12 195.705 220.41 194.468 219.754C193.232 219.098 192.667 217.755 193.201 216.732C193.736 215.725 195.17 215.419 196.407 216.076Z" fill="#B9762E" fill-opacity="0.65"/>
<path opacity="0.5" d="M196.239 220.471C197.49 220.792 198.284 221.875 198.025 222.898C197.765 223.921 196.544 224.501 195.292 224.18C194.041 223.86 193.247 222.776 193.507 221.753C193.781 220.731 195.002 220.151 196.239 220.471Z" fill="#B9762E" fill-opacity="0.65"/>
<path opacity="0.5" d="M197.536 224.272C198.635 224.547 199.337 225.508 199.108 226.424C198.879 227.325 197.795 227.844 196.696 227.554C195.598 227.279 194.895 226.317 195.124 225.401C195.353 224.486 196.437 223.982 197.536 224.272Z" fill="#B9762E" fill-opacity="0.65"/>
<path opacity="0.5" d="M222.737 228.332C225.821 229.508 230.476 229.752 231.163 233.415C231.56 235.522 229.835 237.491 227.912 238.101C225.683 238.788 223.226 237.964 221.242 236.941C219.227 235.918 217.349 234.636 215.273 233.736C213.106 232.789 210.74 232.347 208.496 231.629C203.963 230.195 200.315 227.264 199.323 222.41C198.682 219.235 199.43 215.801 201.338 213.191C202.528 211.558 204.299 210.184 206.39 210.672C208.695 211.222 210.618 212.779 212.053 214.61C215.35 218.823 216.754 224.883 221.562 227.768C221.928 227.981 222.31 228.164 222.737 228.332Z" fill="#B9762E" fill-opacity="0.65"/>
</g>
<g opacity="0.5">
<path opacity="0.5" d="M223.973 210.504C225.393 211.817 227.423 211.939 228.507 210.764C229.59 209.589 229.316 207.574 227.896 206.261C226.477 204.948 224.447 204.826 223.363 206.002C222.279 207.177 222.554 209.192 223.973 210.504Z" fill="#B9762E" fill-opacity="0.65"/>
<path opacity="0.5" d="M229.102 206.658C229.835 208.001 231.331 208.581 232.43 207.985C233.529 207.375 233.819 205.803 233.086 204.475C232.353 203.132 230.858 202.552 229.759 203.147C228.66 203.742 228.37 205.314 229.102 206.658Z" fill="#B9762E" fill-opacity="0.65"/>
<path opacity="0.5" d="M233.956 205.223C234.46 206.536 235.727 207.253 236.795 206.856C237.863 206.444 238.337 205.055 237.848 203.742C237.345 202.43 236.078 201.712 235.009 202.109C233.925 202.521 233.452 203.91 233.956 205.223Z" fill="#B9762E" fill-opacity="0.65"/>
<path opacity="0.5" d="M238.337 205.605C238.505 206.887 239.482 207.803 240.535 207.665C241.588 207.528 242.305 206.383 242.138 205.116C241.97 203.834 240.993 202.918 239.94 203.056C238.886 203.178 238.169 204.323 238.337 205.605Z" fill="#B9762E" fill-opacity="0.65"/>
<path opacity="0.5" d="M241.938 207.345C242.076 208.474 242.946 209.283 243.877 209.176C244.808 209.054 245.434 208.047 245.296 206.917C245.159 205.788 244.289 204.979 243.358 205.086C242.442 205.208 241.801 206.215 241.938 207.345Z" fill="#B9762E" fill-opacity="0.65"/>
<path opacity="0.5" d="M242.901 232.85C243.695 236.056 243.359 240.696 246.915 241.841C248.961 242.497 251.128 241.032 251.952 239.2C252.914 237.078 252.38 234.529 251.616 232.438C250.838 230.316 249.8 228.302 249.159 226.119C248.487 223.845 248.335 221.448 247.892 219.128C247.022 214.442 244.565 210.474 239.863 208.902C236.795 207.864 233.3 208.199 230.476 209.787C228.721 210.779 227.133 212.351 227.362 214.488C227.622 216.839 228.935 218.945 230.583 220.578C234.368 224.364 240.199 226.501 242.473 231.629C242.657 232.011 242.794 232.408 242.901 232.85Z" fill="#B9762E" fill-opacity="0.65"/>
</g>
</g>
<g opacity="0.5">
<g opacity="0.5">
<path opacity="0.5" d="M26.879 206.826C28.0085 208.398 27.8712 210.428 26.589 211.359C25.2916 212.29 23.3379 211.771 22.2084 210.199C21.0788 208.627 21.2162 206.597 22.4984 205.666C23.7805 204.735 25.7495 205.253 26.879 206.826Z" fill="#B9762E" fill-opacity="0.65"/>
<path opacity="0.5" d="M22.4211 211.435C23.6574 212.336 24.0695 213.878 23.3216 214.9C22.5737 215.923 20.9863 216.015 19.7499 215.129C18.5136 214.229 18.1014 212.687 18.8494 211.664C19.582 210.642 21.1847 210.535 22.4211 211.435Z" fill="#B9762E" fill-opacity="0.65"/>
<path opacity="0.5" d="M20.4068 216.076C21.6431 216.732 22.2079 218.075 21.6736 219.098C21.1394 220.12 19.7046 220.41 18.4683 219.754C17.2319 219.098 16.6672 217.755 17.2014 216.732C17.7356 215.725 19.1704 215.419 20.4068 216.076Z" fill="#B9762E" fill-opacity="0.65"/>
<path opacity="0.5" d="M20.2388 220.471C21.4905 220.792 22.2842 221.875 22.0247 222.898C21.7652 223.921 20.5441 224.501 19.2925 224.18C18.0409 223.86 17.2472 222.776 17.5066 221.753C17.7814 220.731 19.0025 220.151 20.2388 220.471Z" fill="#B9762E" fill-opacity="0.65"/>
<path opacity="0.5" d="M21.536 224.272C22.635 224.547 23.3371 225.508 23.1082 226.424C22.8792 227.325 21.7955 227.844 20.6965 227.554C19.5975 227.279 18.8954 226.317 19.1243 225.401C19.3533 224.486 20.437 223.982 21.536 224.272Z" fill="#B9762E" fill-opacity="0.65"/>
<path opacity="0.5" d="M46.7374 228.332C49.8207 229.508 54.4761 229.752 55.163 233.415C55.5598 235.522 53.8351 237.491 51.9118 238.101C49.6833 238.788 47.2259 237.964 45.2416 236.941C43.2268 235.918 41.3494 234.636 39.2735 233.736C37.1061 232.789 34.7402 232.347 32.4964 231.629C27.9631 230.195 24.3151 227.264 23.323 222.41C22.6819 219.235 23.4298 215.801 25.3378 213.191C26.5283 211.558 28.2989 210.184 30.39 210.672C32.6949 211.222 34.6181 212.779 36.0529 214.61C39.3498 218.823 40.7541 224.883 45.5621 227.768C45.9285 227.981 46.3101 228.164 46.7374 228.332Z" fill="#B9762E" fill-opacity="0.65"/>
</g>
<g opacity="0.5">
<path opacity="0.5" d="M47.9734 210.504C49.3929 211.817 51.423 211.939 52.5067 210.764C53.5904 209.589 53.3157 207.574 51.8962 206.261C50.4766 204.948 48.4466 204.826 47.3628 206.002C46.2791 207.177 46.5539 209.192 47.9734 210.504Z" fill="#B9762E" fill-opacity="0.65"/>
<path opacity="0.5" d="M53.1023 206.658C53.835 208.001 55.3308 208.581 56.4298 207.985C57.5288 207.375 57.8188 205.803 57.0862 204.475C56.3535 203.132 54.8576 202.552 53.7587 203.147C52.6597 203.742 52.3697 205.314 53.1023 206.658Z" fill="#B9762E" fill-opacity="0.65"/>
<path opacity="0.5" d="M57.956 205.223C58.4597 206.536 59.7266 207.253 60.795 206.856C61.8635 206.444 62.3366 205.055 61.8482 203.742C61.3445 202.43 60.0776 201.712 59.0092 202.109C57.9254 202.521 57.4523 203.91 57.956 205.223Z" fill="#B9762E" fill-opacity="0.65"/>
<path opacity="0.5" d="M62.3369 205.605C62.5048 206.887 63.4817 207.803 64.5348 207.665C65.588 207.528 66.3054 206.383 66.1375 205.116C65.9696 203.834 64.9928 202.918 63.9396 203.056C62.8864 203.178 62.169 204.323 62.3369 205.605Z" fill="#B9762E" fill-opacity="0.65"/>
<path opacity="0.5" d="M65.9385 207.345C66.0758 208.474 66.9459 209.283 67.877 209.176C68.808 209.054 69.4339 208.047 69.2965 206.917C69.1591 205.788 68.2891 204.979 67.358 205.086C66.4422 205.208 65.8011 206.215 65.9385 207.345Z" fill="#B9762E" fill-opacity="0.65"/>
<path opacity="0.5" d="M66.9008 232.85C67.6945 236.056 67.3587 240.696 70.9152 241.841C72.9605 242.497 75.128 241.032 75.9522 239.2C76.9138 237.078 76.3796 234.529 75.6164 232.438C74.838 230.316 73.8 228.302 73.1589 226.119C72.4873 223.845 72.3347 221.448 71.8921 219.128C71.022 214.442 68.5646 210.474 63.8633 208.902C60.7953 207.864 57.3 208.199 54.4762 209.787C52.7209 210.779 51.1335 212.351 51.3624 214.488C51.6219 216.839 52.9346 218.945 54.583 220.578C58.3684 224.364 64.1992 226.501 66.4734 231.629C66.6566 232.011 66.794 232.408 66.9008 232.85Z" fill="#B9762E" fill-opacity="0.65"/>
</g>
</g>
<g opacity="0.5">
<g opacity="0.5">
<path opacity="0.5" d="M407.779 218.863C408.539 220.644 407.962 222.595 406.508 223.224C405.038 223.85 403.245 222.918 402.485 221.137C401.726 219.356 402.302 217.405 403.756 216.776C405.211 216.147 407.019 217.082 407.779 218.863Z" fill="#B9762E" fill-opacity="0.65"/>
<path opacity="0.5" d="M402.424 222.39C403.434 223.539 403.5 225.133 402.547 225.968C401.594 226.803 400.025 226.546 399.012 225.413C398.001 224.264 397.935 222.67 398.888 221.835C399.826 220.997 401.413 221.242 402.424 222.39Z" fill="#B9762E" fill-opacity="0.65"/>
<path opacity="0.5" d="M399.446 226.479C400.51 227.389 400.768 228.823 400.024 229.705C399.279 230.587 397.816 230.557 396.752 229.647C395.689 228.737 395.43 227.303 396.175 226.421C396.916 225.554 398.382 225.569 399.446 226.479Z" fill="#B9762E" fill-opacity="0.65"/>
<path opacity="0.5" d="M398.324 230.733C399.476 231.319 400.014 232.549 399.538 233.491C399.062 234.432 397.744 234.732 396.592 234.147C395.44 233.561 394.902 232.33 395.378 231.389C395.869 230.451 397.187 230.151 398.324 230.733Z" fill="#B9762E" fill-opacity="0.65"/>
<path opacity="0.5" d="M398.761 234.725C399.774 235.233 400.25 236.324 399.827 237.168C399.407 237.997 398.236 238.267 397.227 237.745C396.214 237.237 395.738 236.146 396.161 235.302C396.585 234.458 397.752 234.202 398.761 234.725Z" fill="#B9762E" fill-opacity="0.65"/>
<path opacity="0.5" d="M422.472 244.181C425.225 246.001 429.715 247.254 429.587 250.979C429.515 253.121 427.402 254.667 425.392 254.843C423.068 255.028 420.849 253.688 419.135 252.257C417.392 250.82 415.839 249.159 414.009 247.828C412.1 246.432 409.888 245.484 407.855 244.295C403.743 241.906 400.822 238.251 400.911 233.297C400.978 230.059 402.456 226.871 404.887 224.739C406.405 223.405 408.433 222.45 410.367 223.383C412.497 224.421 414.034 226.36 415.035 228.46C417.335 233.29 417.384 239.51 421.448 243.374C421.759 243.662 422.091 243.924 422.472 244.181Z" fill="#B9762E" fill-opacity="0.65"/>
</g>
<g opacity="0.5">
<path opacity="0.5" d="M427.564 227.051C428.663 228.642 430.618 229.203 431.932 228.293C433.246 227.382 433.417 225.356 432.318 223.765C431.218 222.174 429.264 221.613 427.95 222.524C426.636 223.434 426.465 225.461 427.564 227.051Z" fill="#B9762E" fill-opacity="0.65"/>
<path opacity="0.5" d="M433.408 224.415C433.831 225.886 435.164 226.778 436.366 226.437C437.572 226.08 438.198 224.609 437.772 223.154C437.35 221.683 436.016 220.791 434.814 221.132C433.612 221.474 432.986 222.945 433.408 224.415Z" fill="#B9762E" fill-opacity="0.65"/>
<path opacity="0.5" d="M438.458 224.073C438.663 225.464 439.744 226.44 440.873 226.286C442.005 226.117 442.77 224.864 442.579 223.477C442.374 222.086 441.294 221.109 440.165 221.264C439.017 221.43 438.253 222.682 438.458 224.073Z" fill="#B9762E" fill-opacity="0.65"/>
<path opacity="0.5" d="M442.65 225.401C442.535 226.689 443.288 227.796 444.346 227.891C445.404 227.987 446.354 227.026 446.466 225.753C446.582 224.465 445.828 223.358 444.77 223.263C443.716 223.152 442.766 224.113 442.65 225.401Z" fill="#B9762E" fill-opacity="0.65"/>
<path opacity="0.5" d="M445.786 227.884C445.674 229.016 446.346 229.995 447.278 230.094C448.214 230.178 449.044 229.331 449.156 228.199C449.268 227.067 448.596 226.087 447.664 225.989C446.743 225.908 445.898 226.752 445.786 227.884Z" fill="#B9762E" fill-opacity="0.65"/>
<path opacity="0.5" d="M441.165 252.986C441.241 256.287 439.902 260.743 443.123 262.635C444.976 263.722 447.411 262.764 448.615 261.156C450.016 259.295 450.05 256.691 449.761 254.484C449.464 252.243 448.89 250.051 448.74 247.781C448.58 245.415 448.954 243.043 449.028 240.682C449.2 235.919 447.667 231.51 443.421 228.951C440.653 227.269 437.169 226.835 434.067 227.769C432.137 228.354 430.246 229.543 430.003 231.678C429.744 234.029 430.566 236.371 431.819 238.324C434.688 242.844 439.913 246.2 441.014 251.701C441.11 252.113 441.157 252.531 441.165 252.986Z" fill="#B9762E" fill-opacity="0.65"/>
</g>
</g>
<g opacity="0.5">
<g opacity="0.5">
<path opacity="0.5" d="M126.779 211.863C127.539 213.644 126.962 215.595 125.508 216.224C124.038 216.85 122.245 215.918 121.485 214.137C120.726 212.356 121.302 210.405 122.756 209.776C124.211 209.147 126.019 210.082 126.779 211.863Z" fill="#B9762E" fill-opacity="0.65"/>
<path opacity="0.5" d="M121.424 215.39C122.434 216.539 122.5 218.133 121.547 218.968C120.594 219.803 119.025 219.546 118.012 218.413C117.001 217.264 116.935 215.67 117.888 214.835C118.826 213.997 120.413 214.242 121.424 215.39Z" fill="#B9762E" fill-opacity="0.65"/>
<path opacity="0.5" d="M118.446 219.479C119.51 220.389 119.768 221.823 119.024 222.705C118.279 223.587 116.816 223.557 115.752 222.647C114.689 221.737 114.43 220.303 115.175 219.421C115.916 218.554 117.382 218.569 118.446 219.479Z" fill="#B9762E" fill-opacity="0.65"/>
<path opacity="0.5" d="M117.324 223.733C118.476 224.319 119.014 225.549 118.538 226.491C118.062 227.432 116.744 227.732 115.592 227.147C114.44 226.561 113.902 225.33 114.378 224.389C114.869 223.451 116.187 223.151 117.324 223.733Z" fill="#B9762E" fill-opacity="0.65"/>
<path opacity="0.5" d="M117.761 227.725C118.774 228.233 119.25 229.324 118.827 230.168C118.407 230.997 117.236 231.267 116.227 230.745C115.214 230.237 114.738 229.146 115.161 228.302C115.585 227.458 116.752 227.202 117.761 227.725Z" fill="#B9762E" fill-opacity="0.65"/>
<path opacity="0.5" d="M141.472 237.181C144.225 239.001 148.715 240.254 148.587 243.979C148.515 246.121 146.402 247.667 144.392 247.843C142.068 248.028 139.849 246.688 138.135 245.257C136.392 243.82 134.839 242.159 133.009 240.828C131.1 239.432 128.888 238.484 126.855 237.295C122.743 234.906 119.822 231.251 119.911 226.297C119.978 223.059 121.456 219.871 123.887 217.739C125.405 216.405 127.433 215.45 129.367 216.383C131.497 217.421 133.034 219.36 134.035 221.46C136.335 226.29 136.384 232.51 140.448 236.374C140.759 236.662 141.091 236.924 141.472 237.181Z" fill="#B9762E" fill-opacity="0.65"/>
</g>
<g opacity="0.5">
<path opacity="0.5" d="M146.564 220.051C147.663 221.642 149.618 222.203 150.932 221.293C152.246 220.382 152.417 218.356 151.318 216.765C150.218 215.174 148.264 214.613 146.95 215.524C145.636 216.434 145.465 218.461 146.564 220.051Z" fill="#B9762E" fill-opacity="0.65"/>
<path opacity="0.5" d="M152.408 217.415C152.831 218.886 154.164 219.778 155.366 219.437C156.572 219.08 157.198 217.609 156.772 216.154C156.35 214.683 155.016 213.791 153.814 214.132C152.612 214.474 151.986 215.945 152.408 217.415Z" fill="#B9762E" fill-opacity="0.65"/>
<path opacity="0.5" d="M157.458 217.073C157.663 218.464 158.744 219.44 159.873 219.286C161.005 219.117 161.77 217.864 161.579 216.477C161.374 215.086 160.294 214.109 159.165 214.264C158.017 214.43 157.253 215.682 157.458 217.073Z" fill="#B9762E" fill-opacity="0.65"/>
<path opacity="0.5" d="M161.65 218.401C161.535 219.689 162.288 220.796 163.346 220.891C164.404 220.987 165.354 220.026 165.466 218.753C165.582 217.465 164.828 216.358 163.77 216.263C162.716 216.152 161.766 217.113 161.65 218.401Z" fill="#B9762E" fill-opacity="0.65"/>
<path opacity="0.5" d="M164.786 220.884C164.674 222.016 165.346 222.995 166.278 223.094C167.214 223.178 168.044 222.331 168.156 221.199C168.268 220.067 167.596 219.087 166.664 218.989C165.743 218.908 164.898 219.752 164.786 220.884Z" fill="#B9762E" fill-opacity="0.65"/>
<path opacity="0.5" d="M160.165 245.986C160.241 249.287 158.902 253.743 162.123 255.635C163.976 256.722 166.411 255.764 167.615 254.156C169.016 252.295 169.05 249.691 168.761 247.484C168.464 245.243 167.89 243.051 167.74 240.781C167.58 238.415 167.954 236.043 168.028 233.682C168.2 228.919 166.667 224.51 162.421 221.951C159.653 220.269 156.169 219.835 153.067 220.769C151.137 221.354 149.246 222.543 149.003 224.678C148.744 227.029 149.566 229.371 150.819 231.324C153.688 235.844 158.913 239.2 160.014 244.701C160.11 245.113 160.157 245.531 160.165 245.986Z" fill="#B9762E" fill-opacity="0.65"/>
</g>
</g>
<g opacity="0.5">
<g opacity="0.5">
<path opacity="0.5" d="M524.318 200.856C524.855 202.715 524.046 204.582 522.526 205.03C520.992 205.473 519.325 204.329 518.787 202.47C518.249 200.61 519.058 198.743 520.578 198.295C522.098 197.848 523.78 198.996 524.318 200.856Z" fill="#B9762E" fill-opacity="0.65"/>
<path opacity="0.5" d="M518.573 203.706C519.437 204.968 519.309 206.559 518.261 207.272C517.214 207.985 515.688 207.54 514.819 206.292C513.956 205.029 514.084 203.439 515.131 202.725C516.164 202.007 517.71 202.443 518.573 203.706Z" fill="#B9762E" fill-opacity="0.65"/>
<path opacity="0.5" d="M515.121 207.404C516.066 208.436 516.149 209.891 515.303 210.675C514.457 211.46 513.008 211.253 512.063 210.22C511.117 209.188 511.035 207.733 511.881 206.948C512.722 206.178 514.176 206.371 515.121 207.404Z" fill="#B9762E" fill-opacity="0.65"/>
<path opacity="0.5" d="M513.491 211.489C514.563 212.211 514.948 213.497 514.361 214.374C513.774 215.251 512.429 215.388 511.357 214.667C510.285 213.946 509.9 212.659 510.487 211.782C511.089 210.911 512.433 210.773 513.491 211.489Z" fill="#B9762E" fill-opacity="0.65"/>
<path opacity="0.5" d="M513.44 215.505C514.384 216.132 514.723 217.273 514.201 218.059C513.683 218.831 512.488 218.957 511.55 218.316C510.606 217.689 510.267 216.548 510.789 215.761C511.312 214.975 512.502 214.864 513.44 215.505Z" fill="#B9762E" fill-opacity="0.65"/>
<path opacity="0.5" d="M535.826 227.77C538.338 229.911 542.643 231.7 542.063 235.382C541.732 237.499 539.447 238.777 537.43 238.708C535.101 238.609 533.061 237.009 531.534 235.381C529.978 233.743 528.638 231.906 526.984 230.362C525.258 228.745 523.177 227.535 521.304 226.108C517.513 223.238 515.057 219.254 515.747 214.349C516.207 211.142 518.061 208.157 520.733 206.337C522.402 205.196 524.531 204.495 526.337 205.655C528.325 206.945 529.616 209.056 530.354 211.263C532.05 216.336 531.344 222.516 534.908 226.845C535.182 227.169 535.48 227.469 535.826 227.77Z" fill="#B9762E" fill-opacity="0.65"/>
</g>
<g opacity="0.5">
<path opacity="0.5" d="M542.961 211.386C543.859 213.099 545.731 213.893 547.146 213.149C548.561 212.404 548.977 210.414 548.079 208.702C547.181 206.989 545.309 206.195 543.894 206.939C542.479 207.684 542.063 209.674 542.961 211.386Z" fill="#B9762E" fill-opacity="0.65"/>
<path opacity="0.5" d="M549.082 209.48C549.323 210.991 550.538 212.038 551.773 211.845C553.013 211.638 553.813 210.254 553.567 208.757C553.327 207.246 552.111 206.199 550.877 206.391C549.642 206.584 548.842 207.968 549.082 209.48Z" fill="#B9762E" fill-opacity="0.65"/>
<path opacity="0.5" d="M554.136 209.753C554.171 211.159 555.125 212.259 556.265 212.243C557.409 212.212 558.32 211.062 558.3 209.662C558.265 208.256 557.311 207.156 556.172 207.172C555.012 207.197 554.101 208.348 554.136 209.753Z" fill="#B9762E" fill-opacity="0.65"/>
<path opacity="0.5" d="M558.136 211.58C557.865 212.844 558.479 214.035 559.517 214.258C560.556 214.481 561.615 213.643 561.881 212.393C562.152 211.128 561.539 209.938 560.5 209.715C559.467 209.477 558.408 210.316 558.136 211.58Z" fill="#B9762E" fill-opacity="0.65"/>
<path opacity="0.5" d="M560.947 214.425C560.698 215.536 561.247 216.589 562.16 216.801C563.079 216.997 564.006 216.258 564.254 215.147C564.503 214.037 563.954 212.983 563.041 212.772C562.137 212.581 561.196 213.315 560.947 214.425Z" fill="#B9762E" fill-opacity="0.65"/>
<path opacity="0.5" d="M553.312 238.781C552.987 242.067 551.116 246.327 554.084 248.596C555.791 249.9 558.324 249.245 559.715 247.795C561.331 246.118 561.681 243.537 561.663 241.311C561.64 239.052 561.336 236.806 561.463 234.534C561.592 232.166 562.251 229.857 562.611 227.523C563.36 222.816 562.374 218.254 558.471 215.198C555.928 213.192 552.522 212.338 549.329 212.888C547.343 213.235 545.321 214.185 544.821 216.275C544.278 218.577 544.809 221.001 545.816 223.092C548.115 227.927 552.893 231.893 553.319 237.487C553.363 237.908 553.36 238.328 553.312 238.781Z" fill="#B9762E" fill-opacity="0.65"/>
</g>
</g>
<g opacity="0.5">
<g opacity="0.5">
<path opacity="0.5" d="M628.938 225.478C630.857 225.729 632.244 227.218 632.046 228.79C631.838 230.373 630.123 231.444 628.204 231.192C626.284 230.941 624.897 229.452 625.095 227.88C625.293 226.308 627.018 225.226 628.938 225.478Z" fill="#B9762E" fill-opacity="0.65"/>
<path opacity="0.5" d="M629.251 231.882C630.754 231.596 632.16 232.35 632.395 233.595C632.629 234.84 631.61 236.061 630.119 236.357C628.616 236.643 627.21 235.89 626.975 234.644C626.73 233.411 627.749 232.168 629.251 231.882Z" fill="#B9762E" fill-opacity="0.65"/>
<path opacity="0.5" d="M631.259 236.526C632.583 236.073 633.949 236.579 634.33 237.668C634.711 238.758 633.941 240.003 632.616 240.456C631.292 240.909 629.926 240.402 629.545 239.313C629.176 238.234 629.934 236.979 631.259 236.526Z" fill="#B9762E" fill-opacity="0.65"/>
<path opacity="0.5" d="M634.351 239.655C635.44 238.961 636.774 239.123 637.343 240.012C637.911 240.901 637.499 242.188 636.409 242.882C635.319 243.576 633.986 243.414 633.417 242.525C632.859 241.625 633.271 240.338 634.351 239.655Z" fill="#B9762E" fill-opacity="0.65"/>
<path opacity="0.5" d="M638.01 241.309C638.962 240.695 640.144 240.84 640.656 241.634C641.156 242.417 640.793 243.562 639.83 244.166C638.878 244.779 637.696 244.634 637.185 243.841C636.673 243.047 637.047 241.912 638.01 241.309Z" fill="#B9762E" fill-opacity="0.65"/>
<path opacity="0.5" d="M658.209 225.701C661.175 224.255 664.538 221.026 667.68 223.031C669.488 224.182 669.745 226.787 668.875 228.607C667.852 230.703 665.569 231.932 663.466 232.68C661.342 233.45 659.123 233.943 657.046 234.841C654.873 235.775 652.932 237.198 650.874 238.345C646.727 240.67 642.094 241.327 637.874 238.731C635.119 237.027 633.126 234.133 632.527 230.956C632.149 228.97 632.358 226.739 634.145 225.547C636.122 224.242 638.573 223.904 640.891 224.11C646.219 224.586 651.6 227.706 656.993 226.172C657.4 226.051 657.794 225.898 658.209 225.701Z" fill="#B9762E" fill-opacity="0.65"/>
</g>
<g opacity="0.5">
<path opacity="0.5" d="M646.049 212.605C647.977 212.467 649.455 211.07 649.339 209.475C649.223 207.881 647.565 206.703 645.636 206.841C643.708 206.979 642.23 208.376 642.346 209.971C642.463 211.565 644.12 212.743 646.049 212.605Z" fill="#B9762E" fill-opacity="0.65"/>
<path opacity="0.5" d="M646.751 206.232C648.232 206.617 649.678 205.922 649.995 204.713C650.302 203.494 649.353 202.207 647.883 201.833C646.402 201.449 644.956 202.143 644.639 203.352C644.321 204.561 645.27 205.848 646.751 206.232Z" fill="#B9762E" fill-opacity="0.65"/>
<path opacity="0.5" d="M649.024 201.711C650.326 202.241 651.716 201.808 652.157 200.757C652.587 199.695 651.897 198.4 650.606 197.859C649.304 197.328 647.914 197.762 647.473 198.813C647.032 199.885 647.722 201.18 649.024 201.711Z" fill="#B9762E" fill-opacity="0.65"/>
<path opacity="0.5" d="M652.299 198.776C653.349 199.53 654.685 199.444 655.305 198.581C655.925 197.719 655.581 196.413 654.542 195.669C653.492 194.914 652.156 195.001 651.535 195.863C650.904 196.715 651.249 198.021 652.299 198.776Z" fill="#B9762E" fill-opacity="0.65"/>
<path opacity="0.5" d="M656.031 197.338C656.949 198.011 658.135 197.929 658.693 197.177C659.241 196.414 658.934 195.269 658.016 194.596C657.098 193.924 655.913 194.005 655.354 194.758C654.817 195.509 655.113 196.666 656.031 197.338Z" fill="#B9762E" fill-opacity="0.65"/>
<path opacity="0.5" d="M675.296 214.081C678.178 215.694 681.333 219.113 684.6 217.302C686.478 216.259 686.892 213.675 686.119 211.821C685.229 209.668 683.004 208.315 680.957 207.441C678.877 206.558 676.697 205.937 674.666 204.912C672.548 203.846 670.695 202.318 668.7 201.054C664.686 198.484 660.11 197.562 655.748 199.917C652.892 201.445 650.747 204.225 649.973 207.37C649.496 209.329 649.558 211.563 651.273 212.857C653.165 214.276 655.6 214.759 657.919 214.673C663.269 214.501 668.816 211.709 674.113 213.558C674.517 213.685 674.9 213.856 675.296 214.081Z" fill="#B9762E" fill-opacity="0.65"/>
</g>
</g>
<g opacity="0.5">
<g opacity="0.5">
<path opacity="0.5" d="M744.396 204.826C745.525 206.398 745.388 208.428 744.106 209.359C742.808 210.29 740.854 209.771 739.725 208.199C738.595 206.627 738.733 204.597 740.015 203.666C741.297 202.735 743.266 203.253 744.396 204.826Z" fill="#B9762E" fill-opacity="0.65"/>
<path opacity="0.5" d="M739.938 209.435C741.174 210.336 741.586 211.878 740.838 212.9C740.09 213.923 738.503 214.015 737.267 213.129C736.03 212.229 735.618 210.687 736.366 209.664C737.099 208.642 738.701 208.535 739.938 209.435Z" fill="#B9762E" fill-opacity="0.65"/>
<path opacity="0.5" d="M737.923 214.076C739.16 214.732 739.724 216.075 739.19 217.098C738.656 218.12 737.221 218.41 735.985 217.754C734.749 217.098 734.184 215.755 734.718 214.732C735.252 213.725 736.687 213.419 737.923 214.076Z" fill="#B9762E" fill-opacity="0.65"/>
<path opacity="0.5" d="M737.755 218.471C739.007 218.792 739.801 219.875 739.541 220.898C739.282 221.921 738.061 222.501 736.809 222.18C735.557 221.86 734.764 220.776 735.023 219.753C735.298 218.731 736.519 218.151 737.755 218.471Z" fill="#B9762E" fill-opacity="0.65"/>
<path opacity="0.5" d="M739.053 222.272C740.152 222.547 740.854 223.508 740.625 224.424C740.396 225.325 739.312 225.844 738.213 225.554C737.114 225.279 736.412 224.317 736.641 223.401C736.87 222.486 737.954 221.982 739.053 222.272Z" fill="#B9762E" fill-opacity="0.65"/>
<path opacity="0.5" d="M764.254 226.332C767.337 227.508 771.993 227.752 772.68 231.415C773.076 233.522 771.352 235.491 769.428 236.101C767.2 236.788 764.742 235.964 762.758 234.941C760.743 233.918 758.866 232.636 756.79 231.736C754.623 230.789 752.257 230.347 750.013 229.629C745.48 228.195 741.832 225.264 740.84 220.41C740.198 217.235 740.946 213.801 742.854 211.191C744.045 209.558 745.816 208.184 747.907 208.672C750.211 209.222 752.135 210.779 753.569 212.61C756.866 216.823 758.271 222.883 763.079 225.768C763.445 225.981 763.827 226.164 764.254 226.332Z" fill="#B9762E" fill-opacity="0.65"/>
</g>
<g opacity="0.5">
<path opacity="0.5" d="M765.49 208.504C766.91 209.817 768.94 209.939 770.023 208.764C771.107 207.589 770.832 205.574 769.413 204.261C767.993 202.948 765.963 202.826 764.879 204.002C763.796 205.177 764.07 207.192 765.49 208.504Z" fill="#B9762E" fill-opacity="0.65"/>
<path opacity="0.5" d="M770.619 204.658C771.352 206.001 772.847 206.581 773.946 205.985C775.045 205.375 775.335 203.803 774.603 202.475C773.87 201.132 772.374 200.552 771.275 201.147C770.176 201.742 769.886 203.314 770.619 204.658Z" fill="#B9762E" fill-opacity="0.65"/>
<path opacity="0.5" d="M775.473 203.223C775.976 204.536 777.243 205.253 778.312 204.856C779.38 204.444 779.853 203.055 779.365 201.742C778.861 200.43 777.594 199.712 776.526 200.109C775.442 200.521 774.969 201.91 775.473 203.223Z" fill="#B9762E" fill-opacity="0.65"/>
<path opacity="0.5" d="M779.853 203.605C780.021 204.887 780.998 205.803 782.051 205.665C783.105 205.528 783.822 204.383 783.654 203.116C783.486 201.834 782.509 200.918 781.456 201.056C780.403 201.178 779.686 202.323 779.853 203.605Z" fill="#B9762E" fill-opacity="0.65"/>
<path opacity="0.5" d="M783.455 205.345C783.592 206.474 784.462 207.283 785.394 207.176C786.325 207.054 786.95 206.047 786.813 204.917C786.676 203.788 785.806 202.979 784.875 203.086C783.959 203.208 783.318 204.215 783.455 205.345Z" fill="#B9762E" fill-opacity="0.65"/>
<path opacity="0.5" d="M784.417 230.85C785.211 234.056 784.875 238.696 788.432 239.841C790.477 240.497 792.645 239.032 793.469 237.2C794.43 235.078 793.896 232.529 793.133 230.438C792.355 228.316 791.317 226.302 790.676 224.119C790.004 221.845 789.851 219.448 789.409 217.128C788.539 212.442 786.081 208.474 781.38 206.902C778.312 205.864 774.817 206.199 771.993 207.787C770.237 208.779 768.65 210.351 768.879 212.488C769.138 214.839 770.451 216.945 772.1 218.578C775.885 222.364 781.716 224.501 783.99 229.629C784.173 230.011 784.311 230.408 784.417 230.85Z" fill="#B9762E" fill-opacity="0.65"/>
</g>
</g>
<g opacity="0.5">
<g opacity="0.5">
<path opacity="0.5" d="M849.865 213.826C850.995 215.398 850.858 217.428 849.575 218.359C848.278 219.29 846.324 218.771 845.195 217.199C844.065 215.627 844.203 213.597 845.485 212.666C846.767 211.735 848.736 212.253 849.865 213.826Z" fill="#B9762E" fill-opacity="0.65"/>
<path opacity="0.5" d="M845.407 218.435C846.644 219.336 847.056 220.878 846.308 221.9C845.56 222.923 843.973 223.015 842.736 222.129C841.5 221.229 841.088 219.687 841.836 218.664C842.568 217.642 844.171 217.535 845.407 218.435Z" fill="#B9762E" fill-opacity="0.65"/>
<path opacity="0.5" d="M843.393 223.076C844.629 223.732 845.194 225.075 844.66 226.098C844.126 227.12 842.691 227.41 841.455 226.754C840.218 226.098 839.653 224.755 840.188 223.732C840.722 222.725 842.157 222.419 843.393 223.076Z" fill="#B9762E" fill-opacity="0.65"/>
<path opacity="0.5" d="M843.225 227.471C844.477 227.792 845.271 228.875 845.011 229.898C844.752 230.921 843.53 231.501 842.279 231.18C841.027 230.86 840.233 229.776 840.493 228.753C840.768 227.731 841.989 227.151 843.225 227.471Z" fill="#B9762E" fill-opacity="0.65"/>
<path opacity="0.5" d="M844.522 231.272C845.621 231.547 846.323 232.508 846.094 233.424C845.866 234.325 844.782 234.844 843.683 234.554C842.584 234.279 841.882 233.317 842.111 232.401C842.34 231.486 843.423 230.982 844.522 231.272Z" fill="#B9762E" fill-opacity="0.65"/>
<path opacity="0.5" d="M869.724 235.332C872.807 236.508 877.462 236.752 878.149 240.415C878.546 242.522 876.821 244.491 874.898 245.101C872.67 245.788 870.212 244.964 868.228 243.941C866.213 242.918 864.336 241.636 862.26 240.736C860.092 239.789 857.727 239.347 855.483 238.629C850.949 237.195 847.301 234.264 846.309 229.41C845.668 226.235 846.416 222.801 848.324 220.191C849.515 218.558 851.285 217.184 853.376 217.672C855.681 218.222 857.604 219.779 859.039 221.61C862.336 225.823 863.74 231.883 868.548 234.768C868.915 234.981 869.296 235.164 869.724 235.332Z" fill="#B9762E" fill-opacity="0.65"/>
</g>
<g opacity="0.5">
<path opacity="0.5" d="M870.96 217.504C872.379 218.817 874.409 218.939 875.493 217.764C876.577 216.589 876.302 214.574 874.882 213.261C873.463 211.948 871.433 211.826 870.349 213.002C869.265 214.177 869.54 216.192 870.96 217.504Z" fill="#B9762E" fill-opacity="0.65"/>
<path opacity="0.5" d="M876.089 213.658C876.821 215.001 878.317 215.581 879.416 214.985C880.515 214.375 880.805 212.803 880.072 211.475C879.34 210.132 877.844 209.552 876.745 210.147C875.646 210.742 875.356 212.314 876.089 213.658Z" fill="#B9762E" fill-opacity="0.65"/>
<path opacity="0.5" d="M880.942 212.223C881.446 213.536 882.713 214.253 883.781 213.856C884.85 213.444 885.323 212.055 884.835 210.742C884.331 209.43 883.064 208.712 881.995 209.109C880.912 209.521 880.439 210.91 880.942 212.223Z" fill="#B9762E" fill-opacity="0.65"/>
<path opacity="0.5" d="M885.323 212.605C885.491 213.887 886.468 214.803 887.521 214.665C888.574 214.528 889.292 213.383 889.124 212.116C888.956 210.834 887.979 209.918 886.926 210.056C885.873 210.178 885.155 211.323 885.323 212.605Z" fill="#B9762E" fill-opacity="0.65"/>
<path opacity="0.5" d="M888.925 214.345C889.062 215.474 889.932 216.283 890.863 216.176C891.794 216.054 892.42 215.047 892.283 213.917C892.145 212.788 891.275 211.979 890.344 212.086C889.429 212.208 888.787 213.215 888.925 214.345Z" fill="#B9762E" fill-opacity="0.65"/>
<path opacity="0.5" d="M889.887 239.85C890.681 243.056 890.345 247.696 893.902 248.841C895.947 249.497 898.114 248.032 898.939 246.2C899.9 244.078 899.366 241.529 898.603 239.438C897.824 237.316 896.786 235.302 896.145 233.119C895.474 230.845 895.321 228.448 894.878 226.128C894.008 221.442 891.551 217.474 886.85 215.902C883.782 214.864 880.286 215.199 877.463 216.787C875.707 217.779 874.12 219.351 874.349 221.488C874.608 223.839 875.921 225.945 877.569 227.578C881.355 231.364 887.185 233.501 889.46 238.629C889.643 239.011 889.78 239.408 889.887 239.85Z" fill="#B9762E" fill-opacity="0.65"/>
</g>
</g>
<g opacity="0.5">
<g opacity="0.5">
<path opacity="0.5" d="M963.29 209.003C964.021 210.796 963.412 212.737 961.948 213.343C960.469 213.944 958.69 212.983 957.96 211.19C957.23 209.397 957.838 207.455 959.303 206.85C960.767 206.245 962.56 207.21 963.29 209.003Z" fill="#B9762E" fill-opacity="0.65"/>
<path opacity="0.5" d="M957.877 212.442C958.869 213.607 958.909 215.202 957.942 216.021C956.976 216.84 955.411 216.558 954.416 215.408C953.425 214.243 953.385 212.648 954.351 211.829C955.303 211.006 956.886 211.277 957.877 212.442Z" fill="#B9762E" fill-opacity="0.65"/>
<path opacity="0.5" d="M954.834 216.482C955.882 217.409 956.117 218.847 955.358 219.716C954.6 220.586 953.137 220.532 952.088 219.605C951.04 218.677 950.805 217.239 951.564 216.37C952.319 215.515 953.785 215.554 954.834 216.482Z" fill="#B9762E" fill-opacity="0.65"/>
<path opacity="0.5" d="M953.642 220.717C954.784 221.321 955.302 222.56 954.81 223.494C954.319 224.428 952.996 224.706 951.854 224.101C950.712 223.497 950.194 222.257 950.686 221.324C951.192 220.394 952.515 220.116 953.642 220.717Z" fill="#B9762E" fill-opacity="0.65"/>
<path opacity="0.5" d="M954.014 224.715C955.018 225.239 955.475 226.339 955.039 227.175C954.605 227.997 953.43 228.248 952.43 227.709C951.425 227.185 950.968 226.086 951.405 225.249C951.841 224.412 953.013 224.176 954.014 224.715Z" fill="#B9762E" fill-opacity="0.65"/>
<path opacity="0.5" d="M977.566 234.559C980.288 236.423 984.757 237.749 984.568 241.472C984.461 243.613 982.324 245.123 980.311 245.267C977.984 245.413 975.787 244.037 974.097 242.579C972.378 241.113 970.852 239.427 969.045 238.066C967.159 236.639 964.962 235.655 962.949 234.432C958.877 231.977 956.016 228.274 956.187 223.323C956.306 220.086 957.837 216.922 960.303 214.831C961.842 213.521 963.885 212.6 965.804 213.564C967.916 214.638 969.422 216.601 970.388 218.718C972.608 223.585 972.556 229.805 976.555 233.735C976.861 234.028 977.189 234.295 977.566 234.559Z" fill="#B9762E" fill-opacity="0.65"/>
</g>
<g opacity="0.5">
<path opacity="0.5" d="M982.938 217.515C984.011 219.123 985.956 219.717 987.285 218.828C988.613 217.939 988.818 215.915 987.745 214.307C986.672 212.699 984.727 212.105 983.398 212.994C982.069 213.883 981.865 215.906 982.938 217.515Z" fill="#B9762E" fill-opacity="0.65"/>
<path opacity="0.5" d="M988.825 214.975C989.223 216.452 990.541 217.366 991.749 217.044C992.96 216.708 993.61 215.247 993.208 213.785C992.81 212.307 991.492 211.394 990.284 211.715C989.076 212.037 988.426 213.497 988.825 214.975Z" fill="#B9762E" fill-opacity="0.65"/>
<path opacity="0.5" d="M993.879 214.716C994.062 216.11 995.126 217.104 996.258 216.968C997.393 216.817 998.178 215.577 998.01 214.187C997.827 212.793 996.764 211.799 995.632 211.935C994.482 212.082 993.697 213.322 993.879 214.716Z" fill="#B9762E" fill-opacity="0.65"/>
<path opacity="0.5" d="M998.05 216.112C997.913 217.398 998.648 218.517 999.704 218.63C1000.76 218.743 1001.73 217.797 1001.86 216.526C1002 215.24 1001.26 214.122 1000.2 214.009C999.152 213.881 998.186 214.826 998.05 216.112Z" fill="#B9762E" fill-opacity="0.65"/>
<path opacity="0.5" d="M1001.14 218.646C1001.01 219.776 1001.67 220.766 1002.6 220.88C1003.53 220.979 1004.38 220.146 1004.51 219.016C1004.64 217.886 1003.98 216.896 1003.05 216.782C1002.13 216.686 1001.27 217.516 1001.14 218.646Z" fill="#B9762E" fill-opacity="0.65"/>
<path opacity="0.5" d="M996.112 243.669C996.134 246.971 994.722 251.404 997.912 253.349C999.747 254.466 1002.2 253.548 1003.43 251.96C1004.86 250.122 1004.94 247.519 1004.68 245.308C1004.42 243.063 1003.88 240.861 1003.77 238.589C1003.65 236.22 1004.06 233.855 1004.18 231.496C1004.43 226.736 1002.97 222.303 998.762 219.674C996.022 217.947 992.545 217.456 989.429 218.339C987.49 218.893 985.579 220.05 985.301 222.181C985.004 224.527 985.787 226.882 987.008 228.856C989.802 233.422 994.971 236.864 995.982 242.382C996.071 242.796 996.112 243.214 996.112 243.669Z" fill="#B9762E" fill-opacity="0.65"/>
</g>
</g>
<g opacity="0.5">
<g opacity="0.5">
<path opacity="0.5" d="M1068.51 204.826C1069.64 206.398 1069.5 208.428 1068.22 209.359C1066.93 210.29 1064.97 209.771 1063.84 208.199C1062.71 206.627 1062.85 204.597 1064.13 203.666C1065.41 202.735 1067.38 203.253 1068.51 204.826Z" fill="#B9762E" fill-opacity="0.65"/>
<path opacity="0.5" d="M1064.05 209.435C1065.29 210.336 1065.7 211.878 1064.96 212.9C1064.21 213.923 1062.62 214.015 1061.38 213.129C1060.15 212.229 1059.74 210.687 1060.48 209.664C1061.22 208.642 1062.82 208.535 1064.05 209.435Z" fill="#B9762E" fill-opacity="0.65"/>
<path opacity="0.5" d="M1062.04 214.076C1063.28 214.732 1063.84 216.075 1063.31 217.098C1062.77 218.12 1061.34 218.41 1060.1 217.754C1058.87 217.098 1058.3 215.755 1058.84 214.732C1059.37 213.725 1060.8 213.419 1062.04 214.076Z" fill="#B9762E" fill-opacity="0.65"/>
<path opacity="0.5" d="M1061.87 218.471C1063.12 218.792 1063.92 219.875 1063.66 220.898C1063.4 221.921 1062.18 222.501 1060.93 222.18C1059.67 221.86 1058.88 220.776 1059.14 219.753C1059.42 218.731 1060.64 218.151 1061.87 218.471Z" fill="#B9762E" fill-opacity="0.65"/>
<path opacity="0.5" d="M1063.17 222.272C1064.27 222.547 1064.97 223.508 1064.74 224.424C1064.51 225.325 1063.43 225.844 1062.33 225.554C1061.23 225.279 1060.53 224.317 1060.76 223.401C1060.99 222.486 1062.07 221.982 1063.17 222.272Z" fill="#B9762E" fill-opacity="0.65"/>
<path opacity="0.5" d="M1088.37 226.332C1091.45 227.508 1096.11 227.752 1096.8 231.415C1097.19 233.522 1095.47 235.491 1093.55 236.101C1091.32 236.788 1088.86 235.964 1086.88 234.941C1084.86 233.918 1082.98 232.636 1080.91 231.736C1078.74 230.789 1076.37 230.347 1074.13 229.629C1069.6 228.195 1065.95 225.264 1064.96 220.41C1064.32 217.235 1065.06 213.801 1066.97 211.191C1068.16 209.558 1069.93 208.184 1072.02 208.672C1074.33 209.222 1076.25 210.779 1077.69 212.61C1080.98 216.823 1082.39 222.883 1087.2 225.768C1087.56 225.981 1087.94 226.164 1088.37 226.332Z" fill="#B9762E" fill-opacity="0.65"/>
</g>
<g opacity="0.5">
<path opacity="0.5" d="M1089.61 208.504C1091.03 209.817 1093.06 209.939 1094.14 208.764C1095.22 207.589 1094.95 205.574 1093.53 204.261C1092.11 202.948 1090.08 202.826 1089 204.002C1087.91 205.177 1088.19 207.192 1089.61 208.504Z" fill="#B9762E" fill-opacity="0.65"/>
<path opacity="0.5" d="M1094.74 204.658C1095.47 206.001 1096.96 206.581 1098.06 205.985C1099.16 205.375 1099.45 203.803 1098.72 202.475C1097.99 201.132 1096.49 200.552 1095.39 201.147C1094.29 201.742 1094 203.314 1094.74 204.658Z" fill="#B9762E" fill-opacity="0.65"/>
<path opacity="0.5" d="M1099.59 203.223C1100.09 204.536 1101.36 205.253 1102.43 204.856C1103.5 204.444 1103.97 203.055 1103.48 201.742C1102.98 200.43 1101.71 199.712 1100.64 200.109C1099.56 200.521 1099.09 201.91 1099.59 203.223Z" fill="#B9762E" fill-opacity="0.65"/>
<path opacity="0.5" d="M1103.97 203.605C1104.14 204.887 1105.12 205.803 1106.17 205.665C1107.22 205.528 1107.94 204.383 1107.77 203.116C1107.6 201.834 1106.63 200.918 1105.57 201.056C1104.52 201.178 1103.8 202.323 1103.97 203.605Z" fill="#B9762E" fill-opacity="0.65"/>
<path opacity="0.5" d="M1107.57 205.345C1107.71 206.474 1108.58 207.283 1109.51 207.176C1110.44 207.054 1111.07 206.047 1110.93 204.917C1110.79 203.788 1109.92 202.979 1108.99 203.086C1108.08 203.208 1107.43 204.215 1107.57 205.345Z" fill="#B9762E" fill-opacity="0.65"/>
<path opacity="0.5" d="M1108.53 230.85C1109.33 234.056 1108.99 238.696 1112.55 239.841C1114.59 240.497 1116.76 239.032 1117.59 237.2C1118.55 235.078 1118.01 232.529 1117.25 230.438C1116.47 228.316 1115.43 226.302 1114.79 224.119C1114.12 221.845 1113.97 219.448 1113.53 217.128C1112.66 212.442 1110.2 208.474 1105.5 206.902C1102.43 205.864 1098.93 206.199 1096.11 207.787C1094.35 208.779 1092.77 210.351 1093 212.488C1093.26 214.839 1094.57 216.945 1096.22 218.578C1100 222.364 1105.83 224.501 1108.11 229.629C1108.29 230.011 1108.43 230.408 1108.53 230.85Z" fill="#B9762E" fill-opacity="0.65"/>
</g>
</g>
<g opacity="0.5">
<g opacity="0.5">
<path opacity="0.5" d="M1173.88 199.826C1175.01 201.398 1174.87 203.428 1173.59 204.359C1172.29 205.29 1170.34 204.771 1169.21 203.199C1168.08 201.627 1168.22 199.597 1169.5 198.666C1170.78 197.735 1172.75 198.253 1173.88 199.826Z" fill="#B9762E" fill-opacity="0.65"/>
<path opacity="0.5" d="M1169.42 204.435C1170.66 205.336 1171.07 206.878 1170.32 207.9C1169.57 208.923 1167.99 209.015 1166.75 208.129C1165.51 207.229 1165.1 205.687 1165.85 204.664C1166.58 203.642 1168.18 203.535 1169.42 204.435Z" fill="#B9762E" fill-opacity="0.65"/>
<path opacity="0.5" d="M1167.41 209.076C1168.64 209.732 1169.21 211.075 1168.67 212.098C1168.14 213.12 1166.7 213.41 1165.47 212.754C1164.23 212.098 1163.67 210.755 1164.2 209.732C1164.74 208.725 1166.17 208.419 1167.41 209.076Z" fill="#B9762E" fill-opacity="0.65"/>
<path opacity="0.5" d="M1167.24 213.471C1168.49 213.792 1169.28 214.875 1169.02 215.898C1168.77 216.921 1167.54 217.501 1166.29 217.18C1165.04 216.86 1164.25 215.776 1164.51 214.753C1164.78 213.731 1166 213.151 1167.24 213.471Z" fill="#B9762E" fill-opacity="0.65"/>
<path opacity="0.5" d="M1168.54 217.272C1169.63 217.547 1170.34 218.508 1170.11 219.424C1169.88 220.325 1168.8 220.844 1167.7 220.554C1166.6 220.279 1165.9 219.317 1166.12 218.401C1166.35 217.486 1167.44 216.982 1168.54 217.272Z" fill="#B9762E" fill-opacity="0.65"/>
<path opacity="0.5" d="M1193.74 221.332C1196.82 222.508 1201.48 222.752 1202.16 226.415C1202.56 228.522 1200.84 230.491 1198.91 231.101C1196.68 231.788 1194.23 230.964 1192.24 229.941C1190.23 228.918 1188.35 227.636 1186.27 226.736C1184.11 225.789 1181.74 225.347 1179.5 224.629C1174.96 223.195 1171.32 220.264 1170.32 215.41C1169.68 212.235 1170.43 208.801 1172.34 206.191C1173.53 204.558 1175.3 203.184 1177.39 203.672C1179.69 204.222 1181.62 205.779 1183.05 207.61C1186.35 211.823 1187.75 217.883 1192.56 220.768C1192.93 220.981 1193.31 221.164 1193.74 221.332Z" fill="#B9762E" fill-opacity="0.65"/>
</g>
<g opacity="0.5">
<path opacity="0.5" d="M1194.97 203.504C1196.39 204.817 1198.42 204.939 1199.51 203.764C1200.59 202.589 1200.32 200.574 1198.9 199.261C1197.48 197.948 1195.45 197.826 1194.36 199.002C1193.28 200.177 1193.55 202.192 1194.97 203.504Z" fill="#B9762E" fill-opacity="0.65"/>
<path opacity="0.5" d="M1200.1 199.658C1200.83 201.001 1202.33 201.581 1203.43 200.985C1204.53 200.375 1204.82 198.803 1204.09 197.475C1203.35 196.132 1201.86 195.552 1200.76 196.147C1199.66 196.742 1199.37 198.314 1200.1 199.658Z" fill="#B9762E" fill-opacity="0.65"/>
<path opacity="0.5" d="M1204.96 198.223C1205.46 199.536 1206.73 200.253 1207.8 199.856C1208.86 199.444 1209.34 198.055 1208.85 196.742C1208.34 195.43 1207.08 194.712 1206.01 195.109C1204.93 195.521 1204.45 196.91 1204.96 198.223Z" fill="#B9762E" fill-opacity="0.65"/>
<path opacity="0.5" d="M1209.34 198.605C1209.5 199.887 1210.48 200.803 1211.53 200.665C1212.59 200.528 1213.31 199.383 1213.14 198.116C1212.97 196.834 1211.99 195.918 1210.94 196.056C1209.89 196.178 1209.17 197.323 1209.34 198.605Z" fill="#B9762E" fill-opacity="0.65"/>
<path opacity="0.5" d="M1212.94 200.345C1213.08 201.474 1213.95 202.283 1214.88 202.176C1215.81 202.054 1216.43 201.047 1216.3 199.917C1216.16 198.788 1215.29 197.979 1214.36 198.086C1213.44 198.208 1212.8 199.215 1212.94 200.345Z" fill="#B9762E" fill-opacity="0.65"/>
<path opacity="0.5" d="M1213.9 225.85C1214.69 229.056 1214.36 233.696 1217.92 234.841C1219.96 235.497 1222.13 234.032 1222.95 232.2C1223.91 230.078 1223.38 227.529 1222.62 225.438C1221.84 223.316 1220.8 221.302 1220.16 219.119C1219.49 216.845 1219.33 214.448 1218.89 212.128C1218.02 207.442 1215.56 203.474 1210.86 201.902C1207.8 200.864 1204.3 201.199 1201.48 202.787C1199.72 203.779 1198.13 205.351 1198.36 207.488C1198.62 209.839 1199.93 211.945 1201.58 213.578C1205.37 217.364 1211.2 219.501 1213.47 224.629C1213.66 225.011 1213.79 225.408 1213.9 225.85Z" fill="#B9762E" fill-opacity="0.65"/>
</g>
</g>
<g opacity="0.4">
<path fill-rule="evenodd" clip-rule="evenodd" d="M1380.72 96.4085C1380.72 96.4085 1384.1 107.289 1383.47 116.606L1379.52 116.832L1383.2 118.858C1383.2 118.858 1381.89 127.655 1375.53 142.842L1371.88 132.863L1375.53 126.262L1371.5 131.442C1371.5 131.442 1368.08 118.858 1368.07 109.442C1368.06 100.04 1368.95 96.6477 1368.95 96.6477C1368.95 96.6477 1377.81 90.3421 1380.72 96.4085Z" fill="url(#paint2_linear)"/>
<path fill-rule="evenodd" clip-rule="evenodd" d="M1375.53 92.2985C1375.53 92.2985 1362.72 86.8374 1359.03 86.95C1355.35 87.0626 1341.83 105.839 1341.83 105.839C1341.83 105.839 1351.62 104.516 1353.87 103.348C1356.12 102.179 1362.68 98.759 1362.68 98.759H1373.36L1375.53 92.2985Z" fill="url(#paint3_linear)"/>
<path fill-rule="evenodd" clip-rule="evenodd" d="M1440.36 245C1440.36 245 1422.96 160.155 1417.44 143.433C1411.94 126.712 1379.53 95.8311 1379.53 95.8311L1377.47 98.7165C1377.47 98.7165 1403.71 121.955 1413.46 143.166C1423.2 164.377 1434.36 244.986 1434.36 244.986H1440.36V245Z" fill="url(#paint4_linear)"/>
<path fill-rule="evenodd" clip-rule="evenodd" d="M1376.03 96.9989C1376.03 96.9989 1356.26 88.9761 1351.26 88.3567C1346.24 87.7234 1328.72 93.4238 1328.72 93.4238L1333.58 95.2958L1338.17 92.4667L1335.23 96.4077C1335.23 96.4077 1348.75 100.335 1350.3 101.165L1351.96 100.349L1353.86 101.151C1353.86 101.151 1358.07 103.558 1362.67 103.333C1367.28 103.122 1376.03 96.9989 1376.03 96.9989Z" fill="url(#paint5_linear)"/>
<path opacity="0.5" fill-rule="evenodd" clip-rule="evenodd" d="M1358.1 102.812L1359.78 91.2285L1362.42 92.073L1360.87 103.615L1358.1 102.812Z" fill="url(#paint6_linear)"/>
<path opacity="0.71" fill-rule="evenodd" clip-rule="evenodd" d="M1383.2 118.858C1383.2 118.858 1380.58 131.99 1375.53 142.842L1376.61 109.78L1376.03 95.7188L1382.1 101.898L1383.33 108.865C1383.33 108.865 1383.69 113.693 1383.46 116.592L1379.32 116.902L1383.2 118.858Z" fill="url(#paint7_linear)"/>
<path fill-rule="evenodd" clip-rule="evenodd" d="M1368.64 101.898C1368.64 101.898 1362.28 121.828 1352.37 133.708L1353.66 114.172L1357.67 104.727L1368.64 101.898Z" fill="url(#paint8_linear)"/>
<path fill-rule="evenodd" clip-rule="evenodd" d="M1377.47 96.4082C1377.47 96.4082 1362.09 100.026 1356.56 104.755C1351.01 109.47 1352.67 141.153 1352.67 141.153L1359.62 108.837L1377.91 97.8439L1378.37 96.6475L1377.47 96.4082Z" fill="url(#paint9_linear)"/>
<path fill-rule="evenodd" clip-rule="evenodd" d="M1411.68 84.4307C1411.68 84.4307 1406.05 87.1753 1398.46 88.794C1390.86 90.4267 1384.02 90.2578 1384.02 90.2578L1383.88 82.4461L1387.56 77.0693C1387.55 77.0693 1405.16 80.0533 1411.68 84.4307Z" fill="url(#paint10_linear)"/>
<path fill-rule="evenodd" clip-rule="evenodd" d="M1383.55 91.5942C1383.55 91.5942 1393 92.8892 1398.44 94.8597C1403.9 96.8302 1416 113.101 1416 113.101C1416 113.101 1411.09 112.848 1407.08 111.159L1405.84 104.304V110.483C1405.84 110.483 1396.94 109.864 1391.89 105.275C1386.85 100.687 1385.7 94.0996 1385.7 94.0996L1383.55 91.5942Z" fill="url(#paint11_linear)"/>
<path fill-rule="evenodd" clip-rule="evenodd" d="M1378.37 96.6343C1378.37 96.6343 1361.39 100.969 1358.79 106.065C1356.2 111.16 1352.67 141.126 1352.67 141.126L1359.82 133.328L1356.9 123.194L1360.55 131.653L1365.06 122.49L1361.74 111.132L1366.15 121.069L1367.16 119.76L1362.56 108.528L1368.11 117.578C1368.11 117.606 1376.02 103.264 1378.37 96.6343Z" fill="url(#paint12_linear)"/>
<path fill-rule="evenodd" clip-rule="evenodd" d="M1375.54 93.1991C1375.54 93.1991 1382.07 77.6601 1384.42 75.6614C1386.78 73.6768 1399.55 76.9282 1411.68 84.4302C1411.68 84.4302 1402.88 86.2459 1400.26 86.4711L1398.29 79.7854L1399.1 86.4711H1389.36L1385.87 79.7854L1388.7 88.132L1387.04 89.7647L1382.95 85.9503L1385.99 90.2996C1385.99 90.2996 1381.96 93.1991 1375.54 93.1991Z" fill="url(#paint13_linear)"/>
<path fill-rule="evenodd" clip-rule="evenodd" d="M1374.51 97.0136L1377.54 94.5363L1375.53 97.8299L1383.86 113.313L1388.17 105.065L1385.17 115.48C1390.81 120.899 1398.87 126.248 1398.87 126.248C1400.3 115.1 1398.87 103.291 1398.87 103.291L1391.94 102.221L1398 101.152C1398 101.152 1387.57 84.8526 1383.91 85.4156C1380.36 85.9505 1372.3 96.0565 1371.87 96.6195C1371.86 96.6335 1371.85 96.6335 1371.85 96.6335L1374.51 97.0136Z" fill="url(#paint14_linear)"/>
<path fill-rule="evenodd" clip-rule="evenodd" d="M1371.88 96.6195C1372.3 96.2394 1379.11 90.2575 1380.43 90.2575C1381.79 90.2716 1384.61 91.5524 1388.85 98.7448C1393.08 105.923 1398.87 126.248 1398.87 126.248C1400.3 115.1 1398.87 103.291 1398.87 103.291L1391.94 102.221L1398 101.152C1398 101.152 1387.57 84.8526 1383.91 85.4156C1380.38 85.9646 1372.31 96.0565 1371.88 96.6195Z" fill="url(#paint15_linear)"/>
<path fill-rule="evenodd" clip-rule="evenodd" d="M1398.68 125.558C1398.68 125.558 1396.52 116.705 1394.07 109.78C1391.63 102.855 1388.44 96.4645 1386.24 93.7762C1384.03 91.0737 1381.21 89.7225 1379.79 89.8351C1378.38 89.9477 1372.05 96.4082 1372.05 96.4082C1372.05 96.4082 1377.91 91.0737 1379.95 90.8626C1381.99 90.6515 1386.6 95.5215 1388.43 98.055C1390.24 100.574 1394.22 112.412 1394.84 113.819C1395.47 115.213 1398.68 125.558 1398.68 125.558Z" fill="url(#paint16_linear)"/>
<path fill-rule="evenodd" clip-rule="evenodd" d="M1371.19 95.0853C1371.19 95.0853 1355.1 89.3004 1351.16 88.9485C1347.21 88.5966 1328.72 93.4244 1328.72 93.4244C1328.72 93.4244 1345.42 87.7803 1350.69 88.301C1355.96 88.8359 1368.77 93.7763 1371.19 95.0853Z" fill="url(#paint17_linear)"/>
<path fill-rule="evenodd" clip-rule="evenodd" d="M1373.59 98.0415C1373.59 98.0415 1360.7 103.883 1358.93 106.571C1357.17 109.245 1354.81 127.402 1354.69 128.613C1354.57 129.837 1352.68 141.14 1352.68 141.14C1352.68 141.14 1353.93 130.414 1353.93 128.134C1353.93 125.854 1356.32 109.991 1358.69 105.839C1361.03 101.687 1373.59 98.0415 1373.59 98.0415Z" fill="url(#paint18_linear)"/>
<path fill-rule="evenodd" clip-rule="evenodd" d="M1403.61 80.0671C1403.61 80.0671 1390.01 74.6903 1386.24 75.5067C1382.47 76.3231 1377.16 89.4411 1377.16 89.4411C1377.16 89.4411 1382.21 77.6743 1384.42 75.6615C1386.63 73.6488 1396.48 76.5483 1403.61 80.0671Z" fill="url(#paint19_linear)"/>
<path opacity="0.5" fill-rule="evenodd" clip-rule="evenodd" d="M1383.87 113.326L1390.08 101.292L1389.31 99.6172L1380.59 107.218L1383.87 113.326Z" fill="url(#paint20_linear)"/>
<path opacity="0.5" fill-rule="evenodd" clip-rule="evenodd" d="M1350.29 101.152L1351.94 89.061L1351.96 100.349L1350.29 101.152Z" fill="url(#paint21_linear)"/>
<path opacity="0.5" fill-rule="evenodd" clip-rule="evenodd" d="M1343.43 89.9902L1337.19 96.9856L1335.23 96.4085L1338.17 92.4675L1340.32 90.6377L1343.43 89.9902Z" fill="url(#paint22_linear)"/>
<path opacity="0.5" fill-rule="evenodd" clip-rule="evenodd" d="M1398.01 101.151L1391.08 102.348L1390.86 101.897L1397.31 99.9268L1398.01 101.151Z" fill="url(#paint23_linear)"/>
<path opacity="0.5" fill-rule="evenodd" clip-rule="evenodd" d="M1374.51 97.0136L1381.33 91.2287L1379.95 90.8486L1372.83 96.7743L1374.51 97.0136Z" fill="url(#paint24_linear)"/>
<path opacity="0.5" fill-rule="evenodd" clip-rule="evenodd" d="M1399.1 86.4566L1398.01 78.0255L1396.88 77.6455L1395.35 86.4566H1399.1Z" fill="url(#paint25_linear)"/>
<path opacity="0.5" fill-rule="evenodd" clip-rule="evenodd" d="M1390.86 86.4573L1384.97 76.1543L1386.06 80.3628L1389.34 86.4573H1390.86Z" fill="url(#paint26_linear)"/>
<path opacity="0.5" fill-rule="evenodd" clip-rule="evenodd" d="M1360.56 131.666L1361.94 128.879L1356.24 117.802L1355.73 121.054L1360.56 131.666Z" fill="url(#paint27_linear)"/>
<path fill-rule="evenodd" clip-rule="evenodd" d="M1397.31 99.9271L1390.86 101.898L1386.68 94.3534L1391.68 92.228C1391.68 92.228 1396.34 98.407 1397.31 99.9271Z" fill="url(#paint28_linear)"/>
<path fill-rule="evenodd" clip-rule="evenodd" d="M1358.68 105.838L1354.8 107.696C1354.8 107.696 1353.5 111.68 1353.12 115.987L1355.91 115.241C1355.9 115.227 1357.4 109.794 1358.68 105.838Z" fill="url(#paint29_linear)"/>
<path fill-rule="evenodd" clip-rule="evenodd" d="M1351.96 88.4982L1350.29 101.166L1344.97 99.3361L1347.29 88.4982C1347.3 88.4982 1350.59 87.6255 1351.96 88.4982Z" fill="url(#paint30_linear)"/>
<path fill-rule="evenodd" clip-rule="evenodd" d="M1398.01 78.0259L1400.26 86.4569L1404.67 85.7813L1400.8 79.0111L1398.01 78.0259Z" fill="url(#paint31_linear)"/>
<path fill-rule="evenodd" clip-rule="evenodd" d="M1435.15 220.03C1435.15 220.03 1430.82 213.992 1430.12 211.641C1429.42 209.291 1420.14 153.356 1414.74 142.448C1408.91 130.667 1402.91 124.727 1402.91 124.727L1401.84 119.576C1401.84 119.576 1413.98 133.116 1417.45 143.419C1420.93 153.736 1431.64 200.072 1435.15 220.03Z" fill="url(#paint32_linear)"/>
<path fill-rule="evenodd" clip-rule="evenodd" d="M1417.44 143.433L1415.19 143.447C1415.19 143.447 1411.54 135.523 1407.77 130.724L1409.39 129.091C1409.39 129.091 1415.85 137.578 1417.44 143.433Z" fill="url(#paint33_linear)"/>
<path opacity="0.87" fill-rule="evenodd" clip-rule="evenodd" d="M1425.8 176.032L1425.26 189.431L1434.36 245H1438.25L1436.03 224.169C1436.03 224.169 1426.91 179.973 1425.8 176.032Z" fill="url(#paint34_linear)"/>
<path d="M1406.42 224.784H1408.5V233.56H1406.42V224.784Z" fill="#906942"/>
<path d="M1402.9 223.529L1406.41 224.784V233.56L1402.9 232.3V223.529Z" fill="#AD8D5E"/>
<path d="M1403.24 225.306L1373.18 227.184L1359.02 222.223L1365.97 219.168L1393.24 218.507C1393.24 218.507 1399.92 223.151 1400.3 222.845C1400.69 222.54 1403.24 225.306 1403.24 225.306Z" fill="#472916"/>
<path d="M1364.68 212.336H1342.43C1342.43 212.336 1339.46 212.208 1339.35 213.608L1343.65 217.412L1362.73 223.523L1366.44 216.374L1364.68 212.336Z" fill="#30749C"/>
<path d="M1409.65 205.22L1407.79 206.553L1374.79 207.459H1371.89L1369.81 205.22C1369.81 205.22 1370.19 203.571 1376.09 203.293C1381.98 203.015 1404.5 203.293 1404.5 203.293C1404.5 203.293 1408.84 203.487 1409.65 205.22Z" fill="#30749C"/>
<path d="M1376.93 216.046L1412.04 228.4V223.528L1376.93 211.169V216.046Z" fill="#472916"/>
<path d="M1412.04 228.4L1374.45 230.839V225.962L1412.04 223.529V228.4Z" fill="#906942"/>
<path d="M1368.19 228.061H1370.27V236.837H1368.19V228.061Z" fill="#906942"/>
<path d="M1364.68 226.805L1368.19 228.061V236.837L1364.68 235.581V226.805Z" fill="#AD8D5E"/>
<path d="M1345.95 219.768H1348.02V228.544H1345.95V219.768Z" fill="#906942"/>
<path d="M1342.43 218.507L1345.95 219.768V228.544L1342.43 227.284V218.507Z" fill="#AD8D5E"/>
<path d="M1376.09 208.575L1363.58 222.14L1359.69 220.773L1373.94 205.22L1376.09 208.575Z" fill="#AD8D5E"/>
<path d="M1373.94 205.22C1373.94 205.22 1371.78 203.015 1369.64 205.22C1368.31 206.592 1361.66 213.902 1359.48 216.291C1358.33 217.563 1358.37 219.546 1359.63 220.718C1359.65 220.734 1359.67 220.757 1359.69 220.773L1373.94 205.22Z" fill="#398AB9"/>
<path d="M1363.67 222.04L1397.83 219.824L1411.15 208.431L1376.09 208.57L1363.67 222.04Z" fill="#6F4022"/>
<path d="M1339.35 218.485L1374.45 230.838V225.961L1339.35 213.608V218.485Z" fill="#AD8D5E"/>
<path d="M1373.94 205.22H1409.65L1411.15 208.436L1376.09 208.575L1373.94 205.22Z" fill="#906942"/>
<path d="M1354.57 171.898H1357.18V237.887H1354.57V171.898Z" fill="#6F4022"/>
<path d="M1304.36 180.519H1407.39L1356.12 147.88C1356.12 147.875 1356.12 147.875 1356.11 147.869L1355.88 147.725L1304.36 180.519Z" fill="#906942"/>
<path d="M1352.83 180.519H1407.39L1356.12 147.88C1358.1 149.774 1376.71 168.51 1352.83 180.519Z" fill="#6F4022"/>
<path d="M1355.79 147.725C1355.79 147.725 1321.15 170.932 1308.56 181.069C1308.56 181.069 1335.14 163.789 1355.79 147.725Z" fill="#AD8D5E"/>
<path d="M1355.96 147.725C1355.96 147.725 1390.6 170.932 1403.19 181.069C1403.18 181.069 1376.61 163.789 1355.96 147.725Z" fill="#AD8D5E"/>
<path d="M1355.79 147.725C1355.79 147.725 1328.45 173.603 1318.8 184.468C1318.8 184.463 1339.86 165.061 1355.79 147.725Z" fill="#AD8D5E"/>
<path d="M1355.79 147.725C1355.79 147.725 1336.78 173.342 1330.55 184.796C1330.55 184.796 1344.64 166.033 1355.79 147.725Z" fill="#AD8D5E"/>
<path d="M1355.79 147.725C1355.79 147.725 1343.3 173.987 1339.75 185.296C1339.75 185.296 1349.05 166.033 1355.79 147.725Z" fill="#AD8D5E"/>
<path d="M1355.79 147.725C1355.79 147.725 1350.42 173.981 1349.75 184.896C1349.75 184.896 1353.81 165.605 1355.79 147.725Z" fill="#AD8D5E"/>
<path d="M1355.96 147.725C1355.96 147.725 1383.3 173.603 1392.96 184.468C1392.95 184.463 1371.89 165.061 1355.96 147.725Z" fill="#AD8D5E"/>
<path d="M1355.96 147.725C1355.96 147.725 1374.97 173.342 1381.2 184.796C1381.2 184.796 1367.1 166.033 1355.96 147.725Z" fill="#AD8D5E"/>
<path d="M1355.96 147.725C1355.96 147.725 1368.45 173.987 1372 185.296C1372 185.296 1362.7 166.033 1355.96 147.725Z" fill="#AD8D5E"/>
<path d="M1355.96 147.725C1355.96 147.725 1361.33 173.981 1362 184.896C1362 184.896 1357.94 165.605 1355.96 147.725Z" fill="#AD8D5E"/>
<path d="M1356.07 229.549H1358.14V238.325H1356.07V229.549Z" fill="#906942"/>
<path d="M1352.55 228.293L1356.07 229.549V238.325L1352.55 237.07V228.293Z" fill="#AD8D5E"/>
<path d="M1352.89 230.071L1322.83 231.949L1308.67 226.988L1315.62 223.933L1342.9 223.272C1342.9 223.272 1349.57 227.916 1349.96 227.611C1350.35 227.305 1352.89 230.071 1352.89 230.071Z" fill="#472916"/>
<path d="M1314.33 217.101H1292.08C1292.08 217.101 1289.12 216.973 1289 218.373L1293.3 222.178L1312.39 228.288L1316.09 221.139L1314.33 217.101Z" fill="#30749C"/>
<path d="M1359.31 209.991L1357.44 211.324L1324.44 212.23H1321.54L1319.47 209.991C1319.47 209.991 1319.84 208.342 1325.74 208.064C1331.64 207.786 1354.16 208.064 1354.16 208.064C1354.16 208.064 1358.49 208.258 1359.31 209.991Z" fill="#30749C"/>
<path d="M1326.58 220.811L1361.69 233.17V228.293L1326.58 215.94V220.811Z" fill="#472916"/>
<path d="M1361.69 233.17L1324.11 235.609V230.732L1361.69 228.293V233.17Z" fill="#906942"/>
<path d="M1317.85 232.832H1319.92V241.608H1317.85V232.832Z" fill="#906942"/>
<path d="M1314.33 231.571L1317.85 232.832V241.608L1314.33 240.347V231.571Z" fill="#AD8D5E"/>
<path d="M1295.6 224.533H1297.68V233.309H1295.6V224.533Z" fill="#906942"/>
<path d="M1292.08 223.278L1295.6 224.533V233.309L1292.08 232.054V223.278Z" fill="#AD8D5E"/>
<path d="M1325.74 213.341L1313.23 226.905L1309.35 225.539L1323.59 209.991L1325.74 213.341Z" fill="#AD8D5E"/>
<path d="M1323.59 209.991C1323.59 209.991 1321.43 207.786 1319.3 209.991C1317.96 211.363 1311.31 218.673 1309.14 221.062C1307.99 222.334 1308.03 224.317 1309.29 225.489C1309.31 225.505 1309.32 225.528 1309.35 225.544L1323.59 209.991Z" fill="#398AB9"/>
<path d="M1313.32 226.811L1347.48 224.595L1360.81 213.202L1325.74 213.341L1313.32 226.811Z" fill="#6F4022"/>
<path d="M1289 223.249L1324.11 235.608V230.732L1289 218.373V223.249Z" fill="#AD8D5E"/>
<path d="M1323.59 209.991H1359.31L1360.8 213.202L1325.74 213.341L1323.59 209.991Z" fill="#906942"/>
</g>
<defs>
<linearGradient id="paint0_linear" x1="720" y1="55.0001" x2="720" y2="244" gradientUnits="userSpaceOnUse">
<stop stop-color="white"/>
<stop offset="1" stop-color="#A4A4A4"/>
</linearGradient>
<linearGradient id="paint1_linear" x1="720" y1="157.008" x2="720" y2="244" gradientUnits="userSpaceOnUse">
<stop stop-color="white"/>
<stop offset="1" stop-color="#8E8E8E"/>
</linearGradient>
<linearGradient id="paint2_linear" x1="1375.8" y1="142.836" x2="1375.8" y2="93.7665" gradientUnits="userSpaceOnUse">
<stop stop-color="#6F7B00"/>
<stop offset="0.5796" stop-color="#597414"/>
<stop offset="1" stop-color="#4F701E"/>
</linearGradient>
<linearGradient id="paint3_linear" x1="1358.68" y1="105.832" x2="1358.68" y2="86.9463" gradientUnits="userSpaceOnUse">
<stop stop-color="#6F7B00"/>
<stop offset="0.5796" stop-color="#597414"/>
<stop offset="1" stop-color="#4F701E"/>
</linearGradient>
<linearGradient id="paint4_linear" x1="1408.92" y1="244.997" x2="1408.92" y2="95.8304" gradientUnits="userSpaceOnUse">
<stop stop-color="#B87251"/>
<stop offset="0.2462" stop-color="#A76657"/>
<stop offset="0.7227" stop-color="#8B5360"/>
<stop offset="1" stop-color="#814C63"/>
</linearGradient>
<linearGradient id="paint5_linear" x1="1376.03" y1="95.83" x2="1328.71" y2="95.83" gradientUnits="userSpaceOnUse">
<stop stop-color="#AEAD13"/>
<stop offset="0.4047" stop-color="#899F21"/>
<stop offset="0.7814" stop-color="#6D942B"/>
<stop offset="1" stop-color="#63902F"/>
</linearGradient>
<linearGradient id="paint6_linear" x1="1360.26" y1="103.616" x2="1360.26" y2="91.2215" gradientUnits="userSpaceOnUse">
<stop stop-color="#C0B3D4"/>
<stop offset="0.4503" stop-color="#D2BFCD"/>
<stop offset="0.9944" stop-color="#E3CAC7"/>
</linearGradient>
<linearGradient id="paint7_linear" x1="1379.53" y1="142.836" x2="1379.53" y2="95.7157" gradientUnits="userSpaceOnUse">
<stop stop-color="#C0B3D4"/>
<stop offset="0.4503" stop-color="#D2BFCD"/>
<stop offset="0.9944" stop-color="#E3CAC7"/>
</linearGradient>
<linearGradient id="paint8_linear" x1="1360.5" y1="133.711" x2="1360.5" y2="101.9" gradientUnits="userSpaceOnUse">
<stop stop-color="#6F7B00"/>
<stop offset="0.5796" stop-color="#597E14"/>
<stop offset="1" stop-color="#4F7F1E"/>
</linearGradient>
<linearGradient id="paint9_linear" x1="1365.4" y1="141.139" x2="1365.4" y2="96.4024" gradientUnits="userSpaceOnUse">
<stop stop-color="#C2BA13"/>
<stop offset="0.6316" stop-color="#A6A627"/>
<stop offset="1" stop-color="#9C9F2F"/>
</linearGradient>
<linearGradient id="paint10_linear" x1="1397.78" y1="90.2651" x2="1397.78" y2="77.0647" gradientUnits="userSpaceOnUse">
<stop stop-color="#6F7B00"/>
<stop offset="0.5796" stop-color="#597E14"/>
<stop offset="1" stop-color="#4F7F1E"/>
</linearGradient>
<linearGradient id="paint11_linear" x1="1399.77" y1="113.102" x2="1399.77" y2="91.5935" gradientUnits="userSpaceOnUse">
<stop stop-color="#6F7B00"/>
<stop offset="0.5796" stop-color="#597414"/>
<stop offset="1" stop-color="#4F701E"/>
</linearGradient>
<linearGradient id="paint12_linear" x1="1365.52" y1="141.14" x2="1365.52" y2="96.6381" gradientUnits="userSpaceOnUse">
<stop stop-color="#AEAD13"/>
<stop offset="0.4047" stop-color="#899F21"/>
<stop offset="0.7814" stop-color="#6D942B"/>
<stop offset="1" stop-color="#63902F"/>
</linearGradient>
<linearGradient id="paint13_linear" x1="1411.68" y1="84.1407" x2="1375.53" y2="84.1407" gradientUnits="userSpaceOnUse">
<stop stop-color="#AEAD13"/>
<stop offset="0.4047" stop-color="#899F21"/>
<stop offset="0.7814" stop-color="#6D942B"/>
<stop offset="1" stop-color="#63902F"/>
</linearGradient>
<linearGradient id="paint14_linear" x1="1385.69" y1="126.259" x2="1385.69" y2="85.4046" gradientUnits="userSpaceOnUse">
<stop stop-color="#AEAD13"/>
<stop offset="0.4047" stop-color="#899F21"/>
<stop offset="0.7814" stop-color="#6D942B"/>
<stop offset="1" stop-color="#63902F"/>
</linearGradient>
<linearGradient id="paint15_linear" x1="1385.7" y1="126.259" x2="1385.7" y2="85.4046" gradientUnits="userSpaceOnUse">
<stop stop-color="#C2BA13"/>
<stop offset="0.6316" stop-color="#A6A627"/>
<stop offset="1" stop-color="#9C9F2F"/>
</linearGradient>
<linearGradient id="paint16_linear" x1="1398.68" y1="107.684" x2="1372.05" y2="107.684" gradientUnits="userSpaceOnUse">
<stop stop-color="#E2CF13"/>
<stop offset="0.3125" stop-color="#CABE1E"/>
<stop offset="0.747" stop-color="#AEAA2A"/>
<stop offset="1" stop-color="#A4A22F"/>
</linearGradient>
<linearGradient id="paint17_linear" x1="1371.19" y1="91.6795" x2="1328.71" y2="91.6795" gradientUnits="userSpaceOnUse">
<stop stop-color="#E2CF13"/>
<stop offset="0.3125" stop-color="#CABE1E"/>
<stop offset="0.747" stop-color="#AEAA2A"/>
<stop offset="1" stop-color="#A4A22F"/>
</linearGradient>
<linearGradient id="paint18_linear" x1="1373.59" y1="119.59" x2="1352.67" y2="119.59" gradientUnits="userSpaceOnUse">
<stop stop-color="#A4A22F"/>
<stop offset="0.253" stop-color="#AEAA2A"/>
<stop offset="0.6875" stop-color="#CABE1E"/>
<stop offset="1" stop-color="#E2CF13"/>
</linearGradient>
<linearGradient id="paint19_linear" x1="1403.61" y1="82.2204" x2="1377.16" y2="82.2204" gradientUnits="userSpaceOnUse">
<stop stop-color="#E2CF13"/>
<stop offset="0.3125" stop-color="#CABE1E"/>
<stop offset="0.747" stop-color="#AEAA2A"/>
<stop offset="1" stop-color="#A4A22F"/>
</linearGradient>
<linearGradient id="paint20_linear" x1="1385.33" y1="113.321" x2="1385.33" y2="99.6152" gradientUnits="userSpaceOnUse">
<stop stop-color="#C0B3D4"/>
<stop offset="0.4503" stop-color="#D2BFCD"/>
<stop offset="0.9944" stop-color="#E3CAC7"/>
</linearGradient>
<linearGradient id="paint21_linear" x1="1351.13" y1="101.155" x2="1351.13" y2="89.0653" gradientUnits="userSpaceOnUse">
<stop stop-color="#C0B3D4"/>
<stop offset="0.4503" stop-color="#D2BFCD"/>
<stop offset="0.9944" stop-color="#E3CAC7"/>
</linearGradient>
<linearGradient id="paint22_linear" x1="1339.33" y1="96.9808" x2="1339.33" y2="89.9887" gradientUnits="userSpaceOnUse">
<stop stop-color="#C0B3D4"/>
<stop offset="0.4503" stop-color="#D2BFCD"/>
<stop offset="0.9944" stop-color="#E3CAC7"/>
</linearGradient>
<linearGradient id="paint23_linear" x1="1394.44" y1="102.348" x2="1394.44" y2="99.9224" gradientUnits="userSpaceOnUse">
<stop stop-color="#C0B3D4"/>
<stop offset="0.4503" stop-color="#D2BFCD"/>
<stop offset="0.9944" stop-color="#E3CAC7"/>
</linearGradient>
<linearGradient id="paint24_linear" x1="1377.09" y1="97.0076" x2="1377.09" y2="90.8533" gradientUnits="userSpaceOnUse">
<stop stop-color="#C0B3D4"/>
<stop offset="0.4503" stop-color="#D2BFCD"/>
<stop offset="0.9944" stop-color="#E3CAC7"/>
</linearGradient>
<linearGradient id="paint25_linear" x1="1397.22" y1="86.4613" x2="1397.22" y2="77.6487" gradientUnits="userSpaceOnUse">
<stop stop-color="#C0B3D4"/>
<stop offset="0.4503" stop-color="#D2BFCD"/>
<stop offset="0.9944" stop-color="#E3CAC7"/>
</linearGradient>
<linearGradient id="paint26_linear" x1="1387.92" y1="86.4621" x2="1387.92" y2="76.1608" gradientUnits="userSpaceOnUse">
<stop stop-color="#C0B3D4"/>
<stop offset="0.4503" stop-color="#D2BFCD"/>
<stop offset="0.9944" stop-color="#E3CAC7"/>
</linearGradient>
<linearGradient id="paint27_linear" x1="1358.84" y1="131.67" x2="1358.84" y2="117.805" gradientUnits="userSpaceOnUse">
<stop stop-color="#C0B3D4"/>
<stop offset="0.4503" stop-color="#D2BFCD"/>
<stop offset="0.9944" stop-color="#E3CAC7"/>
</linearGradient>
<linearGradient id="paint28_linear" x1="1392" y1="101.899" x2="1392" y2="92.2308" gradientUnits="userSpaceOnUse">
<stop stop-color="#E2CF13"/>
<stop offset="0.624" stop-color="#C7BE27"/>
<stop offset="1" stop-color="#BDB82F"/>
</linearGradient>
<linearGradient id="paint29_linear" x1="1355.9" y1="115.975" x2="1355.9" y2="105.831" gradientUnits="userSpaceOnUse">
<stop stop-color="#E2CF13"/>
<stop offset="0.624" stop-color="#C7BE27"/>
<stop offset="1" stop-color="#BDB82F"/>
</linearGradient>
<linearGradient id="paint30_linear" x1="1348.47" y1="101.155" x2="1348.47" y2="88.1092" gradientUnits="userSpaceOnUse">
<stop stop-color="#C9C813"/>
<stop offset="0.6316" stop-color="#AEAC27"/>
<stop offset="1" stop-color="#A4A22F"/>
</linearGradient>
<linearGradient id="paint31_linear" x1="1401.34" y1="86.4617" x2="1401.34" y2="78.0273" gradientUnits="userSpaceOnUse">
<stop stop-color="#C9C813"/>
<stop offset="0.6316" stop-color="#AEAC27"/>
<stop offset="1" stop-color="#A4A22F"/>
</linearGradient>
<linearGradient id="paint32_linear" x1="1418.49" y1="220.036" x2="1418.49" y2="119.59" gradientUnits="userSpaceOnUse">
<stop stop-color="#EF9F3B"/>
<stop offset="0.2773" stop-color="#E5973F"/>
<stop offset="0.7538" stop-color="#C9804A"/>
<stop offset="1" stop-color="#B87251"/>
</linearGradient>
<linearGradient id="paint33_linear" x1="1412.61" y1="143.451" x2="1412.61" y2="129.087" gradientUnits="userSpaceOnUse">
<stop stop-color="#DD9063"/>
<stop offset="0.6534" stop-color="#DC8D59"/>
<stop offset="1" stop-color="#DB8B51"/>
</linearGradient>
<linearGradient id="paint34_linear" x1="1431.76" y1="244.998" x2="1431.76" y2="176.026" gradientUnits="userSpaceOnUse">
<stop stop-color="#C0B3D4"/>
<stop offset="0.4503" stop-color="#D2BFCD"/>
<stop offset="0.9944" stop-color="#E3CAC7"/>
</linearGradient>
</defs>
</svg>
