<svg width="1440" height="133" viewBox="0 0 1440 133" fill="none" xmlns="http://www.w3.org/2000/svg">
<path d="M990.58 34.3059C996.32 28.2759 1005.91 26.2959 1013.56 29.5659C1021.15 32.8059 1026.45 40.4259 1034.38 42.6859C1043.04 45.1459 1052.52 40.5459 1061.19 42.9459C1065.27 44.0759 1068.79 46.6659 1072.76 48.1159C1079.13 50.4559 1086.14 49.7259 1092.93 49.6459C1099.72 49.5659 1107.07 50.3859 1112.05 54.9959H923C928.89 49.5959 936.96 47.8559 944.84 49.1659C948.37 49.7559 952.45 50.6559 955.19 48.3459C956.54 47.2159 957.24 45.5259 958.22 44.0559C961.06 39.8059 966.57 37.5259 971.59 38.5259C973.73 38.9559 975.77 39.9159 977.95 40.0259C982.03 40.2259 987.76 37.2559 990.58 34.3059Z" fill="#34C1FD" fill-opacity="0.2"/>
<path d="M456.86 127.847H276.36C282.68 119.807 294.12 115.837 304.12 117.977C310.01 119.237 316.04 122.437 321.74 120.467C326.76 118.737 329.82 113.457 334.7 111.357C341.53 108.417 349.75 112.507 356.74 109.977C362.74 107.797 366.02 101.487 370.73 97.1772C379.42 89.2172 394.08 88.9072 403.11 96.4972C408.9 101.367 412.64 109.017 419.75 111.607C424.37 113.287 429.48 112.427 434.39 112.747C443.69 113.347 451.76 120.047 456.86 127.847Z" fill="#34C1FD" fill-opacity="0.2"/>
<path d="M161.5 90.8472H-19C-12.68 82.8072 -1.24001 78.8372 8.75999 80.9772C14.65 82.2372 20.68 85.4372 26.38 83.4672C31.4 81.7372 34.46 76.4572 39.34 74.3572C46.17 71.4172 54.39 75.5072 61.38 72.9772C67.38 70.7972 70.66 64.4872 75.37 60.1772C84.06 52.2172 98.72 51.9072 107.75 59.4972C113.54 64.3672 117.28 72.0172 124.39 74.6072C129.01 76.2872 134.12 75.4272 139.03 75.7472C148.33 76.3472 156.4 83.0472 161.5 90.8472Z" fill="#34C1FD" fill-opacity="0.2"/>
<g opacity="0.4">
<path d="M1375 133C1436.86 133 1487 82.8559 1487 21C1487 -40.8559 1436.86 -91 1375 -91C1313.14 -91 1263 -40.8559 1263 21C1263 82.8559 1313.14 133 1375 133Z" fill="#FFEB94"/>
<path d="M1370.29 107.02C1423.71 107.02 1467.02 63.7126 1467.02 10.2901C1467.02 -43.1325 1423.71 -86.4399 1370.29 -86.4399C1316.87 -86.4399 1273.56 -43.1325 1273.56 10.2901C1273.56 63.7126 1316.87 107.02 1370.29 107.02Z" fill="#FFE161"/>
</g>
<path d="M1412 133H1159C1167.86 124.927 1183.89 120.94 1197.91 123.089C1206.17 124.354 1214.62 127.568 1222.61 125.589C1229.64 123.852 1233.93 118.55 1240.77 116.442C1250.35 113.489 1261.87 117.596 1271.67 115.056C1280.08 112.867 1284.67 106.531 1291.27 102.203C1303.46 94.2098 1324 93.8985 1336.66 101.52C1344.78 106.41 1350.02 114.092 1359.98 116.693C1366.46 118.38 1373.62 117.516 1380.5 117.837C1393.54 118.44 1404.85 125.168 1412 133Z" fill="#D6F0F3"/>
</svg>
