<svg width="1431" height="133" viewBox="0 0 1431 133" fill="none" xmlns="http://www.w3.org/2000/svg">
<path d="M981.58 34.3059C987.32 28.2759 996.91 26.2959 1004.56 29.5659C1012.15 32.8059 1017.45 40.4259 1025.38 42.6859C1034.04 45.1459 1043.52 40.5459 1052.19 42.9459C1056.27 44.0759 1059.79 46.6659 1063.76 48.1159C1070.13 50.4559 1077.14 49.7259 1083.93 49.6459C1090.72 49.5659 1098.07 50.3859 1103.05 54.9959H914C919.89 49.5959 927.96 47.8559 935.84 49.1659C939.37 49.7559 943.45 50.6559 946.19 48.3459C947.54 47.2159 948.24 45.5259 949.22 44.0559C952.06 39.8059 957.57 37.5259 962.59 38.5259C964.73 38.9559 966.77 39.9159 968.95 40.0259C973.03 40.2259 978.76 37.2559 981.58 34.3059Z" fill="#34C1FD" fill-opacity="0.2"/>
<path d="M447.86 127.847H267.36C273.68 119.807 285.12 115.837 295.12 117.977C301.01 119.237 307.04 122.437 312.74 120.467C317.76 118.737 320.82 113.457 325.7 111.357C332.53 108.417 340.75 112.507 347.74 109.977C353.74 107.797 357.02 101.487 361.73 97.1772C370.42 89.2172 385.08 88.9072 394.11 96.4972C399.9 101.367 403.64 109.017 410.75 111.607C415.37 113.287 420.48 112.427 425.39 112.747C434.69 113.347 442.76 120.047 447.86 127.847Z" fill="#34C1FD" fill-opacity="0.2"/>
<path d="M180.5 90.8472H0C6.32 82.8072 17.76 78.8372 27.76 80.9772C33.65 82.2372 39.68 85.4372 45.38 83.4672C50.4 81.7372 53.46 76.4572 58.34 74.3572C65.17 71.4172 73.39 75.5072 80.38 72.9772C86.38 70.7972 89.66 64.4872 94.37 60.1772C103.06 52.2172 117.72 51.9072 126.75 59.4972C132.54 64.3672 136.28 72.0172 143.39 74.6072C148.01 76.2872 153.12 75.4272 158.03 75.7472C167.33 76.3472 175.4 83.0472 180.5 90.8472Z" fill="#34C1FD" fill-opacity="0.2"/>
<path d="M1403 133H1150C1158.86 124.927 1174.89 120.94 1188.91 123.089C1197.17 124.354 1205.62 127.568 1213.61 125.589C1220.64 123.852 1224.93 118.55 1231.77 116.442C1241.35 113.489 1252.87 117.596 1262.67 115.056C1271.08 112.867 1275.67 106.531 1282.27 102.203C1294.46 94.2098 1315 93.8985 1327.66 101.52C1335.78 106.41 1341.02 114.092 1350.98 116.693C1357.46 118.38 1364.62 117.516 1371.5 117.837C1384.54 118.44 1395.85 125.168 1403 133Z" fill="#34C1FD" fill-opacity="0.2"/>
</svg>
