<svg width="44" height="31" viewBox="0 0 44 31" fill="none" xmlns="http://www.w3.org/2000/svg">
<path d="M20.8399 17.29L17.6824 14.7125C17.4784 14.5492 17.3256 14.3309 17.242 14.0833C17.1584 13.8357 17.1475 13.5694 17.2107 13.3159V13.3159C17.2603 13.1176 17.3538 12.933 17.4842 12.7757C17.6146 12.6184 17.7787 12.4924 17.9644 12.407C18.15 12.3216 18.3525 12.2789 18.5568 12.2822C18.7611 12.2855 18.9621 12.3346 19.1449 12.4259L20.1232 12.915V7.29004C20.1232 6.95852 20.2549 6.64058 20.4894 6.40616C20.7238 6.17173 21.0417 6.04004 21.3732 6.04004V6.04004C21.7048 6.04004 22.0227 6.17173 22.2571 6.40616C22.4915 6.64058 22.6232 6.95852 22.6232 7.29004V11.04L24.2841 11.3175C24.8678 11.4148 25.3981 11.716 25.7807 12.1675C26.1632 12.619 26.3732 13.1916 26.3732 13.7834V17.29" stroke="#747474" stroke-linecap="round" stroke-linejoin="round"/>
<path d="M12.6233 6.04004H16.9983" stroke="#747474" stroke-linecap="round" stroke-linejoin="round"/>
<path d="M15.7483 2.91504L12.6233 6.04004L15.7483 9.16504" stroke="#747474" stroke-linecap="round" stroke-linejoin="round"/>
<path d="M25.1233 6.04004H31.3733" stroke="#747474" stroke-linecap="round" stroke-linejoin="round"/>
<path d="M28.2483 2.91504L31.3733 6.04004L28.2483 9.16504" stroke="#747474" stroke-linecap="round" stroke-linejoin="round"/>
<path opacity="0.8" d="M0.35 27.313L0.959 27.194C1.029 27.67 1.162 28.0177 1.358 28.237C1.55867 28.4517 1.88533 28.559 2.338 28.559C2.702 28.559 2.97733 28.4773 3.164 28.314C3.35067 28.1507 3.444 27.95 3.444 27.712C3.444 27.4787 3.36 27.2943 3.192 27.159C3.024 27.0237 2.65767 26.8627 2.093 26.676C1.55167 26.5033 1.162 26.3143 0.924 26.109C0.690667 25.899 0.574 25.6237 0.574 25.283C0.574 24.9283 0.711667 24.625 0.987 24.373C1.267 24.121 1.64267 23.995 2.114 23.995C2.576 23.995 2.961 24.1093 3.269 24.338C3.577 24.5667 3.76133 24.9027 3.822 25.346L3.234 25.472C3.178 25.1733 3.06367 24.9447 2.891 24.786C2.723 24.6273 2.464 24.548 2.114 24.548C1.806 24.548 1.57033 24.618 1.407 24.758C1.24367 24.898 1.162 25.073 1.162 25.283C1.162 25.4697 1.23667 25.6213 1.386 25.738C1.53533 25.8547 1.86667 25.997 2.38 26.165C3.02867 26.375 3.465 26.5873 3.689 26.802C3.913 27.0167 4.025 27.3107 4.025 27.684C4.025 28.0853 3.87333 28.4237 3.57 28.699C3.26667 28.9697 2.849 29.105 2.317 29.105C1.155 29.105 0.499333 28.5077 0.35 27.313ZM4.94064 29L4.12164 25.29H4.68864L5.28364 28.083H5.29764L6.27764 25.29H6.79564L7.76164 28.083H7.77564L8.44064 25.29H9.00064L8.11164 29H7.58664L6.53664 25.969H6.52264L5.47264 29H4.94064ZM9.45341 29V25.29H10.0274V29H9.45341ZM9.41141 24.541V23.89H10.0694V24.541H9.41141ZM11.3311 26.606V27.782C11.3311 27.9967 11.4221 28.1857 11.6041 28.349C11.7861 28.5077 12.0124 28.587 12.2831 28.587C12.6518 28.587 12.9341 28.461 13.1301 28.209C13.3308 27.957 13.4311 27.6023 13.4311 27.145C13.4311 26.6923 13.3308 26.34 13.1301 26.088C12.9294 25.8313 12.6471 25.703 12.2831 25.703C11.9984 25.703 11.7674 25.7963 11.5901 25.983C11.4174 26.1697 11.3311 26.3773 11.3311 26.606ZM10.7571 30.575V25.29H11.3031V25.647H11.3171C11.4104 25.5303 11.5504 25.4253 11.7371 25.332C11.9238 25.234 12.1384 25.185 12.3811 25.185C12.8431 25.185 13.2281 25.3647 13.5361 25.724C13.8441 26.0787 13.9981 26.5523 13.9981 27.145C13.9981 27.7423 13.8488 28.2183 13.5501 28.573C13.2514 28.9277 12.8618 29.105 12.3811 29.105C12.1524 29.105 11.9424 29.056 11.7511 28.958C11.5598 28.86 11.4244 28.755 11.3451 28.643H11.3311V30.575H10.7571ZM17.0097 27.859L17.4717 28.16C17.3317 28.4307 17.131 28.657 16.8697 28.839C16.613 29.0163 16.2957 29.105 15.9177 29.105C15.4137 29.105 15.0007 28.9277 14.6787 28.573C14.3567 28.2137 14.1957 27.7377 14.1957 27.145C14.1957 26.5523 14.352 26.0787 14.6647 25.724C14.982 25.3647 15.3904 25.185 15.8897 25.185C16.3844 25.185 16.7857 25.36 17.0937 25.71C17.4017 26.06 17.5557 26.5383 17.5557 27.145V27.313H14.7697C14.7744 27.6677 14.8724 27.9687 15.0637 28.216C15.2597 28.4633 15.5397 28.587 15.9037 28.587C16.0437 28.587 16.1744 28.5683 16.2957 28.531C16.417 28.489 16.5104 28.4493 16.5757 28.412C16.641 28.37 16.7087 28.3047 16.7787 28.216C16.8534 28.1227 16.8977 28.062 16.9117 28.034C16.9304 28.006 16.963 27.9477 17.0097 27.859ZM14.7837 26.858H16.9887C16.9794 26.5453 16.886 26.2747 16.7087 26.046C16.5314 25.8173 16.2584 25.703 15.8897 25.703C15.5304 25.703 15.2574 25.8267 15.0707 26.074C14.884 26.3167 14.7884 26.578 14.7837 26.858ZM19.3843 29V25.801H18.8663V25.29H19.3913V24.723C19.3913 24.4103 19.4613 24.1933 19.6013 24.072C19.7413 23.9507 19.9419 23.89 20.2033 23.89H20.7983V24.401H20.3083C20.1636 24.401 20.0656 24.429 20.0143 24.485C19.9676 24.541 19.9443 24.6577 19.9443 24.835V25.29H20.8613V25.801H19.9513V29H19.3843ZM22.5038 28.587C22.8165 28.587 23.0755 28.461 23.2808 28.209C23.4908 27.9523 23.5958 27.5977 23.5958 27.145C23.5958 26.6923 23.4931 26.34 23.2878 26.088C23.0825 25.8313 22.8211 25.703 22.5038 25.703C22.1771 25.703 21.9088 25.829 21.6988 26.081C21.4888 26.3283 21.3838 26.683 21.3838 27.145C21.3838 27.607 21.4888 27.964 21.6988 28.216C21.9088 28.4633 22.1771 28.587 22.5038 28.587ZM22.5038 29.105C22.0138 29.105 21.6101 28.9323 21.2928 28.587C20.9755 28.2417 20.8168 27.761 20.8168 27.145C20.8168 26.5383 20.9801 26.06 21.3068 25.71C21.6335 25.36 22.0325 25.185 22.5038 25.185C22.9705 25.185 23.3625 25.36 23.6798 25.71C24.0018 26.06 24.1628 26.5383 24.1628 27.145C24.1628 27.761 24.0065 28.2417 23.6938 28.587C23.3811 28.9323 22.9845 29.105 22.5038 29.105ZM24.6087 29V25.29H25.1547V25.689H25.1687C25.2433 25.5397 25.353 25.4253 25.4977 25.346C25.6423 25.2667 25.7893 25.227 25.9387 25.227C25.9947 25.227 26.0483 25.234 26.0997 25.248C26.1557 25.2573 26.1977 25.2667 26.2257 25.276L26.2607 25.297L26.1557 25.864C26.0857 25.8267 25.9877 25.808 25.8617 25.808C25.6237 25.808 25.451 25.8873 25.3437 26.046C25.2363 26.2 25.1827 26.4497 25.1827 26.795V29H24.6087ZM30.2208 27.768V26.62C30.2208 26.3867 30.1344 26.1767 29.9618 25.99C29.7891 25.7987 29.5581 25.703 29.2688 25.703C28.9001 25.703 28.6201 25.829 28.4288 26.081C28.2374 26.333 28.1418 26.6877 28.1418 27.145C28.1418 27.6023 28.2374 27.957 28.4288 28.209C28.6201 28.461 28.9001 28.587 29.2688 28.587C29.5394 28.587 29.7658 28.5053 29.9478 28.342C30.1298 28.1787 30.2208 27.9873 30.2208 27.768ZM30.2768 29V28.643H30.2628C30.1648 28.7597 30.0201 28.867 29.8288 28.965C29.6421 29.0583 29.4251 29.105 29.1778 29.105C28.6878 29.105 28.2958 28.9277 28.0018 28.573C27.7124 28.2183 27.5678 27.7423 27.5678 27.145C27.5678 26.5523 27.7194 26.0787 28.0228 25.724C28.3308 25.3647 28.7158 25.185 29.1778 25.185C29.6024 25.185 29.9454 25.339 30.2068 25.647H30.2208V23.89H30.7948V29H30.2768ZM33.6387 29V28.594H33.6247C33.5547 28.7153 33.4217 28.832 33.2257 28.944C33.0297 29.0513 32.7847 29.105 32.4907 29.105C32.08 29.105 31.7674 29.0047 31.5527 28.804C31.3427 28.6033 31.2377 28.3513 31.2377 28.048C31.2377 27.74 31.331 27.4997 31.5177 27.327C31.709 27.1497 32.031 27.0027 32.4837 26.886C32.6517 26.844 32.7754 26.8113 32.8547 26.788C32.9387 26.7647 33.0344 26.7343 33.1417 26.697C33.249 26.655 33.326 26.6153 33.3727 26.578C33.4194 26.5407 33.459 26.494 33.4917 26.438C33.529 26.382 33.5477 26.319 33.5477 26.249C33.5477 26.0903 33.4824 25.9597 33.3517 25.857C33.2257 25.7497 33.032 25.696 32.7707 25.696C32.276 25.696 31.975 25.941 31.8677 26.431L31.3497 26.284C31.4104 25.9573 31.562 25.6937 31.8047 25.493C32.0474 25.2877 32.3624 25.185 32.7497 25.185C33.179 25.185 33.5174 25.2923 33.7647 25.507C34.0167 25.717 34.1427 26.0483 34.1427 26.501V29H33.6387ZM32.6167 27.327C32.2994 27.4157 32.0824 27.5113 31.9657 27.614C31.8537 27.7167 31.7977 27.8497 31.7977 28.013C31.7977 28.4003 32.0427 28.594 32.5327 28.594C32.8687 28.594 33.1277 28.5193 33.3097 28.37C33.4917 28.216 33.5827 28.0293 33.5827 27.81V26.886H33.5687C33.5034 27.0213 33.186 27.1683 32.6167 27.327ZM34.896 27.922V25.801H34.378V25.29H34.91V24.38H35.456V25.29H36.373V25.801H35.463V27.852C35.463 28.0713 35.4933 28.2253 35.554 28.314C35.6146 28.4027 35.736 28.447 35.918 28.447H36.198V29H35.89C35.54 29 35.2856 28.9113 35.127 28.734C34.973 28.552 34.896 28.2813 34.896 27.922ZM39.2177 27.859L39.6797 28.16C39.5397 28.4307 39.339 28.657 39.0777 28.839C38.821 29.0163 38.5037 29.105 38.1257 29.105C37.6217 29.105 37.2087 28.9277 36.8867 28.573C36.5647 28.2137 36.4037 27.7377 36.4037 27.145C36.4037 26.5523 36.56 26.0787 36.8727 25.724C37.19 25.3647 37.5984 25.185 38.0977 25.185C38.5924 25.185 38.9937 25.36 39.3017 25.71C39.6097 26.06 39.7637 26.5383 39.7637 27.145V27.313H36.9777C36.9824 27.6677 37.0804 27.9687 37.2717 28.216C37.4677 28.4633 37.7477 28.587 38.1117 28.587C38.2517 28.587 38.3824 28.5683 38.5037 28.531C38.625 28.489 38.7184 28.4493 38.7837 28.412C38.849 28.37 38.9167 28.3047 38.9867 28.216C39.0614 28.1227 39.1057 28.062 39.1197 28.034C39.1384 28.006 39.171 27.9477 39.2177 27.859ZM36.9917 26.858H39.1967C39.1874 26.5453 39.094 26.2747 38.9167 26.046C38.7394 25.8173 38.4664 25.703 38.0977 25.703C37.7384 25.703 37.4654 25.8267 37.2787 26.074C37.092 26.3167 36.9964 26.578 36.9917 26.858ZM39.9293 27.74L40.4683 27.635C40.5383 28.2837 40.8813 28.608 41.4973 28.608C41.7913 28.608 42.0106 28.5543 42.1553 28.447C42.3046 28.3397 42.3793 28.1973 42.3793 28.02C42.3793 27.8333 42.3093 27.6933 42.1693 27.6C42.0339 27.5067 41.7469 27.3993 41.3083 27.278C40.8509 27.152 40.5289 27.0097 40.3423 26.851C40.1556 26.6923 40.0623 26.4777 40.0623 26.207C40.0623 25.9317 40.1766 25.6937 40.4053 25.493C40.6339 25.2877 40.9489 25.185 41.3503 25.185C41.7563 25.185 42.0783 25.283 42.3163 25.479C42.5543 25.6703 42.7129 25.927 42.7923 26.249L42.2953 26.382C42.1506 25.9107 41.8356 25.675 41.3503 25.675C41.1076 25.675 40.9209 25.7263 40.7903 25.829C40.6596 25.9317 40.5943 26.053 40.5943 26.193C40.5943 26.347 40.6573 26.4613 40.7833 26.536C40.9093 26.6107 41.1986 26.7133 41.6513 26.844C42.1319 26.9793 42.4609 27.1357 42.6383 27.313C42.8203 27.4857 42.9136 27.7213 42.9183 28.02C42.9183 28.314 42.7993 28.5683 42.5613 28.783C42.3279 28.9977 41.9756 29.105 41.5043 29.105C41.0143 29.105 40.6386 28.979 40.3773 28.727C40.1206 28.4703 39.9713 28.1413 39.9293 27.74Z" fill="#747474"/>
</svg>
